ply
format ascii 1.0
element vertex 2048
property float x
property float y
property float z
property uchar red
property uchar green
property uchar blue
end_header
-5.258 12.259 -2.490 229 25 25
-9.975 0.019 -2.032 229 25 25
-12.834 7.476 -0.777 229 25 25
-1.679 6.188 -1.961 229 25 25
4.643 -0.853 -1.658 229 25 25
-8.840 11.083 -1.652 229 25 25
-5.286 -3.026 -1.692 229 25 25
-2.875 10.946 0.331 229 25 25
7.364 11.487 -0.597 229 25 25
-4.757 2.804 -1.999 229 25 25
13.050 -23.442 0.036 51 204 51
5.448 -6.852 -1.385 229 25 25
-6.742 -0.876 -1.797 229 25 25
13.221 5.141 -1.825 229 25 25
7.939 7.136 -1.801 229 25 25
-1.621 -6.492 -1.433 229 25 25
7.412 6.729 -1.758 229 25 25
2.266 5.959 -1.902 229 25 25
14.892 -3.271 -1.576 229 25 25
-3.378 -3.569 -1.602 229 25 25
-0.436 7.878 -1.974 229 25 25
3.323 2.928 -1.800 229 25 25
-16.586 2.558 -2.222 229 25 25
6.901 10.184 -1.986 229 25 25
-9.687 -4.758 -1.006 229 25 25
-3.916 2.869 -1.998 229 25 25
0.832 -25.804 -0.725 229 25 25
9.394 2.015 -1.662 229 25 25
-18.894 7.811 -1.735 229 25 25
4.793 1.987 -1.728 229 25 25
8.414 31.714 -2.838 229 25 25
-25.316 -15.334 1.336 229 25 25
-8.342 -9.493 -1.827 229 25 25
2.834 -7.120 -1.396 229 25 25
-0.776 -6.990 0.428 229 25 25
5.000 -3.321 -1.523 229 25 25
19.638 -7.244 -1.328 229 25 25
1.644 7.005 -1.879 229 25 25
34.356 -23.047 1.626 51 204 51
-0.546 -16.676 -1.270 229 25 25
6.696 0.602 -1.635 229 25 25
-10.978 -2.358 -1.834 229 25 25
5.955 16.344 0.041 229 25 25
4.487 -5.737 -1.452 229 25 25
7.407 11.489 -0.260 229 25 25
-36.866 -30.097 -1.194 229 25 25
-9.755 9.283 -2.176 229 25 25
-38.236 -37.555 -1.734 51 204 51
-15.780 36.216 0.109 229 25 25
7.894 4.664 -1.785 229 25 25
1.652 4.319 -1.998 229 25 25
5.163 -0.767 -1.647 229 25 25
9.014 4.551 -1.853 229 25 25
4.392 -1.348 -1.708 229 25 25
8.347 -2.797 -1.484 229 25 25
-17.117 7.429 -0.137 229 25 25
-1.886 8.829 0.296 229 25 25
13.872 10.587 -1.866 229 25 25
14.851 -1.329 -1.542 229 25 25
3.166 8.755 -1.996 229 25 25
7.550 18.077 -0.578 229 25 25
-25.230 4.580 -2.384 229 25 25
7.967 9.324 -1.977 229 25 25
11.416 8.090 -1.807 229 25 25
-0.494 -14.833 -1.288 229 25 25
-0.030 10.139 -2.266 229 25 25
5.175 17.145 -1.592 229 25 25
-8.941 10.481 -1.947 229 25 25
10.457 3.658 -1.759 229 25 25
6.165 -27.365 -0.985 229 25 25
-23.779 -18.097 1.342 229 25 25
-0.194 -5.306 -1.470 229 25 25
-4.018 -4.653 -1.581 229 25 25
2.958 -6.072 -1.443 229 25 25
-3.665 -5.616 -1.275 229 25 25
6.689 -3.638 -1.322 229 25 25
5.579 -2.371 -1.551 229 25 25
-14.176 -5.248 0.835 229 25 25
13.337 16.570 -0.497 229 25 25
-9.834 7.500 -1.291 229 25 25
6.131 -29.188 1.275 229 25 25
4.113 6.714 -1.163 229 25 25
0.909 -8.721 -1.375 229 25 25
12.672 6.146 -1.814 229 25 25
3.254 -4.675 -1.478 229 25 25
-7.770 -7.915 -1.796 229 25 25
4.782 16.293 -1.392 229 25 25
-2.162 -4.538 -1.564 229 25 25
-17.831 -4.799 0.835 229 25 25
26.227 -11.566 -1.057 229 25 25
-2.534 -14.893 -1.412 229 25 25
-6.034 1.109 -1.930 229 25 25
-23.852 -16.298 0.615 229 25 25
-10.795 -13.202 0.351 229 25 25
0.943 -11.094 -1.048 229 25 25
11.365 -4.167 -1.498 229 25 25
2.381 4.638 -1.916 229 25 25
-7.033 -5.939 -1.730 229 25 25
11.243 11.460 -1.994 229 25 25
2.471 -10.478 -1.320 229 25 25
5.946 15.044 -2.317 229 25 25
19.375 10.675 -1.444 51 204 51
7.454 6.383 -1.807 229 25 25
7.703 -15.421 -1.235 229 25 25
2.400 -9.247 -1.338 229 25 25
3.810 12.416 -2.219 229 25 25
-6.414 -11.442 0.590 229 25 25
3.892 4.115 -1.915 229 25 25
1.908 4.141 -1.971 229 25 25
-0.884 -13.559 -1.331 229 25 25
4.447 -3.293 -1.550 229 25 25
10.837 10.478 -1.964 229 25 25
-15.976 2.477 -2.206 229 25 25
-5.821 2.265 -1.975 229 25 25
7.027 11.730 -1.678 229 25 25
8.192 -8.705 -1.164 229 25 25
6.046 0.815 -1.658 229 25 25
-12.849 9.034 -0.558 229 25 25
-3.449 7.777 -2.035 229 25 25
7.927 18.732 -1.326 229 25 25
-0.771 -7.013 -0.828 229 25 25
4.069 -8.669 -1.346 229 25 25
6.845 -3.334 -1.485 229 25 25
-18.857 -4.053 -0.444 229 25 25
6.171 -7.409 -1.365 229 25 25
2.462 5.895 -1.906 229 25 25
-8.487 -3.271 -1.718 229 25 25
-6.103 0.644 -1.928 229 25 25
-0.288 -3.848 -1.553 229 25 25
5.468 16.130 -0.268 229 25 25
-0.758 -6.943 -0.639 229 25 25
6.627 11.823 -1.568 229 25 25
5.075 0.060 -1.661 229 25 25
7.105 -3.300 -0.359 229 25 25
3.818 -5.239 -1.450 229 25 25
26.056 17.139 -0.806 229 25 25
1.593 4.091 -1.991 229 25 25
-9.473 11.956 0.561 229 25 25
4.960 -5.920 -1.416 229 25 25
-21.900 -20.202 -2.099 229 25 25
4.618 -18.190 -1.127 229 25 25
6.805 -3.752 -0.968 229 25 25
27.086 20.200 -1.902 229 25 25
-8.879 1.981 -2.061 229 25 25
-5.530 2.877 -2.037 229 25 25
25.443 -15.627 -0.927 229 25 25
5.970 2.505 -1.718 229 25 25
5.800 15.578 -0.466 229 25 25
3.806 2.898 -1.794 229 25 25
10.870 8.624 -1.855 229 25 25
-1.910 6.603 -1.955 229 25 25
10.925 -24.341 0.211 51 204 51
27.084 -10.749 -1.079 229 25 25
6.378 -8.224 -1.354 229 25 25
-12.432 -16.080 -2.704 229 25 25
-8.652 -1.823 -1.834 229 25 25
2.931 5.475 -1.916 229 25 25
10.374 3.033 -1.712 229 25 25
0.104 5.492 -1.950 229 25 25
7.505 16.892 -1.528 229 25 25
8.930 -1.783 -1.547 229 25 25
-5.973 4.345 -2.069 229 25 25
-2.354 10.556 0.406 229 25 25
5.013 4.708 -1.847 229 25 25
2.978 -2.810 -1.592 229 25 25
6.224 16.354 -0.384 229 25 25
1.210 6.884 -1.885 229 25 25
-1.822 -37.981 -2.070 229 25 25
28.781 1.996 -1.431 229 25 25
5.438 -3.425 -1.517 229 25 25
-14.661 7.789 0.574 229 25 25
5.318 0.769 -1.670 229 25 25
-5.370 -11.258 -1.564 229 25 25
-4.143 2.950 -1.988 229 25 25
10.917 2.436 -1.662 229 25 25
3.282 -3.043 -1.575 229 25 25
-2.570 4.791 -2.014 229 25 25
6.454 -5.557 -1.350 229 25 25
4.793 -0.560 -1.649 229 25 25
-3.660 -18.986 -1.393 229 25 25
13.180 4.934 -1.809 229 25 25
2.001 19.734 -2.875 229 25 25
-3.548 -3.797 -1.595 229 25 25
9.263 -9.100 -1.042 229 25 25
-15.249 -4.578 -0.813 229 25 25
-5.187 -27.945 0.721 229 25 25
-0.958 -3.745 -1.570 229 25 25
-12.214 6.161 -1.277 229 25 25
-11.797 1.387 -2.096 229 25 25
28.908 -11.239 0.531 229 25 25
4.036 3.659 -1.881 229 25 25
16.966 -18.735 -0.737 229 25 25
-11.903 -12.125 0.885 229 25 25
2.476 4.025 -1.933 229 25 25
5.541 0.733 -1.677 229 25 25
19.318 11.152 -1.073 51 204 51
6.153 2.946 -1.757 229 25 25
34.379 -15.854 0.339 229 25 25
-8.306 -10.832 -1.836 229 25 25
4.574 -2.899 -1.572 229 25 25
1.859 4.575 -1.928 229 25 25
3.431 -6.054 -1.437 229 25 25
7.376 11.668 -1.696 229 25 25
-11.029 -20.651 -1.328 229 25 25
-6.495 2.574 -2.020 229 25 25
8.946 2.286 -1.676 229 25 25
-32.501 7.729 0.052 229 25 25
-8.889 12.536 -2.190 229 25 25
3.976 6.866 -1.825 229 25 25
-2.260 5.234 -2.000 229 25 25
11.508 -6.808 -1.005 229 25 25
-15.113 7.077 -1.289 229 25 25
0.228 -4.677 -1.468 229 25 25
-7.683 13.923 -0.354 229 25 25
2.794 -3.654 -1.518 229 25 25
36.097 -30.606 0.159 51 204 51
7.189 11.272 0.076 229 25 25
-4.693 4.131 -2.061 229 25 25
-9.173 9.771 -0.999 229 25 25
4.274 -1.782 -1.608 229 25 25
6.922 -14.749 -1.249 229 25 25
-8.880 9.298 -0.579 229 25 25
6.513 4.455 -1.885 229 25 25
31.722 -11.048 -0.860 229 25 25
1.569 -7.897 -1.379 229 25 25
-27.166 9.477 -0.629 229 25 25
-5.695 3.592 -2.092 229 25 25
-6.445 -1.079 -1.791 229 25 25
3.284 3.522 -1.875 229 25 25
11.364 -25.785 -1.000 51 204 51
-4.316 -2.007 -1.725 229 25 25
19.405 13.456 -1.987 229 25 25
4.572 4.884 -1.863 229 25 25
-5.356 -0.050 -1.746 229 25 25
6.901 -3.296 -1.332 229 25 25
-4.267 -7.654 -1.524 229 25 25
-4.869 -3.171 -1.680 229 25 25
8.026 4.182 -1.844 229 25 25
12.055 13.259 0.371 229 25 25
-12.129 8.390 0.016 229 25 25
3.848 5.850 -1.888 229 25 25
-8.217 11.978 -0.409 229 25 25
-7.240 0.244 -1.960 229 25 25
-0.175 10.189 -2.278 229 25 25
2.545 3.754 -1.897 229 25 25
4.019 6.718 -1.798 229 25 25
-2.491 -8.240 -1.413 229 25 25
15.127 -5.162 -1.558 229 25 25
6.767 11.543 -0.171 229 25 25
-5.317 -1.681 -1.754 229 25 25
0.186 -20.354 -1.134 229 25 25
1.417 7.270 -1.936 229 25 25
-0.069 -4.369 -1.489 229 25 25
24.026 31.337 -2.530 229 25 25
0.278 -6.630 -1.414 229 25 25
30.762 -34.252 0.705 51 204 51
-4.834 -4.007 -1.626 229 25 25
7.584 -5.403 -1.413 229 25 25
6.662 -2.716 -1.520 229 25 25
6.798 15.314 -2.283 229 25 25
-25.655 -14.002 0.622 229 25 25
17.073 -17.754 -0.554 229 25 25
-9.222 -4.275 -0.167 229 25 25
-9.493 10.379 0.282 229 25 25
12.627 -1.928 -1.603 229 25 25
4.332 -2.481 -1.593 229 25 25
-2.174 6.496 -1.945 229 25 25
-6.223 -12.559 -0.169 229 25 25
-8.256 11.218 -0.805 229 25 25
-33.132 -32.047 -0.874 229 25 25
6.488 -3.065 -1.512 229 25 25
-11.047 -18.260 0.788 229 25 25
7.278 -1.408 -1.582 229 25 25
5.173 -0.621 -1.645 229 25 25
-0.928 -6.993 0.037 229 25 25
-4.605 4.635 -2.041 229 25 25
13.716 -0.262 -1.554 229 25 25
2.057 5.511 -1.935 229 25 25
-1.286 5.939 -1.983 229 25 25
-1.238 -4.897 -1.512 229 25 25
11.678 -33.022 -1.090 229 25 25
-6.840 2.110 -1.988 229 25 25
-9.607 1.929 -2.069 229 25 25
37.401 13.212 0.807 229 25 25
-16.074 3.751 -2.369 229 25 25
-10.356 -11.686 0.347 229 25 25
-6.751 -8.757 -1.688 229 25 25
-3.219 13.351 -2.449 229 25 25
12.534 1.154 -1.588 229 25 25
-8.781 -4.056 -1.122 229 25 25
13.259 15.561 0.253 229 25 25
4.796 -3.083 -1.537 229 25 25
1.478 5.524 -1.938 229 25 25
8.229 -0.162 -1.641 229 25 25
-21.924 8.829 -2.749 229 25 25
4.028 -1.615 -1.643 229 25 25
0.004 -6.182 -1.435 229 25 25
-2.144 9.428 -2.231 229 25 25
-8.300 17.720 -0.252 229 25 25
1.921 -5.909 -1.440 229 25 25
-2.441 4.534 -2.016 229 25 25
-8.170 -8.678 -1.834 229 25 25
-7.934 17.987 -0.951 229 25 25
7.885 -12.231 -1.276 229 25 25
-5.376 5.764 -2.029 229 25 25
4.144 3.994 -1.886 229 25 25
16.617 6.852 -1.808 229 25 25
11.991 -23.474 -0.594 51 204 51
-8.536 -35.069 -2.195 229 25 25
-4.319 -22.092 -1.386 229 25 25
-1.342 4.504 -1.997 229 25 25
-4.797 -13.362 -1.554 229 25 25
1.335 -6.483 -1.409 229 25 25
11.006 9.735 -1.909 229 25 25
35.457 -31.135 0.381 51 204 51
-8.888 13.075 0.307 229 25 25
8.089 18.368 0.491 229 25 25
7.225 -2.199 -1.542 229 25 25
5.068 -3.593 -1.526 229 25 25
4.137 -2.126 -1.610 229 25 25
4.521 -0.915 -1.666 229 25 25
1.656 6.553 -1.888 229 25 25
-4.205 -3.118 -1.672 229 25 25
12.826 13.957 -0.079 229 25 25
2.985 -2.878 -1.573 229 25 25
5.641 -2.254 -1.556 229 25 25
5.110 -5.259 -1.468 229 25 25
-1.398 4.719 -1.982 229 25 25
-5.452 -1.359 -1.827 229 25 25
25.076 19.781 -2.010 229 25 25
2.604 5.676 -1.928 229 25 25
6.030 0.832 -1.654 229 25 25
4.651 16.759 -1.648 229 25 25
29.192 -34.502 0.929 51 204 51
-2.843 4.515 -2.034 229 25 25
2.036 -3.317 -1.591 229 25 25
-4.760 -8.586 -1.566 229 25 25
11.701 -6.703 -1.017 229 25 25
-9.099 -7.781 -1.953 229 25 25
-0.737 -3.954 -1.539 229 25 25
-15.619 -6.713 0.789 229 25 25
2.733 6.417 -1.882 229 25 25
-3.010 -3.820 -1.577 229 25 25
7.206 11.868 -0.851 229 25 25
27.274 8.537 -1.574 229 25 25
-8.362 10.799 0.038 229 25 25
-16.094 3.808 -2.374 229 25 25
24.419 0.834 -1.025 51 204 51
-12.259 7.879 -1.631 229 25 25
8.191 0.225 -1.637 229 25 25
-2.966 -3.276 -1.612 229 25 25
12.838 12.521 0.465 229 25 25
-2.977 4.004 -2.090 229 25 25
7.387 -14.546 -1.252 229 25 25
-9.192 0.812 -2.019 229 25 25
6.449 12.088 -1.352 229 25 25
0.276 6.234 -1.921 229 25 25
-29.148 8.699 -1.402 229 25 25
-4.801 -2.654 -1.713 229 25 25
2.858 -6.870 -1.420 229 25 25
2.700 -4.832 -1.468 229 25 25
-0.953 -6.990 0.430 229 25 25
14.244 -0.002 -1.550 229 25 25
9.672 -18.321 -1.178 229 25 25
-0.079 -4.340 -1.478 229 25 25
-30.404 6.778 0.056 229 25 25
-12.059 8.159 -2.218 229 25 25
1.210 5.274 -1.927 229 25 25
-6.097 0.880 -1.937 229 25 25
39.940 1.928 -1.339 229 25 25
4.231 24.528 -2.886 229 25 25
7.436 -1.766 -1.566 229 25 25
7.636 7.156 -1.764 229 25 25
0.692 -5.750 -1.395 229 25 25
3.758 -10.358 -1.311 229 25 25
8.992 -6.448 -1.187 229 25 25
5.800 -26.258 -0.438 229 25 25
-7.832 -12.470 0.517 229 25 25
-1.061 -7.076 0.467 229 25 25
-0.949 -6.990 0.037 229 25 25
-8.787 10.551 0.281 229 25 25
4.233 -3.778 -1.521 229 25 25
11.209 -14.759 -1.247 229 25 25
-1.019 -3.901 -1.550 229 25 25
9.511 6.221 -1.817 229 25 25
-9.326 11.643 -0.692 229 25 25
-9.451 10.270 -1.553 229 25 25
-9.396 -5.268 -0.055 229 25 25
-8.118 12.276 -0.586 229 25 25
5.620 -5.372 -1.431 229 25 25
4.505 3.286 -1.819 229 25 25
26.362 1.483 -1.432 229 25 25
2.226 -3.253 -1.570 229 25 25
11.338 -8.959 -1.013 229 25 25
4.253 1.834 -1.721 229 25 25
2.923 4.252 -1.951 229 25 25
-0.984 -4.603 -1.529 229 25 25
3.221 3.326 -1.847 229 25 25
14.355 10.925 0.692 229 25 25
-1.314 4.320 -2.011 229 25 25
-15.557 0.725 -2.122 229 25 25
5.106 17.204 0.590 229 25 25
-6.181 -11.576 0.589 229 25 25
-3.816 5.519 -2.037 229 25 25
1.747 6.988 -1.882 229 25 25
4.482 4.741 -1.863 229 25 25
-9.489 -3.550 -1.715 229 25 25
30.624 -18.968 -0.531 229 25 25
-6.040 2.260 -1.987 229 25 25
-4.259 -2.103 -1.720 229 25 25
-3.693 -1.994 -1.699 229 25 25
-5.288 3.930 -2.107 229 25 25
3.721 -8.322 -1.361 229 25 25
-4.327 -3.157 -1.661 229 25 25
-4.932 -3.624 -1.649 229 25 25
-8.108 13.364 -1.278 229 25 25
11.814 -23.512 -0.437 51 204 51
4.453 -11.647 -1.281 229 25 25
-0.284 5.953 -1.951 229 25 25
6.567 11.841 -1.245 229 25 25
-15.795 5.726 -2.294 229 25 25
-7.019 5.438 -2.108 229 25 25
26.100 18.244 -0.637 229 25 25
12.020 -5.159 -1.455 229 25 25
5.648 5.184 -1.834 229 25 25
4.964 -4.015 -1.500 229 25 25
3.469 4.640 -1.902 229 25 25
-8.654 -9.504 -1.862 229 25 25
-7.744 17.854 -1.178 229 25 25
-35.318 5.563 1.294 229 25 25
-22.636 -19.948 -2.303 229 25 25
4.407 3.038 -1.798 229 25 25
6.516 -0.515 -1.648 229 25 25
-0.056 -5.585 -1.447 229 25 25
3.626 1.697 -1.746 229 25 25
-5.704 5.488 -2.036 229 25 25
5.922 5.921 -1.855 229 25 25
-7.979 -4.370 0.516 229 25 25
-6.676 -11.696 0.749 229 25 25
-2.531 6.004 -1.988 229 25 25
-3.041 -3.955 -1.568 229 25 25
8.614 17.792 -1.283 229 25 25
0.326 13.408 -2.393 229 25 25
0.936 -4.502 0.104 229 25 25
12.143 -9.525 -0.726 229 25 25
-11.255 10.370 -0.536 229 25 25
-13.418 38.551 -0.146 229 25 25
2.817 -3.170 -1.575 229 25 25
8.590 -2.338 -1.506 229 25 25
6.854 -3.652 -0.772 229 25 25
-0.680 -16.745 -1.277 229 25 25
-29.970 5.839 0.197 229 25 25
9.160 13.139 -2.102 229 25 25
2.690 3.602 -1.879 229 25 25
5.875 0.384 -1.634 229 25 25
-1.930 -5.003 -1.559 229 25 25
-9.675 9.974 -1.294 229 25 25
-2.378 5.838 -1.991 229 25 25
-10.426 -4.567 -0.220 229 25 25
5.113 3.187 -1.779 229 25 25
-10.454 8.902 -1.029 229 25 25
6.093 11.680 -2.003 229 25 25
15.136 5.495 -1.792 229 25 25
11.397 -23.474 -0.297 51 204 51
-8.662 13.694 -1.144 229 25 25
13.220 5.189 -1.828 229 25 25
13.052 -17.243 -0.846 229 25 25
5.106 9.660 -2.031 229 25 25
0.174 5.471 -1.944 229 25 25
3.014 3.885 -1.918 229 25 25
6.640 -8.420 -1.207 229 25 25
-1.618 -5.558 -1.515 229 25 25
-3.372 -2.566 -1.662 229 25 25
-15.093 -3.330 -1.830 229 25 25
-7.208 3.962 -2.178 229 25 25
5.480 -4.896 -1.474 229 25 25
17.353 -15.254 -1.075 51 204 51
4.025 -2.477 -1.582 229 25 25
8.883 20.437 -2.438 229 25 25
-1.408 -5.474 -1.516 229 25 25
2.648 -6.703 -1.428 229 25 25
-0.784 -6.981 -0.175 229 25 25
22.507 -20.550 -0.942 229 25 25
-1.992 4.973 -1.991 229 25 25
-25.698 -14.598 -0.458 229 25 25
-1.036 -5.341 -1.517 229 25 25
27.083 22.878 -0.943 229 25 25
-13.714 6.682 -2.174 229 25 25
10.960 -23.620 -0.428 51 204 51
9.118 18.435 0.394 229 25 25
4.467 -2.233 -1.597 229 25 25
12.137 24.851 -2.365 229 25 25
11.978 -23.337 0.332 51 204 51
-29.645 2.456 -2.434 229 25 25
11.183 -2.570 -1.549 229 25 25
0.291 -14.673 -1.272 229 25 25
-9.708 13.388 -0.083 229 25 25
-13.794 39.051 -0.692 229 25 25
10.650 -4.389 -1.465 229 25 25
-6.019 -11.900 -1.629 229 25 25
-12.124 -4.988 -0.214 229 25 25
4.764 -1.869 -1.594 229 25 25
-12.448 6.907 0.599 229 25 25
-3.065 -3.194 -1.619 229 25 25
2.121 6.013 -1.902 229 25 25
0.432 9.756 -2.181 229 25 25
13.158 -19.753 -0.376 229 25 25
-1.915 -5.574 -1.489 229 25 25
34.337 -24.330 0.868 51 204 51
-2.921 -2.773 -1.643 229 25 25
4.395 -0.954 -1.675 229 25 25
-17.492 7.702 -0.275 229 25 25
0.475 -8.433 -1.380 229 25 25
2.348 -5.753 -1.441 229 25 25
2.158 4.110 -1.943 229 25 25
6.647 -3.611 -1.400 229 25 25
11.832 -33.017 -0.476 229 25 25
-25.462 6.405 -0.723 229 25 25
-1.216 -3.915 -1.546 229 25 25
2.685 4.243 -1.961 229 25 25
-1.289 5.453 -1.977 229 25 25
-9.814 -22.018 -2.548 229 25 25
16.706 2.987 -1.578 229 25 25
-3.469 16.109 -2.688 229 25 25
6.242 17.793 -1.563 229 25 25
-0.348 -4.294 -1.516 229 25 25
-5.362 -0.150 -1.749 229 25 25
-1.932 8.625 -2.125 229 25 25
6.482 -8.453 -1.268 229 25 25
4.373 3.130 -1.807 229 25 25
7.579 11.419 -0.432 229 25 25
-6.159 14.575 -2.714 229 25 25
21.720 4.541 -1.586 229 25 25
-12.475 6.905 0.445 229 25 25
31.652 -19.401 -0.068 229 25 25
5.720 -0.311 -1.647 229 25 25
2.657 -3.146 -1.558 229 25 25
-14.898 7.070 -1.952 229 25 25
-8.951 -1.324 -1.880 229 25 25
-13.213 8.172 0.646 229 25 25
-15.314 36.164 1.065 229 25 25
5.603 -4.378 -1.486 229 25 25
-8.290 6.101 -2.185 229 25 25
1.572 4.185 -1.981 229 25 25
-15.275 -0.074 -1.914 229 25 25
10.971 -23.841 -0.433 51 204 51
0.405 4.419 -1.957 229 25 25
9.816 22.776 -2.416 229 25 25
1.360 -10.708 -1.323 229 25 25
-8.728 -4.820 -0.650 229 25 25
0.333 5.006 -1.951 229 25 25
0.182 -9.695 -1.358 229 25 25
-8.695 11.370 -1.768 229 25 25
5.995 3.894 -1.853 229 25 25
2.878 -6.860 -1.420 229 25 25
2.192 4.397 -1.918 229 25 25
13.658 17.162 -2.115 229 25 25
4.026 6.667 -1.355 229 25 25
-3.888 -2.157 -1.713 229 25 25
-15.442 -3.957 -1.698 229 25 25
4.779 -0.726 -1.650 229 25 25
-10.334 8.186 -1.763 229 25 25
10.205 -1.263 -1.602 229 25 25
8.272 -5.381 -1.413 229 25 25
-8.219 12.199 -0.234 229 25 25
-23.825 -20.802 -2.243 229 25 25
-1.443 -21.920 0.344 229 25 25
-0.877 10.416 -1.847 229 25 25
3.532 6.006 -1.879 229 25 25
1.130 5.619 -1.941 229 25 25
4.404 -4.016 -1.504 229 25 25
4.086 6.289 -1.876 229 25 25
8.226 -0.770 -1.644 229 25 25
15.631 1.605 -1.548 229 25 25
6.891 15.323 -2.290 229 25 25
5.438 2.139 -1.712 229 25 25
5.719 15.641 -0.172 229 25 25
6.177 -25.857 -0.921 229 25 25
-10.082 -4.596 -1.454 229 25 25
6.017 -4.283 -1.487 229 25 25
0.429 5.456 -1.945 229 25 25
3.596 -8.352 -1.358 229 25 25
-13.617 10.158 -0.515 229 25 25
-17.528 -0.124 -1.986 229 25 25
-8.695 10.756 -0.631 229 25 25
0.668 10.844 -2.249 229 25 25
14.740 32.153 -2.656 229 25 25
4.675 -1.502 -1.618 229 25 25
8.230 -0.136 -1.643 229 25 25
9.501 6.953 -1.771 229 25 25
-9.912 7.896 -1.092 229 25 25
3.588 -5.359 -1.440 229 25 25
-8.831 13.989 0.021 229 25 25
-6.015 4.320 -2.076 229 25 25
-3.110 11.125 0.550 229 25 25
-35.087 1.306 -2.476 229 25 25
-2.277 9.944 -2.276 229 25 25
34.310 -12.623 -0.551 229 25 25
-15.327 7.300 -0.228 229 25 25
-11.528 7.541 -0.155 229 25 25
27.476 13.260 0.295 229 25 25
12.800 5.596 -1.860 229 25 25
7.485 2.008 -1.687 229 25 25
-11.869 7.678 -1.322 229 25 25
-12.554 10.492 0.504 229 25 25
0.811 -5.092 0.182 229 25 25
0.263 -3.839 -1.538 229 25 25
15.146 6.327 -1.832 229 25 25
-9.705 -7.769 -2.035 229 25 25
-15.887 -11.969 -2.645 229 25 25
-5.560 4.080 -2.074 229 25 25
-8.602 12.871 -1.925 229 25 25
-13.934 2.456 -2.157 229 25 25
-9.241 9.835 -1.170 229 25 25
1.291 -11.966 -1.283 229 25 25
-1.568 -3.716 -1.563 229 25 25
3.086 3.069 -1.813 229 25 25
-10.262 10.411 -1.972 229 25 25
-7.726 17.571 -1.254 229 25 25
4.251 -3.009 -1.562 229 25 25
-6.724 0.701 -1.943 229 25 25
-13.779 -2.257 -1.896 229 25 25
-11.396 10.308 0.652 229 25 25
0.156 5.939 -1.948 229 25 25
-0.380 -4.381 -1.503 229 25 25
7.000 11.665 -1.762 229 25 25
6.506 -0.157 -1.643 229 25 25
2.203 3.668 -1.940 229 25 25
0.569 5.262 -1.939 229 25 25
-10.613 -26.781 -2.365 229 25 25
6.834 -3.693 -1.160 229 25 25
7.136 -3.193 -1.366 229 25 25
34.366 -14.886 0.161 229 25 25
12.462 -2.187 -1.642 229 25 25
-9.045 9.240 -0.739 229 25 25
14.096 3.014 -1.653 229 25 25
0.020 -9.188 -1.368 229 25 25
-10.222 7.786 -1.714 229 25 25
-12.617 6.767 0.104 229 25 25
-34.751 8.583 -1.902 229 25 25
-1.787 10.729 -0.188 229 25 25
16.971 -18.623 -0.734 229 25 25
-22.232 -18.637 0.986 229 25 25
-7.696 14.828 -1.182 229 25 25
6.997 -25.656 0.529 229 25 25
-9.789 8.878 -1.062 229 25 25
12.124 -5.048 -1.462 229 25 25
7.061 17.832 -2.077 229 25 25
-11.885 11.583 0.591 229 25 25
-9.729 9.921 0.453 229 25 25
2.846 -5.099 -1.460 229 25 25
-32.157 6.632 -2.507 229 25 25
-2.215 4.196 -2.098 229 25 25
7.706 18.335 0.246 229 25 25
-12.769 5.409 -2.242 229 25 25
-5.318 -11.239 0.183 229 25 25
-15.233 6.671 -1.085 229 25 25
0.332 15.629 -2.548 229 25 25
27.034 22.930 -1.175 229 25 25
-36.257 -31.087 -0.334 229 25 25
-1.580 -4.849 -1.532 229 25 25
0.702 -7.887 -1.353 229 25 25
0.930 -4.355 -0.056 229 25 25
-8.816 16.528 0.580 229 25 25
-3.232 5.078 -2.049 229 25 25
-9.779 -4.293 -0.785 229 25 25
13.793 11.054 -1.893 229 25 25
21.557 28.404 -2.443 229 25 25
5.570 -6.767 -1.387 229 25 25
-13.114 39.222 -0.403 229 25 25
4.834 -5.455 -1.456 229 25 25
-13.362 6.566 -1.947 229 25 25
5.740 -2.051 -1.564 229 25 25
4.905 1.017 -1.694 229 25 25
7.582 -0.728 -1.635 229 25 25
11.924 2.668 -1.685 229 25 25
-8.009 6.840 -2.156 229 25 25
-0.804 -6.962 -0.432 229 25 25
-26.232 6.766 0.192 229 25 25
-25.663 3.842 -2.415 229 25 25
11.054 -7.941 -1.110 229 25 25
13.997 15.894 -0.493 229 25 25
4.752 1.707 -1.718 229 25 25
2.806 9.792 -2.106 229 25 25
4.613 -4.127 -1.514 229 25 25
6.896 1.467 -1.655 229 25 25
13.092 -17.314 -0.725 229 25 25
7.780 -5.205 -1.423 229 25 25
14.309 -0.744 -1.558 229 25 25
-12.167 8.284 0.108 229 25 25
-10.448 -11.214 0.653 229 25 25
-8.111 12.503 -0.238 229 25 25
1.664 4.312 -1.997 229 25 25
3.001 -3.985 -1.523 229 25 25
33.596 13.566 -1.624 229 25 25
26.079 -0.706 -1.410 229 25 25
30.893 -8.820 0.947 229 25 25
4.638 2.432 -1.751 229 25 25
-12.997 7.811 -0.717 229 25 25
3.002 -5.270 -1.470 229 25 25
6.920 -3.552 -0.773 229 25 25
-4.495 8.121 -2.129 229 25 25
27.400 -35.574 0.174 51 204 51
2.043 -8.412 -1.357 229 25 25
-10.587 -9.783 0.703 229 25 25
4.658 -2.123 -1.592 229 25 25
-12.605 10.718 -0.093 229 25 25
5.832 -25.722 -1.063 229 25 25
-7.624 -13.240 -0.489 229 25 25
3.736 -2.844 -1.564 229 25 25
21.198 -5.695 -0.490 51 204 51
-5.571 8.024 -2.163 229 25 25
-3.451 -3.754 -1.612 229 25 25
1.237 9.013 -2.102 229 25 25
7.355 7.323 -1.827 229 25 25
-5.242 -8.506 -1.597 229 25 25
-2.975 4.788 -2.027 229 25 25
-10.739 5.205 -2.206 229 25 25
18.398 2.618 -1.513 229 25 25
6.333 -5.338 -1.442 229 25 25
-6.650 -5.040 -1.708 229 25 25
-8.142 17.620 -1.175 229 25 25
0.010 -5.400 -1.431 229 25 25
-8.045 15.270 -0.819 229 25 25
-6.629 -6.153 -1.696 229 25 25
-20.050 -26.563 -1.581 229 25 25
-0.449 7.860 -1.970 229 25 25
5.894 1.828 -1.689 229 25 25
-9.779 4.305 -2.183 229 25 25
12.443 -29.046 1.123 229 25 25
5.559 -17.482 -0.783 229 25 25
15.130 9.719 -1.926 229 25 25
1.061 -5.152 -1.385 229 25 25
24.258 6.634 -1.660 229 25 25
-16.860 -14.206 -2.956 229 25 25
-8.395 10.914 -0.700 229 25 25
-2.167 5.269 -2.001 229 25 25
16.156 -0.901 -1.486 229 25 25
-12.233 6.428 -2.234 229 25 25
-6.483 4.094 -2.097 229 25 25
-3.147 14.542 -2.550 229 25 25
-1.666 10.746 -0.067 229 25 25
8.230 -0.446 -1.642 229 25 25
-5.400 3.639 -2.078 229 25 25
6.504 11.916 -1.338 229 25 25
23.018 -1.403 -1.382 229 25 25
-9.336 10.359 -1.473 229 25 25
-23.434 -15.628 -0.080 229 25 25
-13.650 3.491 -2.281 229 25 25
-2.392 -5.297 -1.530 229 25 25
-36.446 9.917 -2.472 229 25 25
-2.908 -16.664 -0.979 229 25 25
-9.977 -12.325 0.541 229 25 25
-7.374 4.002 -2.153 229 25 25
6.840 -3.739 -0.828 229 25 25
3.431 -3.034 -1.569 229 25 25
-2.808 -13.987 0.761 229 25 25
-1.260 10.689 -1.624 229 25 25
-0.331 -5.283 -1.466 229 25 25
6.990 -3.459 -0.171 229 25 25
-21.393 -4.209 -1.057 229 25 25
-13.042 39.988 0.817 229 25 25
7.559 -10.669 -1.289 229 25 25
-7.531 13.429 -1.257 229 25 25
5.569 -4.406 -1.484 229 25 25
2.351 -7.080 -1.423 229 25 25
6.337 11.919 -0.426 229 25 25
-7.259 13.777 -2.669 229 25 25
-3.353 -13.727 -1.473 229 25 25
-15.507 -4.507 -1.628 229 25 25
-13.429 38.862 0.801 229 25 25
13.175 13.337 -0.539 229 25 25
-12.527 -28.263 -2.372 229 25 25
13.679 -9.047 -0.789 229 25 25
0.861 -4.724 0.099 229 25 25
4.316 2.065 -1.731 229 25 25
5.182 1.609 -1.699 229 25 25
-9.768 -6.015 -1.373 229 25 25
-8.888 0.426 -2.013 229 25 25
-3.162 -15.467 0.639 229 25 25
-4.954 5.738 -2.014 229 25 25
-6.138 -12.641 -1.381 229 25 25
-2.162 12.090 -0.160 229 25 25
-0.147 -4.669 -1.506 229 25 25
-9.237 -15.275 0.475 229 25 25
27.020 22.562 1.168 229 25 25
7.601 -1.397 -1.588 229 25 25
5.163 0.495 -1.654 229 25 25
-3.569 -5.701 -0.732 229 25 25
-6.775 7.835 -2.206 229 25 25
-4.652 -5.666 -1.603 229 25 25
-25.148 -15.197 -0.454 229 25 25
-1.027 -3.589 -1.597 229 25 25
1.977 -3.410 -1.569 229 25 25
1.524 7.052 -1.884 229 25 25
-12.093 1.191 -2.060 229 25 25
-3.132 4.190 -2.036 229 25 25
28.123 38.619 -2.508 229 25 25
-10.134 5.910 -2.168 229 25 25
-8.625 12.399 0.655 229 25 25
19.468 9.181 -1.792 229 25 25
2.984 -4.683 -1.475 229 25 25
6.903 5.279 -1.846 229 25 25
-7.010 -4.664 -1.727 229 25 25
7.063 -26.867 -1.134 229 25 25
-10.285 -34.937 0.669 229 25 25
-4.491 -8.219 -1.556 229 25 25
11.216 7.135 -1.863 229 25 25
0.430 -15.248 -1.238 229 25 25
-12.056 10.647 0.675 229 25 25
-12.220 6.809 -0.565 229 25 25
-1.513 4.694 -1.984 229 25 25
-5.281 -5.282 -1.640 229 25 25
36.220 -29.395 1.808 51 204 51
-2.222 -6.102 -1.459 229 25 25
-6.763 0.044 -1.943 229 25 25
-3.606 -10.877 -1.499 229 25 25
-7.592 -5.557 -1.774 229 25 25
-1.452 5.281 -1.990 229 25 25
0.167 -6.768 -1.390 229 25 25
14.865 -17.131 -0.239 229 25 25
4.996 6.372 -1.861 229 25 25
-5.973 1.166 -1.971 229 25 25
26.332 -35.081 -0.370 229 25 25
-3.431 -2.496 -1.666 229 25 25
5.622 6.957 -1.835 229 25 25
-3.218 -5.792 -1.498 229 25 25
-12.091 7.644 -2.027 229 25 25
1.254 -12.813 -1.250 229 25 25
-8.966 11.133 -1.594 229 25 25
-10.099 7.981 -0.956 229 25 25
-0.069 -4.261 -1.494 229 25 25
-13.702 1.580 -2.102 229 25 25
15.682 21.156 -2.085 229 25 25
-1.301 -3.556 -1.589 229 25 25
-4.383 4.037 -2.062 229 25 25
5.188 -5.747 -1.422 229 25 25
-18.531 -4.342 -0.307 229 25 25
12.452 8.287 -1.841 229 25 25
-1.408 -22.104 -0.714 229 25 25
-9.980 11.371 0.650 229 25 25
2.394 4.112 -1.947 229 25 25
-0.641 -3.953 -1.530 229 25 25
-1.047 7.358 -2.000 229 25 25
8.342 -3.468 -1.457 229 25 25
-14.616 6.864 -0.490 229 25 25
0.475 -8.005 -1.373 229 25 25
-7.381 -1.367 -1.836 229 25 25
-1.132 10.324 0.400 229 25 25
37.751 -6.497 -0.790 229 25 25
7.167 -6.276 -1.117 229 25 25
-3.702 -5.518 -0.770 229 25 25
6.675 18.386 -2.471 229 25 25
3.810 -6.406 -1.426 229 25 25
-6.433 4.601 -2.095 229 25 25
-11.725 4.375 -2.211 229 25 25
-10.247 -4.100 -1.100 229 25 25
-1.589 5.253 -1.992 229 25 25
0.800 -5.054 0.025 229 25 25
13.473 15.849 -0.250 229 25 25
-9.906 -11.502 -0.107 229 25 25
-4.971 4.316 -2.052 229 25 25
-8.436 16.199 -2.421 229 25 25
27.731 -34.174 1.452 51 204 51
7.274 1.967 -1.700 229 25 25
3.142 15.318 -2.395 229 25 25
6.234 0.254 -1.630 229 25 25
-1.988 -3.354 -1.614 229 25 25
-18.203 -4.332 -1.444 229 25 25
-12.350 4.259 -2.220 229 25 25
22.336 1.215 -1.448 229 25 25
-13.290 -27.292 -2.505 229 25 25
-9.737 -11.642 -0.028 229 25 25
0.467 8.877 -2.052 229 25 25
-8.586 14.262 -2.267 229 25 25
27.111 -16.720 -0.795 229 25 25
9.354 7.289 -1.786 229 25 25
-6.818 5.068 -2.096 229 25 25
5.539 -2.435 -1.547 229 25 25
11.868 -4.431 -1.492 229 25 25
7.144 9.985 -1.981 229 25 25
6.130 -4.153 -1.493 229 25 25
-5.461 4.470 -2.057 229 25 25
1.343 4.523 -1.928 229 25 25
-9.040 -1.473 -1.904 229 25 25
17.864 -2.002 -1.447 229 25 25
2.016 -3.394 -1.572 229 25 25
8.165 -3.787 -1.450 229 25 25
-10.682 7.762 -2.131 229 25 25
-8.235 15.228 -1.540 229 25 25
-12.988 8.220 -0.266 229 25 25
5.558 4.781 -1.825 229 25 25
-12.174 -0.062 -1.892 229 25 25
3.132 -7.011 -1.400 229 25 25
-9.631 2.568 -2.106 229 25 25
35.328 -33.659 0.160 51 204 51
11.806 -4.513 -1.488 229 25 25
1.327 -7.038 -1.417 229 25 25
-9.493 8.341 -0.419 229 25 25
12.740 11.575 -0.053 229 25 25
10.327 1.630 -1.645 229 25 25
-5.923 1.302 -1.965 229 25 25
5.763 1.592 -1.675 229 25 25
-2.715 7.108 -0.869 229 25 25
-2.679 7.040 -0.493 229 25 25
-0.096 -16.288 -1.235 229 25 25
-5.680 -3.134 -1.695 229 25 25
2.901 -2.691 -1.629 229 25 25
11.336 6.667 -1.840 229 25 25
8.380 3.189 -1.736 229 25 25
0.873 -3.711 -1.558 229 25 25
-1.159 4.352 -2.009 229 25 25
15.518 -4.052 -1.568 229 25 25
-0.973 4.789 -1.975 229 25 25
0.739 4.336 -1.989 229 25 25
-12.263 6.983 -1.898 229 25 25
7.924 11.212 0.653 229 25 25
36.435 12.574 -0.609 229 25 25
2.792 9.296 -2.084 229 25 25
-13.675 -5.145 -0.724 229 25 25
2.931 -7.080 -1.396 229 25 25
2.743 12.418 -2.266 229 25 25
8.415 -1.979 -1.536 229 25 25
-9.107 10.559 -0.551 229 25 25
-12.505 2.860 -2.178 229 25 25
2.228 -8.078 -1.370 229 25 25
-13.636 0.443 -2.081 229 25 25
2.850 -2.772 -1.592 229 25 25
0.161 4.391 -1.981 229 25 25
-2.739 -5.805 -1.510 229 25 25
11.608 10.722 -1.959 229 25 25
0.853 -4.826 0.184 229 25 25
17.411 7.118 -1.777 229 25 25
-10.718 9.819 0.283 229 25 25
-7.029 0.583 -1.953 229 25 25
12.439 -14.065 -1.270 229 25 25
-1.970 -3.639 -1.579 229 25 25
0.551 -4.109 -1.493 229 25 25
-6.479 8.030 -2.198 229 25 25
1.339 6.234 -1.901 229 25 25
4.051 -5.482 -1.462 229 25 25
-3.804 -13.235 -1.500 229 25 25
11.168 -10.430 -1.081 229 25 25
0.065 -11.111 -1.318 229 25 25
2.402 5.936 -1.911 229 25 25
-2.715 10.116 -2.246 229 25 25
5.318 2.111 -1.735 229 25 25
7.133 -3.214 -1.096 229 25 25
2.391 3.577 -1.905 229 25 25
4.722 -2.275 -1.584 229 25 25
27.302 9.310 0.995 229 25 25
1.392 5.749 -1.944 229 25 25
4.178 2.786 -1.772 229 25 25
4.057 -2.437 -1.585 229 25 25
-1.546 -6.892 -1.400 229 25 25
-0.378 -21.168 -1.190 229 25 25
-3.029 -13.424 -1.428 229 25 25
7.334 7.347 -1.827 229 25 25
4.733 -5.543 -1.456 229 25 25
-12.908 6.222 -0.503 229 25 25
3.710 9.092 -2.027 229 25 25
3.491 4.453 -1.963 229 25 25
9.545 14.846 -2.213 229 25 25
13.255 -27.533 1.092 229 25 25
-1.396 10.204 -1.651 229 25 25
0.102 -4.180 -1.460 229 25 25
5.217 -2.403 -1.557 229 25 25
-2.863 -7.367 -1.450 229 25 25
4.263 -1.839 -1.612 229 25 25
-19.899 -4.034 0.027 229 25 25
-7.054 0.197 -1.953 229 25 25
13.092 -19.269 0.883 229 25 25
-11.968 8.246 -1.185 229 25 25
17.822 -17.818 -0.423 51 204 51
-13.517 -2.643 -1.867 229 25 25
2.768 -3.066 -1.564 229 25 25
-9.789 8.753 -0.977 229 25 25
-3.571 4.153 -2.011 229 25 25
6.044 -3.777 -1.495 229 25 25
2.641 8.534 -1.991 229 25 25
6.045 -0.790 -1.638 229 25 25
35.331 -31.214 0.161 51 204 51
1.884 -7.431 -1.395 229 25 25
13.127 0.057 -1.571 229 25 25
-25.394 6.682 -0.722 229 25 25
17.167 -12.400 -0.590 51 204 51
9.398 1.738 -1.651 229 25 25
-21.583 -20.613 -2.102 229 25 25
3.570 -8.359 -1.357 229 25 25
5.365 -0.117 -1.656 229 25 25
15.508 -1.046 -1.521 229 25 25
-13.651 -5.277 -0.800 229 25 25
-16.003 -4.585 -0.045 229 25 25
-31.060 6.876 -0.718 229 25 25
4.415 10.123 -2.055 229 25 25
-31.885 -1.707 -2.271 229 25 25
3.405 4.905 -1.908 229 25 25
9.803 2.577 -1.687 229 25 25
-16.143 1.506 -2.143 229 25 25
0.952 -4.438 -0.254 229 25 25
-10.582 -11.473 0.835 229 25 25
33.738 13.933 -1.638 229 25 25
6.674 25.456 -2.747 229 25 25
-3.467 4.325 -2.039 229 25 25
-7.628 3.319 -2.131 229 25 25
-3.997 3.169 -2.000 229 25 25
-7.529 0.084 -1.973 229 25 25
-6.466 -0.732 -1.785 229 25 25
4.588 1.544 -1.689 229 25 25
6.070 3.528 -1.816 229 25 25
18.328 -17.871 -0.125 229 25 25
-6.893 -3.842 -1.685 229 25 25
3.738 -2.691 -1.583 229 25 25
4.581 -6.721 -1.403 229 25 25
-8.565 14.593 -2.308 229 25 25
17.869 4.463 -1.618 229 25 25
-0.512 -8.101 -1.320 229 25 25
-3.965 -4.171 -1.576 229 25 25
19.385 10.720 -1.446 51 204 51
-7.436 -1.599 -1.779 229 25 25
-3.798 -2.276 -1.703 229 25 25
-22.275 -1.984 -1.922 229 25 25
-12.512 -3.927 -1.669 229 25 25
-7.119 1.400 -1.965 229 25 25
-0.443 11.055 -2.290 229 25 25
2.757 3.154 -1.851 229 25 25
-12.066 7.821 -0.581 229 25 25
-12.056 6.592 -1.784 229 25 25
31.055 -6.052 -0.233 229 25 25
-23.075 -22.343 -2.468 229 25 25
-7.975 13.871 -1.022 229 25 25
2.893 8.053 -1.975 229 25 25
-38.025 -30.916 -2.709 229 25 25
1.778 -15.675 -1.191 229 25 25
5.184 3.935 -1.852 229 25 25
-10.429 -1.383 -1.887 229 25 25
15.822 2.207 -1.578 229 25 25
7.054 -12.638 -1.265 229 25 25
1.291 9.511 -2.143 229 25 25
2.232 5.220 -1.925 229 25 25
-0.896 -4.257 -1.540 229 25 25
-0.874 -7.025 0.464 229 25 25
-18.056 -19.964 -2.871 229 25 25
7.210 12.849 -0.293 229 25 25
1.072 -5.400 -1.365 229 25 25
-5.424 6.316 -2.061 229 25 25
5.360 -2.426 -1.557 229 25 25
-26.927 11.754 -1.004 229 25 25
-3.843 3.421 -2.024 229 25 25
10.321 -6.089 -1.105 229 25 25
-14.712 7.596 -1.374 229 25 25
6.542 2.221 -1.697 229 25 25
26.856 24.921 -2.078 229 25 25
-6.255 -12.624 -0.767 229 25 25
4.928 17.731 -0.751 229 25 25
-12.582 10.733 -0.206 229 25 25
22.283 7.960 -1.708 229 25 25
-24.637 -15.509 1.132 229 25 25
-13.689 8.599 -0.857 229 25 25
2.309 3.805 -1.922 229 25 25
10.257 -0.670 -1.605 229 25 25
-5.838 -2.892 -1.705 229 25 25
6.280 -25.914 -0.433 229 25 25
14.566 5.022 -1.785 229 25 25
5.922 -8.997 -1.330 229 25 25
-8.408 13.384 -1.690 229 25 25
1.990 4.329 -1.950 229 25 25
14.424 12.695 -1.954 229 25 25
-8.267 -1.456 -1.884 229 25 25
15.507 15.551 -1.980 229 25 25
6.054 -4.624 -1.475 229 25 25
11.840 -23.450 0.042 51 204 51
5.341 3.406 -1.797 229 25 25
-5.279 -1.428 -1.834 229 25 25
2.203 -3.380 -1.557 229 25 25
2.563 -5.893 -1.431 229 25 25
-0.164 -9.180 -1.367 229 25 25
-2.490 6.384 -1.944 229 25 25
-17.845 7.614 0.645 229 25 25
3.930 -7.788 -1.373 229 25 25
-7.879 14.048 -0.951 229 25 25
3.034 8.161 -1.939 229 25 25
-15.776 -11.847 -2.622 229 25 25
11.927 -30.227 -0.199 229 25 25
-2.378 -9.229 -1.427 229 25 25
-7.244 -2.962 -1.742 229 25 25
12.450 2.631 -1.671 229 25 25
38.080 10.556 -1.561 229 25 25
5.697 2.657 -1.730 229 25 25
-9.177 10.094 -0.622 229 25 25
2.197 -9.356 -1.347 229 25 25
1.025 -4.180 -0.819 229 25 25
-14.030 38.937 -0.692 229 25 25
-3.606 -5.613 -0.885 229 25 25
2.452 3.516 -1.898 229 25 25
-0.408 -3.937 -1.507 229 25 25
-3.038 -5.531 -1.557 229 25 25
-8.151 11.075 0.521 229 25 25
-5.182 -17.026 -1.589 229 25 25
-20.545 5.345 -2.338 229 25 25
27.398 -36.038 0.174 51 204 51
3.995 -3.993 -1.511 229 25 25
35.130 -5.939 -0.538 229 25 25
6.940 -3.515 -0.880 229 25 25
37.438 27.253 0.907 229 25 25
0.634 -17.962 -1.179 229 25 25
-8.845 -2.259 -1.817 229 25 25
-10.622 -34.916 -1.540 229 25 25
0.063 -4.203 -1.470 229 25 25
9.122 18.525 0.658 229 25 25
11.512 -8.457 -0.919 229 25 25
-13.022 7.587 -1.064 229 25 25
-14.510 -15.043 -2.789 229 25 25
7.566 8.394 -1.914 229 25 25
-10.282 8.877 -1.433 229 25 25
1.792 -14.831 -1.210 229 25 25
10.998 -23.778 -0.758 51 204 51
-0.249 -5.142 -1.474 229 25 25
-0.898 5.490 -1.966 229 25 25
5.989 1.207 -1.665 229 25 25
11.563 -12.011 -1.297 229 25 25
11.042 -4.524 -1.472 229 25 25
-4.891 2.397 -1.965 229 25 25
7.486 1.983 -1.685 229 25 25
17.343 -17.701 -0.558 229 25 25
3.826 -10.345 -1.312 229 25 25
-34.432 -3.614 -2.083 229 25 25
0.301 -4.628 -1.490 229 25 25
-0.082 5.791 -1.955 229 25 25
8.536 -2.452 -1.502 229 25 25
5.342 -2.816 -1.540 229 25 25
-0.669 -7.063 0.165 229 25 25
-6.356 3.438 -2.100 229 25 25
-0.651 -7.155 0.032 229 25 25
0.433 -4.183 -1.466 229 25 25
-2.960 10.995 -2.355 229 25 25
-31.914 6.547 -0.153 229 25 25
13.168 13.621 -0.078 229 25 25
-9.224 11.340 -1.280 229 25 25
-4.163 -8.202 -1.525 229 25 25
-12.036 8.922 0.282 229 25 25
6.256 0.038 -1.632 229 25 25
-9.662 -17.563 -2.435 229 25 25
17.821 -18.332 -1.210 229 25 25
-3.382 -2.740 -1.659 229 25 25
4.681 2.312 -1.743 229 25 25
4.949 3.295 -1.818 229 25 25
13.019 16.454 0.255 229 25 25
-0.684 -7.132 -0.269 229 25 25
-12.295 6.370 0.104 229 25 25
10.212 8.795 -1.895 229 25 25
-11.596 7.598 -0.226 229 25 25
8.661 17.535 -2.333 229 25 25
-2.753 -2.663 -1.659 229 25 25
2.158 3.778 -1.927 229 25 25
-8.116 3.978 -2.142 229 25 25
-11.170 -12.452 0.272 229 25 25
27.076 -16.758 -0.795 229 25 25
-5.831 -1.231 -1.812 229 25 25
-9.608 -12.051 0.171 229 25 25
8.431 2.121 -1.674 229 25 25
12.187 -0.360 -1.581 229 25 25
3.226 19.531 -2.727 229 25 25
-26.289 -34.029 -2.650 229 25 25
6.755 -8.200 -1.120 229 25 25
5.426 -5.251 -1.456 229 25 25
-3.699 -2.172 -1.695 229 25 25
-0.570 4.497 -1.987 229 25 25
4.796 0.194 -1.652 229 25 25
3.000 3.905 -1.920 229 25 25
-7.725 9.630 -2.292 229 25 25
6.813 -6.721 -0.989 229 25 25
14.834 -1.632 -1.542 229 25 25
3.291 -3.789 -1.534 229 25 25
-19.805 2.781 -2.310 229 25 25
17.105 16.300 -1.992 229 25 25
-1.333 -3.555 -1.594 229 25 25
-2.738 5.420 -2.026 229 25 25
19.815 -18.071 -1.113 229 25 25
-4.710 2.902 -2.006 229 25 25
6.674 15.426 -2.292 229 25 25
10.752 -3.335 -1.512 229 25 25
2.521 -3.263 -1.558 229 25 25
-1.009 -7.070 -0.790 229 25 25
-6.439 6.734 -2.128 229 25 25
5.561 -6.411 -1.401 229 25 25
19.406 2.150 -1.482 229 25 25
20.434 13.726 -1.933 229 25 25
3.900 -1.622 -1.630 229 25 25
-14.675 -14.967 -1.782 229 25 25
0.516 -4.403 -1.458 229 25 25
2.733 3.095 -1.868 229 25 25
-3.553 -5.778 -1.031 229 25 25
-2.372 10.700 0.531 229 25 25
-2.761 4.714 -2.020 229 25 25
30.177 -12.126 -0.824 229 25 25
3.693 9.872 -2.082 229 25 25
-1.268 6.349 -1.918 229 25 25
-1.567 -4.722 -1.539 229 25 25
0.486 -5.894 -1.429 229 25 25
16.658 -5.676 -1.514 229 25 25
20.141 16.077 -2.032 229 25 25
-2.535 -5.195 -1.523 229 25 25
11.360 17.330 0.154 229 25 25
-12.291 8.989 -1.073 229 25 25
1.892 -5.739 -1.461 229 25 25
11.044 11.994 -2.029 229 25 25
4.326 -8.526 -1.344 229 25 25
6.333 -4.247 -1.480 229 25 25
8.676 -2.260 -1.518 229 25 25
4.482 7.010 -1.847 229 25 25
-12.971 8.379 0.106 229 25 25
-5.943 -24.504 -1.581 229 25 25
0.728 4.699 -1.939 229 25 25
-10.615 6.250 -2.175 229 25 25
-1.324 -3.892 -1.552 229 25 25
-13.368 -5.101 0.807 229 25 25
-8.000 -32.260 -2.165 229 25 25
-6.212 -12.563 -1.196 229 25 25
-8.596 13.240 0.388 229 25 25
8.906 21.299 -2.532 229 25 25
24.326 -14.340 -1.033 229 25 25
16.159 -2.129 -1.495 229 25 25
-4.448 -4.380 -1.611 229 25 25
7.368 3.257 -1.766 229 25 25
0.321 -3.812 -1.528 229 25 25
-8.871 10.822 -0.553 229 25 25
10.751 9.101 -1.887 229 25 25
-1.478 -4.870 -1.528 229 25 25
-2.874 -4.311 -1.578 229 25 25
-7.652 -5.360 -1.762 229 25 25
0.906 -3.678 -1.547 229 25 25
2.865 -7.871 -1.371 229 25 25
-0.384 18.059 -2.778 229 25 25
16.134 -3.907 -1.522 229 25 25
-9.743 3.165 -2.169 229 25 25
3.688 -4.015 -1.515 229 25 25
-12.849 5.142 -2.238 229 25 25
4.780 6.453 -1.846 229 25 25
21.437 -6.087 -0.253 51 204 51
-6.308 -13.199 -0.734 229 25 25
7.757 3.146 -1.764 229 25 25
-1.834 -5.356 -1.522 229 25 25
19.368 9.889 -1.156 51 204 51
-12.376 2.572 -2.145 229 25 25
-0.311 11.294 0.076 229 25 25
-10.345 -34.936 -1.110 229 25 25
-0.834 -7.002 -0.010 229 25 25
-9.840 8.988 -0.833 229 25 25
-8.208 12.835 -1.892 229 25 25
-2.219 4.611 -2.007 229 25 25
13.061 7.517 -1.854 229 25 25
19.801 9.320 -1.048 51 204 51
-3.925 3.005 -1.977 229 25 25
-5.613 -6.658 -1.623 229 25 25
-1.896 5.927 -1.970 229 25 25
-14.255 -4.665 -0.751 229 25 25
-3.634 -5.601 0.472 229 25 25
-13.373 -1.511 -1.971 229 25 25
0.423 4.357 -1.976 229 25 25
3.159 -8.966 -1.332 229 25 25
15.776 5.391 -1.765 229 25 25
25.576 -12.248 -1.041 229 25 25
21.129 2.673 -1.512 229 25 25
4.995 1.053 -1.686 229 25 25
7.912 7.484 -1.839 229 25 25
3.414 2.278 -1.801 229 25 25
12.518 0.895 -1.582 229 25 25
-2.823 -2.766 -1.666 229 25 25
22.070 6.311 -1.650 229 25 25
2.413 7.549 -1.907 229 25 25
-0.188 -6.271 -1.394 229 25 25
4.196 -1.266 -1.705 229 25 25
8.095 -3.299 -1.470 229 25 25
4.777 0.412 -1.655 229 25 25
7.231 11.700 -0.841 229 25 25
-6.432 -0.350 -1.766 229 25 25
-9.056 10.079 -1.345 229 25 25
-13.489 13.742 0.432 229 25 25
5.169 5.699 -1.844 229 25 25
6.677 11.477 -0.007 229 25 25
31.642 -20.293 -0.071 229 25 25
-23.604 -16.675 -0.294 229 25 25
2.964 7.937 -1.954 229 25 25
14.224 17.834 -2.065 229 25 25
15.588 -15.431 0.200 229 25 25
-5.209 -5.632 -1.622 229 25 25
31.310 -18.250 -0.285 229 25 25
-2.154 4.206 -2.043 229 25 25
-0.708 -6.973 -0.642 229 25 25
-13.783 -4.552 -1.062 229 25 25
-7.284 -0.993 -1.797 229 25 25
7.771 15.194 -2.251 229 25 25
4.276 3.057 -1.808 229 25 25
-0.916 -4.255 -1.542 229 25 25
6.645 11.896 -1.001 229 25 25
29.982 16.427 -0.283 229 25 25
-3.770 -2.890 -1.648 229 25 25
-2.717 6.562 -0.586 229 25 25
4.364 -3.421 -1.551 229 25 25
10.295 1.162 -1.627 229 25 25
12.541 6.405 -1.815 229 25 25
-2.142 -5.747 -1.502 229 25 25
-17.565 -0.238 -1.990 229 25 25
-0.934 8.086 -2.037 229 25 25
-29.880 -13.644 0.835 229 25 25
8.271 9.019 -1.971 229 25 25
-8.942 11.141 -1.764 229 25 25
6.914 6.907 -1.802 229 25 25
-9.035 9.964 -1.247 229 25 25
7.022 -1.211 -1.650 229 25 25
-5.165 5.931 -2.026 229 25 25
4.827 15.997 -2.202 229 25 25
-4.229 -3.567 -1.647 229 25 25
4.735 -6.093 -1.414 229 25 25
27.302 8.786 0.992 229 25 25
-3.100 8.077 -2.073 229 25 25
-0.782 5.952 -1.962 229 25 25
-36.474 -5.800 0.452 229 25 25
5.664 0.886 -1.664 229 25 25
20.556 11.186 -1.826 229 25 25
7.074 -25.821 -0.438 229 25 25
2.360 -6.549 -1.434 229 25 25
-3.561 -5.814 0.183 229 25 25
6.683 -7.072 -1.185 229 25 25
9.399 2.219 -1.672 229 25 25
-4.713 2.409 -1.969 229 25 25
-2.894 -6.007 -1.506 229 25 25
13.187 -19.331 -0.085 229 25 25
14.857 0.986 -1.546 229 25 25
-8.406 17.389 -0.700 229 25 25
-5.539 -14.067 -0.207 229 25 25
6.438 -5.738 -1.368 229 25 25
-2.636 7.338 -0.658 229 25 25
-13.106 -22.444 -2.765 229 25 25
3.489 -3.347 -1.564 229 25 25
-3.535 -5.762 0.388 229 25 25
-4.243 -3.215 -1.649 229 25 25
-0.539 10.570 -2.275 229 25 25
-17.043 0.938 -2.154 229 25 25
3.054 2.654 -1.824 229 25 25
9.098 -7.621 -1.008 229 25 25
-28.955 11.231 -2.530 229 25 25
13.771 14.225 0.864 229 25 25
9.433 10.648 -2.013 229 25 25
-3.271 -8.215 -1.457 229 25 25
-9.006 12.495 0.567 229 25 25
4.247 -2.825 -1.575 229 25 25
12.762 4.012 -1.770 229 25 25
-3.346 -3.297 -1.617 229 25 25
5.156 -7.091 -1.385 229 25 25
-3.066 -7.100 -1.489 229 25 25
-1.208 -3.540 -1.606 229 25 25
-5.762 2.095 -1.994 229 25 25
-8.910 -4.258 -1.665 229 25 25
-13.960 2.483 -2.162 229 25 25
15.916 -26.252 -0.937 229 25 25
0.714 5.107 -1.945 229 25 25
6.552 4.049 -1.836 229 25 25
-1.956 -4.339 -1.562 229 25 25
-6.556 5.903 -2.097 229 25 25
-3.265 -2.560 -1.663 229 25 25
-2.936 -2.983 -1.627 229 25 25
-19.083 -2.175 -1.984 229 25 25
13.136 15.587 0.396 229 25 25
5.088 3.320 -1.795 229 25 25
-2.423 -5.459 -1.516 229 25 25
-1.933 -6.476 -1.451 229 25 25
-9.289 -9.503 -1.931 229 25 25
12.549 -23.478 -0.778 51 204 51
1.188 5.936 -1.934 229 25 25
-1.171 10.736 -0.707 229 25 25
34.698 -7.030 0.570 229 25 25
14.896 -3.789 -1.589 229 25 25
-19.108 -31.730 -2.432 229 25 25
-7.843 14.505 -0.192 229 25 25
-7.755 0.440 -1.974 229 25 25
8.609 17.858 -1.776 229 25 25
-23.637 -26.260 -2.952 229 25 25
-7.286 -4.149 -1.722 229 25 25
6.838 16.104 -2.312 229 25 25
-8.434 15.755 0.126 229 25 25
5.966 6.654 -1.833 229 25 25
6.028 -0.893 -1.637 229 25 25
-9.568 -6.796 -2.003 229 25 25
5.392 1.714 -1.710 229 25 25
-2.356 8.529 -2.126 229 25 25
7.344 11.595 -1.179 229 25 25
6.549 2.131 -1.691 229 25 25
-2.277 -5.856 -1.473 229 25 25
0.877 5.590 -1.961 229 25 25
-22.184 -4.020 -1.657 229 25 25
-11.938 7.619 -1.325 229 25 25
3.473 4.112 -1.916 229 25 25
3.257 3.246 -1.834 229 25 25
1.793 -3.380 -1.599 229 25 25
-4.600 -3.230 -1.682 229 25 25
-0.724 5.051 -1.973 229 25 25
-19.781 7.949 -2.571 229 25 25
3.057 -3.504 -1.538 229 25 25
-15.051 0.215 -2.152 229 25 25
-23.889 -16.219 0.413 229 25 25
-1.393 -22.080 -0.840 229 25 25
-0.060 -5.466 -1.452 229 25 25
-8.922 -34.113 -2.138 229 25 25
5.937 19.043 0.383 229 25 25
-29.145 0.107 -2.387 229 25 25
-8.685 10.614 0.186 229 25 25
18.077 1.392 -1.468 229 25 25
-2.392 4.084 -2.088 229 25 25
-4.349 3.171 -2.017 229 25 25
6.072 -0.209 -1.639 229 25 25
10.832 0.962 -1.605 229 25 25
4.384 -11.683 -1.283 229 25 25
-8.675 -5.591 -1.065 229 25 25
-26.758 3.754 -2.521 229 25 25
8.184 1.333 -1.666 229 25 25
-3.615 -5.594 -1.201 229 25 25
10.997 15.481 -2.161 229 25 25
-24.223 -3.131 -1.965 229 25 25
8.053 4.051 -1.836 229 25 25
2.809 4.780 -1.924 229 25 25
-10.325 7.544 -0.796 229 25 25
3.731 -10.058 -1.317 229 25 25
-13.590 -16.887 -2.802 229 25 25
4.396 -5.478 -1.457 229 25 25
0.147 -3.968 -1.503 229 25 25
3.605 4.430 -1.933 229 25 25
2.554 12.406 -2.256 229 25 25
3.272 -14.551 -1.211 229 25 25
0.887 -10.393 -1.344 229 25 25
-6.239 -7.639 -1.652 229 25 25
8.936 5.905 -1.802 229 25 25
-3.021 6.693 -1.963 229 25 25
-10.294 7.674 -0.737 229 25 25
-6.429 8.757 -2.233 229 25 25
-0.956 -7.021 -0.782 229 25 25
-4.020 10.392 -2.300 229 25 25
13.134 -19.824 -0.517 229 25 25
14.578 -5.282 -1.505 229 25 25
2.874 -2.706 -1.625 229 25 25
-9.365 18.244 -0.130 229 25 25
0.443 6.739 -1.883 229 25 25
-5.422 6.951 -2.102 229 25 25
1.622 -5.797 -1.456 229 25 25
-1.845 8.618 -2.119 229 25 25
-8.261 4.747 -2.169 229 25 25
6.584 -6.321 -1.287 229 25 25
2.320 5.171 -1.921 229 25 25
-25.534 -14.066 0.772 229 25 25
6.350 3.474 -1.792 229 25 25
5.260 3.784 -1.842 229 25 25
6.144 7.103 -1.841 229 25 25
6.763 -5.541 -1.315 229 25 25
-4.330 -2.984 -1.683 229 25 25
25.848 17.977 -1.391 229 25 25
5.458 -1.897 -1.574 229 25 25
-14.467 37.232 1.083 229 25 25
-1.205 10.703 -0.449 229 25 25
-8.997 5.842 -2.195 229 25 25
9.543 -15.615 -1.224 229 25 25
-7.219 -2.980 -1.738 229 25 25
2.884 -6.285 -1.425 229 25 25
15.322 18.471 -2.028 229 25 25
0.808 -5.106 0.054 229 25 25
16.188 -3.335 -1.516 229 25 25
4.669 10.725 -2.076 229 25 25
31.003 -11.289 -0.840 229 25 25
-31.374 -4.733 0.280 229 25 25
-14.453 -4.493 -1.217 229 25 25
3.274 5.284 -1.918 229 25 25
15.529 0.564 -1.525 229 25 25
-9.614 14.843 0.123 229 25 25
8.615 -14.912 -1.235 229 25 25
-3.865 -2.803 -1.659 229 25 25
2.493 3.453 -1.885 229 25 25
-8.146 6.311 -2.188 229 25 25
7.444 31.892 -2.831 229 25 25
17.556 -16.256 -1.247 229 25 25
9.806 2.462 -1.682 229 25 25
8.625 -8.526 -1.032 229 25 25
1.005 9.146 -2.127 229 25 25
-7.305 3.815 -2.182 229 25 25
-8.529 -3.192 -1.721 229 25 25
-5.055 -3.491 -1.657 229 25 25
3.093 -3.061 -1.579 229 25 25
-9.768 3.256 -2.180 229 25 25
-20.477 -15.280 -2.995 229 25 25
-4.067 -10.870 -1.523 229 25 25
-6.313 0.321 -1.936 229 25 25
-4.698 -11.839 -1.545 229 25 25
6.776 -1.436 -1.526 229 25 25
-0.747 -1.549 -0.583 229 25 25
-10.617 -9.688 0.702 229 25 25
-25.318 4.393 -2.389 229 25 25
-2.494 -4.120 -1.551 229 25 25
-3.987 -7.662 -1.499 229 25 25
3.023 -2.545 -1.629 229 25 25
4.805 0.278 -1.660 229 25 25
9.823 -17.525 -0.890 229 25 25
12.882 13.173 0.472 229 25 25
12.474 13.837 -0.075 229 25 25
9.785 -15.520 -1.229 229 25 25
-10.254 4.187 -2.165 229 25 25
-8.118 -6.595 -1.861 229 25 25
-2.513 -5.071 -1.529 229 25 25
-4.876 5.791 -2.013 229 25 25
34.357 -12.695 0.160 229 25 25
-15.066 -3.351 -1.828 229 25 25
3.137 5.350 -1.913 229 25 25
30.070 12.314 -1.644 229 25 25
-0.856 5.191 -1.971 229 25 25
-8.983 10.473 -2.352 229 25 25
0.849 4.546 -1.931 229 25 25
-15.493 36.042 -0.139 229 25 25
5.637 1.066 -1.667 229 25 25
4.582 -0.186 -1.669 229 25 25
5.640 2.921 -1.751 229 25 25
-9.923 8.659 -0.907 229 25 25
26.221 10.890 -1.763 229 25 25
-4.273 -12.942 0.086 229 25 25
-9.346 9.887 -1.181 229 25 25
0.260 -3.775 -1.553 229 25 25
11.151 -10.187 -1.066 229 25 25
1.117 -7.448 -1.366 229 25 25
4.906 6.405 -1.854 229 25 25
-4.284 5.435 -2.029 229 25 25
0.870 -4.694 0.216 229 25 25
-3.961 -2.283 -1.700 229 25 25
1.798 4.325 -1.961 229 25 25
-39.341 -30.845 -1.894 51 204 51
-1.787 10.563 0.457 229 25 25
-8.095 14.368 -1.863 229 25 25
17.477 19.794 -2.090 229 25 25
-14.481 -14.915 0.138 229 25 25
29.006 -10.891 0.688 229 25 25
1.209 -9.573 -1.351 229 25 25
0.560 5.428 -1.940 229 25 25
5.123 -2.842 -1.545 229 25 25
-9.862 -27.879 -2.260 229 25 25
4.907 -4.057 -1.495 229 25 25
-2.683 7.224 -0.414 229 25 25
-8.445 11.104 -1.044 229 25 25
-11.017 -6.279 -1.602 229 25 25
12.614 17.176 -0.262 229 25 25
4.046 4.619 -1.890 229 25 25
-19.554 -3.811 -1.809 229 25 25
-7.129 -11.353 0.267 229 25 25
6.278 2.412 -1.727 229 25 25
0.729 -4.689 -1.438 229 25 25
-8.947 10.744 -0.877 229 25 25
0.448 4.526 -1.956 229 25 25
3.300 4.071 -1.924 229 25 25
-6.275 -12.462 -0.260 229 25 25
2.825 -5.806 -1.439 229 25 25
0.752 -4.102 -1.502 229 25 25
17.461 -27.180 -0.597 229 25 25
4.459 -1.663 -1.606 229 25 25
-7.672 -3.312 -1.720 229 25 25
12.906 12.690 0.161 229 25 25
7.809 -26.720 -0.466 229 25 25
13.880 -2.920 -1.605 229 25 25
4.451 -10.119 -1.318 229 25 25
3.192 3.363 -1.851 229 25 25
2.501 0.514 -0.927 229 25 25
12.326 14.899 -2.090 229 25 25
3.927 3.315 -1.821 229 25 25
-30.455 8.754 -2.775 229 25 25
-23.525 -16.728 -0.090 229 25 25
5.600 -4.121 -1.508 229 25 25
-29.157 11.241 -2.369 229 25 25
17.191 -12.623 -0.595 51 204 51
11.021 -7.970 -1.109 229 25 25
-1.162 10.628 -1.891 229 25 25
11.742 1.519 -1.623 229 25 25
-5.946 -6.485 -1.643 229 25 25
15.207 9.566 -1.924 229 25 25
-2.299 6.021 -1.966 229 25 25
24.139 16.450 -1.966 229 25 25
7.352 -10.188 -1.302 229 25 25
7.143 11.739 -0.931 229 25 25
-18.423 2.372 -2.228 229 25 25
-9.983 9.173 -2.308 229 25 25
-1.634 4.952 -2.006 229 25 25
-10.398 -4.560 -1.412 229 25 25
4.718 6.478 -1.842 229 25 25
8.472 -8.559 -1.101 229 25 25
-5.866 -11.310 -1.604 229 25 25
-8.628 -3.054 -1.731 229 25 25
-2.665 7.377 -0.900 229 25 25
6.350 3.567 -1.805 229 25 25
-3.070 4.374 -2.032 229 25 25
11.609 -23.467 0.210 51 204 51
-2.054 4.674 -2.006 229 25 25
4.613 -3.284 -1.522 229 25 25
0.481 -3.756 -1.551 229 25 25
7.920 17.242 -2.392 229 25 25
8.246 -25.579 -1.091 51 204 51
3.834 1.955 -1.734 229 25 25
3.761 -4.515 -1.475 229 25 25
26.606 -23.051 -0.686 229 25 25
-6.878 -11.329 -0.705 229 25 25
-11.440 9.793 -1.514 229 25 25
6.859 -3.647 -0.402 229 25 25
28.825 22.722 -1.885 229 25 25
-4.794 7.450 -2.117 229 25 25
-19.453 -5.346 1.014 229 25 25
1.651 -3.479 -1.571 229 25 25
6.031 -0.817 -1.635 229 25 25
8.151 1.593 -1.670 229 25 25
4.334 -2.920 -1.570 229 25 25
-0.326 4.585 -1.968 229 25 25
0.510 -4.585 -1.479 229 25 25
-1.025 6.283 -1.952 229 25 25
4.570 0.210 -1.671 229 25 25
10.451 4.242 -1.795 229 25 25
-11.417 9.006 -1.018 229 25 25
4.916 9.788 -2.037 229 25 25
-1.821 4.886 -2.003 229 25 25
-12.284 6.591 0.589 229 25 25
5.238 2.335 -1.742 229 25 25
-3.920 -5.557 0.477 229 25 25
-3.097 5.857 -2.017 229 25 25
0.821 5.387 -1.938 229 25 25
-5.937 7.195 -2.133 229 25 25
18.055 1.304 -1.466 229 25 25
17.310 -21.178 -0.978 229 25 25
7.144 -25.763 -0.437 229 25 25
23.421 4.269 -1.559 229 25 25
2.890 4.014 -1.930 229 25 25
6.820 6.402 -1.831 229 25 25
6.108 22.896 -2.740 229 25 25
14.012 7.362 -1.845 229 25 25
-1.949 -4.621 -1.557 229 25 25
-9.221 9.577 0.340 229 25 25
-5.857 5.107 -2.061 229 25 25
-2.315 8.658 -2.155 229 25 25
13.301 16.631 -0.261 229 25 25
-35.523 5.555 -1.693 229 25 25
3.473 13.777 -2.309 229 25 25
-22.946 1.939 -2.269 229 25 25
-21.868 5.388 -2.354 229 25 25
-12.285 9.992 0.664 229 25 25
-6.222 -12.506 -0.011 229 25 25
14.164 3.239 -1.669 229 25 25
-19.248 -4.260 -1.301 229 25 25
0.174 17.392 -2.672 229 25 25
7.066 -3.393 -0.742 229 25 25
-10.613 -6.225 -1.253 229 25 25
-3.830 8.341 -2.107 229 25 25
-9.449 -4.418 -1.488 229 25 25
22.458 25.195 -2.303 229 25 25
-9.632 -3.782 -1.675 229 25 25
5.613 -1.409 -1.583 229 25 25
-0.913 6.682 -1.922 229 25 25
8.226 -1.332 -1.656 229 25 25
-6.993 -2.041 -1.775 229 25 25
-9.916 8.416 -1.043 229 25 25
4.519 -5.375 -1.457 229 25 25
5.591 -3.577 -1.504 229 25 25
-7.853 18.040 -0.598 229 25 25
18.094 5.254 -1.661 229 25 25
-3.534 5.402 -2.029 229 25 25
12.222 -7.901 -1.026 229 25 25
9.308 -5.647 -1.317 229 25 25
9.332 -25.665 -0.316 51 204 51
-3.828 -2.476 -1.691 229 25 25
3.957 6.651 -1.346 229 25 25
4.215 -9.422 -1.334 229 25 25
-4.439 3.426 -2.043 229 25 25
-12.966 -5.182 -0.152 229 25 25
6.774 16.747 -0.073 229 25 25
12.411 17.000 -2.162 229 25 25
-7.022 -0.586 -1.802 229 25 25
-10.767 -13.481 0.563 229 25 25
13.171 13.031 -0.297 229 25 25
21.582 -6.651 -0.656 51 204 51
-0.607 -5.310 -1.484 229 25 25
-8.371 9.346 -2.330 229 25 25
5.703 -2.984 -1.524 229 25 25
7.445 16.561 -0.074 229 25 25
-7.837 14.184 -0.958 229 25 25
24.024 21.599 -2.196 229 25 25
-7.699 -3.834 -1.699 229 25 25
-3.811 -3.593 -1.613 229 25 25
-0.218 6.879 -1.918 229 25 25
13.271 16.342 0.255 229 25 25
-13.525 8.242 -0.200 229 25 25
10.363 -20.082 -1.149 229 25 25
-7.913 14.921 -1.815 229 25 25
19.300 -10.802 -1.299 229 25 25
0.100 -4.824 -1.469 229 25 25
9.171 -17.413 -1.204 229 25 25
-9.100 -4.329 -1.626 229 25 25
17.182 -13.361 -0.468 51 204 51
7.918 7.905 -1.894 229 25 25
-0.458 -4.748 -1.505 229 25 25
3.878 4.820 -1.906 229 25 25
4.083 -2.837 -1.581 229 25 25
-1.102 -3.572 -1.602 229 25 25
-14.098 2.731 -2.191 229 25 25
5.898 -0.107 -1.631 229 25 25
-4.694 5.940 -2.014 229 25 25
9.120 19.699 -2.371 229 25 25
-2.512 -28.284 0.930 229 25 25
-0.603 -4.017 -1.518 229 25 25
-12.409 -1.376 -1.943 229 25 25
34.368 -11.548 0.159 229 25 25
-1.494 5.639 -2.004 229 25 25
16.939 -20.111 -0.313 229 25 25
1.481 6.250 -1.915 229 25 25
7.014 -3.345 -0.315 229 25 25
-16.820 37.687 -0.154 229 25 25
4.154 4.435 -1.939 229 25 25
7.330 -10.836 -1.289 229 25 25
15.843 15.151 -1.975 229 25 25
-22.855 -4.165 -1.579 229 25 25
-12.034 7.899 -2.041 229 25 25
-4.993 6.066 -2.025 229 25 25
5.597 1.327 -1.675 229 25 25
4.196 -1.709 -1.619 229 25 25
5.166 -4.149 -1.496 229 25 25
-20.076 -15.483 -2.969 229 25 25
5.582 1.361 -1.673 229 25 25
-0.412 -10.539 -1.361 229 25 25
-12.207 7.044 -1.995 229 25 25
-5.210 -14.929 0.822 229 25 25
7.903 -16.532 -1.222 229 25 25
-1.341 -6.202 -1.417 229 25 25
2.416 -5.142 -1.470 229 25 25
5.256 1.253 -1.687 229 25 25
-1.109 -5.193 -1.533 229 25 25
2.711 -5.093 -1.496 229 25 25
-14.470 -25.369 -2.585 229 25 25
4.363 1.943 -1.726 229 25 25
-1.539 5.760 -2.001 229 25 25
-4.316 6.402 -2.060 229 25 25
-0.355 6.278 -1.932 229 25 25
-1.452 4.976 -1.995 229 25 25
4.802 -7.813 -1.374 229 25 25
4.021 -5.494 -1.461 229 25 25
-2.896 4.828 -2.026 229 25 25
-1.038 -3.629 -1.577 229 25 25
3.111 -2.531 -1.612 229 25 25
-1.583 5.740 -1.999 229 25 25
6.607 1.627 -1.665 229 25 25
-12.866 -5.545 0.285 229 25 25
1.813 3.937 -1.966 229 25 25
-9.288 12.367 -1.264 229 25 25
10.056 29.801 -2.525 229 25 25
1.607 4.419 -1.922 229 25 25
-10.154 8.103 -1.202 229 25 25
-10.542 10.937 0.649 229 25 25
-7.926 13.164 -1.803 229 25 25
-5.775 -4.896 -1.668 229 25 25
-8.974 -4.372 -0.530 229 25 25
-15.930 -18.142 -2.814 229 25 25
16.778 -4.625 -1.498 229 25 25
4.131 4.752 -1.873 229 25 25
36.214 -34.209 1.920 51 204 51
19.559 2.825 -1.503 229 25 25
-18.474 -4.142 -0.304 229 25 25
13.144 11.804 0.462 229 25 25
12.193 -0.399 -1.582 229 25 25
8.179 -28.388 0.711 229 25 25
-7.738 9.614 -2.291 229 25 25
-8.383 7.452 -2.200 229 25 25
-4.013 -11.765 -1.501 229 25 25
-10.177 8.589 -1.723 229 25 25
1.422 -8.579 -1.364 229 25 25
-11.560 -4.685 -1.574 229 25 25
-5.038 3.028 -2.017 229 25 25
-8.013 12.250 -0.157 229 25 25
-5.811 7.809 -2.154 229 25 25
-0.931 -5.741 -1.460 229 25 25
-12.519 -16.086 -2.713 51 204 51
3.884 1.519 -1.712 229 25 25
2.979 6.055 -1.886 229 25 25
-17.938 -15.709 -2.945 229 25 25
13.012 3.423 -1.718 229 25 25
-3.001 -28.893 0.237 229 25 25
2.957 3.253 -1.833 229 25 25
-3.014 -3.553 -1.596 229 25 25
34.389 -11.137 0.160 229 25 25
-10.302 8.642 -1.741 229 25 25
2.789 -6.305 -1.420 229 25 25
6.834 -7.663 -1.147 229 25 25
4.083 4.586 -1.890 229 25 25
11.285 11.322 -1.985 229 25 25
-3.260 -2.691 -1.654 229 25 25
1.833 6.383 -1.902 229 25 25
3.413 2.522 -1.760 229 25 25
-3.605 -5.527 -1.050 229 25 25
2.999 4.659 -1.921 229 25 25
-20.338 8.549 -0.849 229 25 25
-12.782 -5.083 -0.910 229 25 25
-3.920 -5.568 0.136 229 25 25
9.871 -13.027 -1.262 229 25 25
24.480 -0.208 -0.579 51 204 51
-3.548 5.407 -2.033 229 25 25
2.817 21.629 -2.922 229 25 25
-34.216 -3.701 -2.069 229 25 25
-16.367 -7.493 0.498 229 25 25
12.195 8.313 -1.814 229 25 25
7.878 11.221 0.652 229 25 25
6.258 0.048 -1.633 229 25 25
-25.666 -13.994 0.277 229 25 25
13.784 8.246 -1.876 229 25 25
4.897 1.195 -1.708 229 25 25
6.508 -0.464 -1.645 229 25 25
-2.731 4.731 -2.021 229 25 25
-0.077 10.138 -2.266 229 25 25
-3.260 -3.209 -1.628 229 25 25
-25.592 -13.962 0.090 229 25 25
4.151 2.142 -1.741 229 25 25
-12.222 -4.864 -0.626 229 25 25
3.798 -7.528 -1.383 229 25 25
-3.768 3.547 -2.039 229 25 25
-11.046 9.095 -1.598 229 25 25
2.127 4.348 -1.939 229 25 25
-7.708 1.336 -1.990 229 25 25
-0.776 4.694 -1.969 229 25 25
-13.565 -28.513 -2.427 229 25 25
2.080 6.245 -1.885 229 25 25
13.341 15.846 0.024 229 25 25
-2.119 -3.807 -1.568 229 25 25
17.302 -18.356 0.197 229 25 25
28.792 -11.089 0.315 229 25 25
3.359 -4.265 -1.505 229 25 25
1.637 6.096 -1.949 229 25 25
6.024 4.525 -1.875 229 25 25
4.083 1.204 -1.700 229 25 25
-1.664 -3.591 -1.574 229 25 25
-3.529 -4.952 -1.557 229 25 25
-35.993 -5.666 0.450 229 25 25
-12.414 6.260 -1.390 229 25 25
6.699 17.890 0.832 229 25 25
2.292 -6.543 -1.428 229 25 25
5.016 -1.226 -1.715 229 25 25
-14.652 -14.875 0.008 229 25 25
-5.573 -0.857 -1.781 229 25 25
-14.689 6.746 -0.586 229 25 25
-6.302 0.442 -1.935 229 25 25
-29.528 4.302 -2.438 229 25 25
9.499 12.430 0.426 229 25 25
-2.086 -11.814 -1.441 229 25 25
-1.795 -8.650 -1.388 229 25 25
-9.021 -3.479 -1.718 229 25 25
-35.466 -2.867 -2.148 229 25 25
-6.450 -0.959 -1.788 229 25 25
20.716 -6.924 -1.289 229 25 25
2.273 6.914 -1.902 229 25 25
0.201 -3.973 -1.505 229 25 25
2.977 -3.469 -1.560 229 25 25
-6.023 2.347 -1.993 229 25 25
5.052 5.847 -1.853 229 25 25
6.455 6.353 -1.856 229 25 25
3.937 -3.674 -1.554 229 25 25
3.914 -3.022 -1.569 229 25 25
5.035 21.042 -2.750 229 25 25
16.394 4.307 -1.690 229 25 25
13.356 15.834 0.156 229 25 25
-0.644 -17.681 -1.257 229 25 25
5.155 -3.524 -1.536 229 25 25
2.517 -6.762 -1.431 229 25 25
-2.005 -7.149 -1.420 229 25 25
-3.324 -2.493 -1.668 229 25 25
9.206 18.463 0.394 229 25 25
-5.491 -13.555 0.689 229 25 25
11.868 -30.415 0.754 229 25 25
3.746 -13.762 -1.236 229 25 25
-4.250 2.733 -1.970 229 25 25
-9.948 9.348 -1.831 229 25 25
-6.307 -1.357 -1.814 229 25 25
9.470 0.928 -1.639 229 25 25
-2.667 -5.032 -1.541 229 25 25
0.288 5.456 -1.941 229 25 25
9.767 -1.450 -1.620 229 25 25
-38.800 1.621 -2.564 229 25 25
31.628 -34.227 0.947 51 204 51
-5.263 -3.058 -1.692 229 25 25
-6.856 11.103 -2.431 229 25 25
-9.492 10.608 0.030 229 25 25
8.791 5.299 -1.798 229 25 25
1.332 5.103 -1.937 229 25 25
12.176 11.409 -1.961 229 25 25
20.574 12.577 -0.883 51 204 51
6.575 16.635 -0.289 229 25 25
-24.006 0.117 -2.231 229 25 25
-2.669 7.271 -0.887 229 25 25
4.595 2.332 -1.763 229 25 25
4.027 4.657 -1.895 229 25 25
-38.896 1.746 -2.571 229 25 25
-7.589 -0.594 -1.784 229 25 25
3.048 6.533 -1.883 229 25 25
0.740 4.819 -1.947 229 25 25
-4.231 3.448 -2.052 229 25 25
8.076 -3.335 -1.469 229 25 25
3.657 22.325 -2.883 229 25 25
-5.293 -10.615 0.322 229 25 25
-5.452 3.094 -2.052 229 25 25
7.076 -3.254 -0.317 229 25 25
3.399 -2.424 -1.593 229 25 25
36.523 -11.105 0.796 229 25 25
6.102 5.685 -1.846 229 25 25
-4.161 2.165 -1.960 229 25 25
-8.644 -3.012 -1.731 229 25 25
5.000 1.013 -1.685 229 25 25
9.425 -0.309 -1.616 229 25 25
35.718 -34.217 0.988 51 204 51
-5.275 -1.736 -1.746 229 25 25
2.581 5.855 -1.909 229 25 25
-6.190 4.445 -2.087 229 25 25
-8.006 7.520 -2.153 229 25 25
-2.199 -5.710 -1.499 229 25 25
5.418 -6.901 -1.388 229 25 25
6.119 10.790 -2.004 229 25 25
0.763 -10.490 -1.357 229 25 25
6.907 -3.552 -0.878 229 25 25
-13.284 -1.393 -1.955 229 25 25
-2.298 5.551 -2.009 229 25 25
9.021 -3.270 -1.474 229 25 25
3.425 3.321 -1.855 229 25 25
-4.909 -9.731 -1.549 229 25 25
-8.833 -4.535 -0.712 229 25 25
0.630 -25.830 -0.725 229 25 25
-8.980 5.039 -2.183 229 25 25
34.305 -12.499 -0.550 229 25 25
1.067 11.431 -2.273 229 25 25
-0.662 5.823 -1.975 229 25 25
-4.150 6.479 -2.053 229 25 25
0.368 6.753 -1.886 229 25 25
3.955 6.670 -1.509 229 25 25
5.219 -1.326 -1.694 229 25 25
13.097 -1.015 -1.569 229 25 25
-1.496 -3.645 -1.562 229 25 25
0.207 -8.738 -1.370 229 25 25
-16.677 -4.163 -1.417 229 25 25
-4.409 2.074 -1.927 229 25 25
3.220 -5.951 -1.447 229 25 25
7.149 11.290 0.076 229 25 25
3.351 2.665 -1.778 229 25 25
-3.533 -12.697 -1.517 229 25 25
11.246 14.081 -2.134 229 25 25
-10.526 -4.330 -0.925 229 25 25
-5.281 -2.632 -1.715 229 25 25
-7.743 15.394 -0.708 229 25 25
-22.372 -20.374 -1.217 229 25 25
4.823 -3.059 -1.539 229 25 25
1.902 4.875 -1.923 229 25 25
1.292 5.910 -1.934 229 25 25
-2.070 -7.862 -1.397 229 25 25
20.543 6.807 -1.670 229 25 25
-9.284 -4.697 -1.022 229 25 25
16.151 -1.360 -1.488 229 25 25
3.782 3.648 -1.865 229 25 25
-25.394 7.193 -0.437 229 25 25
-0.345 -3.779 -1.569 229 25 25
0.370 -3.984 -1.513 229 25 25
-8.164 5.471 -2.165 229 25 25
-10.383 10.606 -0.598 229 25 25
-1.206 -4.761 -1.512 229 25 25
-3.194 -10.887 -1.483 229 25 25
-1.318 10.700 0.272 229 25 25
-16.544 3.301 -2.307 229 25 25
-5.338 12.178 -2.481 229 25 25
-7.438 0.871 -1.962 229 25 25
34.149 -14.658 0.336 229 25 25
-6.725 -0.772 -1.790 229 25 25
-14.854 -25.117 -2.582 229 25 25
-2.774 4.250 -2.020 229 25 25
-0.172 5.350 -1.957 229 25 25
5.791 1.363 -1.664 229 25 25
2.179 5.260 -1.930 229 25 25
14.033 -23.487 -0.970 51 204 51
6.678 -6.914 -1.169 229 25 25
-0.402 12.873 -2.408 229 25 25
-0.055 5.940 -1.947 229 25 25
-0.662 -5.641 -1.477 229 25 25
3.685 -7.896 -1.370 229 25 25
-4.040 -4.165 -1.590 229 25 25
-24.997 -16.329 0.627 229 25 25
-12.422 7.270 0.342 229 25 25
-4.195 -2.439 -1.695 229 25 25
3.271 -11.530 -1.280 229 25 25
-5.937 -0.800 -1.758 229 25 25
6.959 -3.546 -0.126 229 25 25
-2.351 5.423 -2.021 229 25 25
3.704 -9.646 -1.334 229 25 25
-7.796 -3.710 -1.707 229 25 25
-5.195 -6.866 -1.601 229 25 25
-2.513 6.013 -1.987 229 25 25
14.772 -17.185 0.059 229 25 25
-10.190 -8.484 -2.062 229 25 25
0.980 -4.225 -0.336 229 25 25
-8.783 -4.596 -0.645 229 25 25
-3.111 6.444 -1.978 229 25 25
-5.126 -8.530 -1.589 229 25 25
11.032 -23.486 0.211 51 204 51
-0.657 -7.200 0.207 229 25 25
-1.639 -3.391 -1.631 229 25 25
19.275 11.168 -1.346 51 204 51
-9.334 10.404 0.352 229 25 25
-5.809 5.821 -2.031 229 25 25
1.354 4.788 -1.941 229 25 25
-16.420 -4.350 0.579 229 25 25
-5.896 -5.672 -1.668 229 25 25
5.245 2.754 -1.744 229 25 25
-2.509 -5.625 -1.512 229 25 25
6.226 -17.491 -0.797 229 25 25
9.998 11.236 -2.030 229 25 25
-3.130 -2.429 -1.684 229 25 25
8.460 0.110 -1.613 229 25 25
-4.026 -8.285 -1.526 229 25 25
-11.865 -3.238 -1.785 229 25 25
-7.115 -2.387 -1.750 229 25 25
16.855 -3.612 -1.484 229 25 25
-8.834 10.918 -0.302 229 25 25
6.178 12.021 0.556 229 25 25
3.087 -10.273 -1.316 229 25 25
-8.737 5.504 -2.191 229 25 25
9.801 12.491 0.729 229 25 25
3.124 3.780 -1.912 229 25 25
2.541 5.248 -1.918 229 25 25
-7.047 14.069 -2.698 229 25 25
4.385 -19.052 -1.088 229 25 25
-9.126 -0.086 -1.821 229 25 25
-0.033 -4.060 -1.508 229 25 25
8.772 -6.769 -1.265 229 25 25
-3.869 -5.208 -1.539 229 25 25
14.962 16.501 -2.011 229 25 25
-4.309 5.184 -2.040 229 25 25
13.325 -19.021 0.595 229 25 25
9.416 3.091 -1.723 229 25 25
-0.543 -4.893 -1.508 229 25 25
7.384 16.812 -1.634 229 25 25
-4.758 -5.627 -1.613 229 25 25
-0.335 5.192 -1.954 229 25 25
22.989 -1.546 -1.381 229 25 25
4.523 17.119 -2.551 229 25 25
15.924 14.989 -1.970 229 25 25
8.522 -4.120 -1.448 229 25 25
11.538 -23.487 -0.758 51 204 51
-4.744 -4.130 -1.628 229 25 25
-24.213 -17.569 0.626 229 25 25
16.431 17.881 -2.053 229 25 25
8.003 -7.048 -1.077 229 25 25
-9.402 -4.921 0.147 229 25 25
