ply
format ascii 1.0
element vertex 2048
property float x
property float y
property float z
property uchar red
property uchar green
property uchar blue
end_header
-5.258 12.259 -2.490 51 127 229
-9.975 0.019 -2.032 51 127 229
-12.834 7.476 -0.777 51 127 229
-1.679 6.188 -1.961 51 127 229
4.643 -0.853 -1.658 51 127 229
-8.840 11.083 -1.652 51 127 229
-5.286 -3.026 -1.692 51 127 229
-2.875 10.946 0.331 51 127 229
7.364 11.487 -0.597 51 127 229
-4.757 2.804 -1.999 51 127 229
13.050 -23.442 0.036 89 89 89
5.448 -6.852 -1.385 51 127 229
-6.742 -0.876 -1.797 51 127 229
13.221 5.141 -1.825 51 127 229
7.939 7.136 -1.801 51 127 229
-1.621 -6.492 -1.433 51 127 229
7.412 6.729 -1.758 51 127 229
2.266 5.959 -1.902 51 127 229
14.892 -3.271 -1.576 51 127 229
-3.378 -3.569 -1.602 51 127 229
-0.436 7.878 -1.974 51 127 229
3.323 2.928 -1.800 51 127 229
-16.586 2.558 -2.222 51 127 229
6.901 10.184 -1.986 51 127 229
-9.687 -4.758 -1.006 51 127 229
-3.916 2.869 -1.998 51 127 229
0.832 -25.804 -0.725 51 127 229
9.394 2.015 -1.662 51 127 229
-18.894 7.811 -1.735 51 127 229
4.793 1.987 -1.728 51 127 229
8.414 31.714 -2.838 51 127 229
-25.316 -15.334 1.336 165 165 165
-8.342 -9.493 -1.827 51 127 229
2.834 -7.120 -1.396 51 127 229
-0.776 -6.990 0.428 51 127 229
5.000 -3.321 -1.523 51 127 229
19.638 -7.244 -1.328 51 127 229
1.644 7.005 -1.879 51 127 229
34.356 -23.047 1.626 89 89 89
-0.546 -16.676 -1.270 51 127 229
6.696 0.602 -1.635 51 127 229
-10.978 -2.358 -1.834 51 127 229
5.955 16.344 0.041 51 127 229
4.487 -5.737 -1.452 51 127 229
7.407 11.489 -0.260 51 127 229
-36.866 -30.097 -1.194 165 165 165
-9.755 9.283 -2.176 51 127 229
-38.236 -37.555 -1.734 165 165 165
-15.780 36.216 0.109 51 127 229
7.894 4.664 -1.785 51 127 229
1.652 4.319 -1.998 51 127 229
5.163 -0.767 -1.647 51 127 229
9.014 4.551 -1.853 51 127 229
4.392 -1.348 -1.708 51 127 229
8.347 -2.797 -1.484 51 127 229
-17.117 7.429 -0.137 51 127 229
-1.886 8.829 0.296 51 127 229
13.872 10.587 -1.866 51 127 229
14.851 -1.329 -1.542 51 127 229
3.166 8.755 -1.996 51 127 229
7.550 18.077 -0.578 51 127 229
-25.230 4.580 -2.384 51 127 229
7.967 9.324 -1.977 51 127 229
11.416 8.090 -1.807 51 127 229
-0.494 -14.833 -1.288 51 127 229
-0.030 10.139 -2.266 51 127 229
5.175 17.145 -1.592 51 127 229
-8.941 10.481 -1.947 51 127 229
10.457 3.658 -1.759 51 127 229
6.165 -27.365 -0.985 51 127 229
-23.779 -18.097 1.342 165 165 165
-0.194 -5.306 -1.470 51 127 229
-4.018 -4.653 -1.581 51 127 229
2.958 -6.072 -1.443 51 127 229
-3.665 -5.616 -1.275 51 127 229
6.689 -3.638 -1.322 51 127 229
5.579 -2.371 -1.551 51 127 229
-14.176 -5.248 0.835 51 127 229
13.337 16.570 -0.497 51 127 229
-9.834 7.500 -1.291 51 127 229
6.131 -29.188 1.275 51 127 229
4.113 6.714 -1.163 51 127 229
0.909 -8.721 -1.375 51 127 229
12.672 6.146 -1.814 51 127 229
3.254 -4.675 -1.478 51 127 229
-7.770 -7.915 -1.796 51 127 229
4.782 16.293 -1.392 51 127 229
-2.162 -4.538 -1.564 51 127 229
-17.831 -4.799 0.835 51 127 229
26.227 -11.566 -1.057 51 127 229
-2.534 -14.893 -1.412 51 127 229
-6.034 1.109 -1.930 51 127 229
-23.852 -16.298 0.615 165 165 165
-10.795 -13.202 0.351 165 165 165
0.943 -11.094 -1.048 51 127 229
11.365 -4.167 -1.498 51 127 229
2.381 4.638 -1.916 51 127 229
-7.033 -5.939 -1.730 51 127 229
11.243 11.460 -1.994 51 127 229
2.471 -10.478 -1.320 51 127 229
5.946 15.044 -2.317 51 127 229
19.375 10.675 -1.444 51 127 229
7.454 6.383 -1.807 51 127 229
7.703 -15.421 -1.235 51 127 229
2.400 -9.247 -1.338 51 127 229
3.810 12.416 -2.219 51 127 229
-6.414 -11.442 0.590 51 127 229
3.892 4.115 -1.915 51 127 229
1.908 4.141 -1.971 51 127 229
-0.884 -13.559 -1.331 51 127 229
4.447 -3.293 -1.550 51 127 229
10.837 10.478 -1.964 51 127 229
-15.976 2.477 -2.206 51 127 229
-5.821 2.265 -1.975 51 127 229
7.027 11.730 -1.678 51 127 229
8.192 -8.705 -1.164 51 127 229
6.046 0.815 -1.658 51 127 229
-12.849 9.034 -0.558 51 127 229
-3.449 7.777 -2.035 51 127 229
7.927 18.732 -1.326 51 127 229
-0.771 -7.013 -0.828 51 127 229
4.069 -8.669 -1.346 51 127 229
6.845 -3.334 -1.485 51 127 229
-18.857 -4.053 -0.444 51 127 229
6.171 -7.409 -1.365 51 127 229
2.462 5.895 -1.906 51 127 229
-8.487 -3.271 -1.718 51 127 229
-6.103 0.644 -1.928 51 127 229
-0.288 -3.848 -1.553 51 127 229
5.468 16.130 -0.268 51 127 229
-0.758 -6.943 -0.639 51 127 229
6.627 11.823 -1.568 51 127 229
5.075 0.060 -1.661 51 127 229
7.105 -3.300 -0.359 51 127 229
3.818 -5.239 -1.450 51 127 229
26.056 17.139 -0.806 51 127 229
1.593 4.091 -1.991 51 127 229
-9.473 11.956 0.561 51 127 229
4.960 -5.920 -1.416 51 127 229
-21.900 -20.202 -2.099 165 165 165
4.618 -18.190 -1.127 51 127 229
6.805 -3.752 -0.968 51 127 229
27.086 20.200 -1.902 51 127 229
-8.879 1.981 -2.061 51 127 229
-5.530 2.877 -2.037 51 127 229
25.443 -15.627 -0.927 51 127 229
5.970 2.505 -1.718 51 127 229
5.800 15.578 -0.466 51 127 229
3.806 2.898 -1.794 51 127 229
10.870 8.624 -1.855 51 127 229
-1.910 6.603 -1.955 51 127 229
10.925 -24.341 0.211 89 89 89
27.084 -10.749 -1.079 51 127 229
6.378 -8.224 -1.354 51 127 229
-12.432 -16.080 -2.704 165 165 165
-8.652 -1.823 -1.834 51 127 229
2.931 5.475 -1.916 51 127 229
10.374 3.033 -1.712 51 127 229
0.104 5.492 -1.950 51 127 229
7.505 16.892 -1.528 51 127 229
8.930 -1.783 -1.547 51 127 229
-5.973 4.345 -2.069 51 127 229
-2.354 10.556 0.406 51 127 229
5.013 4.708 -1.847 51 127 229
2.978 -2.810 -1.592 51 127 229
6.224 16.354 -0.384 51 127 229
1.210 6.884 -1.885 51 127 229
-1.822 -37.981 -2.070 51 127 229
28.781 1.996 -1.431 51 127 229
5.438 -3.425 -1.517 51 127 229
-14.661 7.789 0.574 51 127 229
5.318 0.769 -1.670 51 127 229
-5.370 -11.258 -1.564 51 127 229
-4.143 2.950 -1.988 51 127 229
10.917 2.436 -1.662 51 127 229
3.282 -3.043 -1.575 51 127 229
-2.570 4.791 -2.014 51 127 229
6.454 -5.557 -1.350 51 127 229
4.793 -0.560 -1.649 51 127 229
-3.660 -18.986 -1.393 51 127 229
13.180 4.934 -1.809 51 127 229
2.001 19.734 -2.875 51 127 229
-3.548 -3.797 -1.595 51 127 229
9.263 -9.100 -1.042 51 127 229
-15.249 -4.578 -0.813 51 127 229
-5.187 -27.945 0.721 51 127 229
-0.958 -3.745 -1.570 51 127 229
-12.214 6.161 -1.277 51 127 229
-11.797 1.387 -2.096 51 127 229
28.908 -11.239 0.531 51 127 229
4.036 3.659 -1.881 51 127 229
16.966 -18.735 -0.737 89 89 89
-11.903 -12.125 0.885 51 127 229
2.476 4.025 -1.933 51 127 229
5.541 0.733 -1.677 51 127 229
19.318 11.152 -1.073 51 127 229
6.153 2.946 -1.757 51 127 229
34.379 -15.854 0.339 51 127 229
-8.306 -10.832 -1.836 51 127 229
4.574 -2.899 -1.572 51 127 229
1.859 4.575 -1.928 51 127 229
3.431 -6.054 -1.437 51 127 229
7.376 11.668 -1.696 51 127 229
-11.029 -20.651 -1.328 165 165 165
-6.495 2.574 -2.020 51 127 229
8.946 2.286 -1.676 51 127 229
-32.501 7.729 0.052 51 127 229
-8.889 12.536 -2.190 51 127 229
3.976 6.866 -1.825 51 127 229
-2.260 5.234 -2.000 51 127 229
11.508 -6.808 -1.005 51 127 229
-15.113 7.077 -1.289 51 127 229
0.228 -4.677 -1.468 51 127 229
-7.683 13.923 -0.354 51 127 229
2.794 -3.654 -1.518 51 127 229
36.097 -30.606 0.159 89 89 89
7.189 11.272 0.076 51 127 229
-4.693 4.131 -2.061 51 127 229
-9.173 9.771 -0.999 51 127 229
4.274 -1.782 -1.608 51 127 229
6.922 -14.749 -1.249 51 127 229
-8.880 9.298 -0.579 51 127 229
6.513 4.455 -1.885 51 127 229
31.722 -11.048 -0.860 51 127 229
1.569 -7.897 -1.379 51 127 229
-27.166 9.477 -0.629 51 127 229
-5.695 3.592 -2.092 51 127 229
-6.445 -1.079 -1.791 51 127 229
3.284 3.522 -1.875 51 127 229
11.364 -25.785 -1.000 89 89 89
-4.316 -2.007 -1.725 51 127 229
19.405 13.456 -1.987 51 127 229
4.572 4.884 -1.863 51 127 229
-5.356 -0.050 -1.746 51 127 229
6.901 -3.296 -1.332 51 127 229
-4.267 -7.654 -1.524 51 127 229
-4.869 -3.171 -1.680 51 127 229
8.026 4.182 -1.844 51 127 229
12.055 13.259 0.371 51 127 229
-12.129 8.390 0.016 51 127 229
3.848 5.850 -1.888 51 127 229
-8.217 11.978 -0.409 51 127 229
-7.240 0.244 -1.960 51 127 229
-0.175 10.189 -2.278 51 127 229
2.545 3.754 -1.897 51 127 229
4.019 6.718 -1.798 51 127 229
-2.491 -8.240 -1.413 51 127 229
15.127 -5.162 -1.558 51 127 229
6.767 11.543 -0.171 51 127 229
-5.317 -1.681 -1.754 51 127 229
0.186 -20.354 -1.134 51 127 229
1.417 7.270 -1.936 51 127 229
-0.069 -4.369 -1.489 51 127 229
24.026 31.337 -2.530 51 127 229
0.278 -6.630 -1.414 51 127 229
30.762 -34.252 0.705 89 89 89
-4.834 -4.007 -1.626 51 127 229
7.584 -5.403 -1.413 51 127 229
6.662 -2.716 -1.520 51 127 229
6.798 15.314 -2.283 51 127 229
-25.655 -14.002 0.622 165 165 165
17.073 -17.754 -0.554 89 89 89
-9.222 -4.275 -0.167 51 127 229
-9.493 10.379 0.282 51 127 229
12.627 -1.928 -1.603 51 127 229
4.332 -2.481 -1.593 51 127 229
-2.174 6.496 -1.945 51 127 229
-6.223 -12.559 -0.169 51 127 229
-8.256 11.218 -0.805 51 127 229
-33.132 -32.047 -0.874 165 165 165
6.488 -3.065 -1.512 51 127 229
-11.047 -18.260 0.788 165 165 165
7.278 -1.408 -1.582 51 127 229
5.173 -0.621 -1.645 51 127 229
-0.928 -6.993 0.037 51 127 229
-4.605 4.635 -2.041 51 127 229
13.716 -0.262 -1.554 51 127 229
2.057 5.511 -1.935 51 127 229
-1.286 5.939 -1.983 51 127 229
-1.238 -4.897 -1.512 51 127 229
11.678 -33.022 -1.090 89 89 89
-6.840 2.110 -1.988 51 127 229
-9.607 1.929 -2.069 51 127 229
37.401 13.212 0.807 51 127 229
-16.074 3.751 -2.369 51 127 229
-10.356 -11.686 0.347 51 127 229
-6.751 -8.757 -1.688 51 127 229
-3.219 13.351 -2.449 51 127 229
12.534 1.154 -1.588 51 127 229
-8.781 -4.056 -1.122 51 127 229
13.259 15.561 0.253 51 127 229
4.796 -3.083 -1.537 51 127 229
1.478 5.524 -1.938 51 127 229
8.229 -0.162 -1.641 51 127 229
-21.924 8.829 -2.749 51 127 229
4.028 -1.615 -1.643 51 127 229
0.004 -6.182 -1.435 51 127 229
-2.144 9.428 -2.231 51 127 229
-8.300 17.720 -0.252 51 127 229
1.921 -5.909 -1.440 51 127 229
-2.441 4.534 -2.016 51 127 229
-8.170 -8.678 -1.834 51 127 229
-7.934 17.987 -0.951 51 127 229
7.885 -12.231 -1.276 51 127 229
-5.376 5.764 -2.029 51 127 229
4.144 3.994 -1.886 51 127 229
16.617 6.852 -1.808 51 127 229
11.991 -23.474 -0.594 89 89 89
-8.536 -35.069 -2.195 51 127 229
-4.319 -22.092 -1.386 51 127 229
-1.342 4.504 -1.997 51 127 229
-4.797 -13.362 -1.554 51 127 229
1.335 -6.483 -1.409 51 127 229
11.006 9.735 -1.909 51 127 229
35.457 -31.135 0.381 89 89 89
-8.888 13.075 0.307 51 127 229
8.089 18.368 0.491 51 127 229
7.225 -2.199 -1.542 51 127 229
5.068 -3.593 -1.526 51 127 229
4.137 -2.126 -1.610 51 127 229
4.521 -0.915 -1.666 51 127 229
1.656 6.553 -1.888 51 127 229
-4.205 -3.118 -1.672 51 127 229
12.826 13.957 -0.079 51 127 229
2.985 -2.878 -1.573 51 127 229
5.641 -2.254 -1.556 51 127 229
5.110 -5.259 -1.468 51 127 229
-1.398 4.719 -1.982 51 127 229
-5.452 -1.359 -1.827 51 127 229
25.076 19.781 -2.010 51 127 229
2.604 5.676 -1.928 51 127 229
6.030 0.832 -1.654 51 127 229
4.651 16.759 -1.648 51 127 229
29.192 -34.502 0.929 89 89 89
-2.843 4.515 -2.034 51 127 229
2.036 -3.317 -1.591 51 127 229
-4.760 -8.586 -1.566 51 127 229
11.701 -6.703 -1.017 51 127 229
-9.099 -7.781 -1.953 51 127 229
-0.737 -3.954 -1.539 51 127 229
-15.619 -6.713 0.789 51 127 229
2.733 6.417 -1.882 51 127 229
-3.010 -3.820 -1.577 51 127 229
7.206 11.868 -0.851 51 127 229
27.274 8.537 -1.574 51 127 229
-8.362 10.799 0.038 51 127 229
-16.094 3.808 -2.374 51 127 229
24.419 0.834 -1.025 51 127 229
-12.259 7.879 -1.631 51 127 229
8.191 0.225 -1.637 51 127 229
-2.966 -3.276 -1.612 51 127 229
12.838 12.521 0.465 51 127 229
-2.977 4.004 -2.090 51 127 229
7.387 -14.546 -1.252 51 127 229
-9.192 0.812 -2.019 51 127 229
6.449 12.088 -1.352 51 127 229
0.276 6.234 -1.921 51 127 229
-29.148 8.699 -1.402 51 127 229
-4.801 -2.654 -1.713 51 127 229
2.858 -6.870 -1.420 51 127 229
2.700 -4.832 -1.468 51 127 229
-0.953 -6.990 0.430 51 127 229
14.244 -0.002 -1.550 51 127 229
9.672 -18.321 -1.178 51 127 229
-0.079 -4.340 -1.478 51 127 229
-30.404 6.778 0.056 51 127 229
-12.059 8.159 -2.218 51 127 229
1.210 5.274 -1.927 51 127 229
-6.097 0.880 -1.937 51 127 229
39.940 1.928 -1.339 51 127 229
4.231 24.528 -2.886 51 127 229
7.436 -1.766 -1.566 51 127 229
7.636 7.156 -1.764 51 127 229
0.692 -5.750 -1.395 51 127 229
3.758 -10.358 -1.311 51 127 229
8.992 -6.448 -1.187 51 127 229
5.800 -26.258 -0.438 51 127 229
-7.832 -12.470 0.517 51 127 229
-1.061 -7.076 0.467 51 127 229
-0.949 -6.990 0.037 51 127 229
-8.787 10.551 0.281 51 127 229
4.233 -3.778 -1.521 51 127 229
11.209 -14.759 -1.247 51 127 229
-1.019 -3.901 -1.550 51 127 229
9.511 6.221 -1.817 51 127 229
-9.326 11.643 -0.692 51 127 229
-9.451 10.270 -1.553 51 127 229
-9.396 -5.268 -0.055 51 127 229
-8.118 12.276 -0.586 51 127 229
5.620 -5.372 -1.431 51 127 229
4.505 3.286 -1.819 51 127 229
26.362 1.483 -1.432 51 127 229
2.226 -3.253 -1.570 51 127 229
11.338 -8.959 -1.013 51 127 229
4.253 1.834 -1.721 51 127 229
2.923 4.252 -1.951 51 127 229
-0.984 -4.603 -1.529 51 127 229
3.221 3.326 -1.847 51 127 229
14.355 10.925 0.692 51 127 229
-1.314 4.320 -2.011 51 127 229
-15.557 0.725 -2.122 51 127 229
5.106 17.204 0.590 51 127 229
-6.181 -11.576 0.589 51 127 229
-3.816 5.519 -2.037 51 127 229
1.747 6.988 -1.882 51 127 229
4.482 4.741 -1.863 51 127 229
-9.489 -3.550 -1.715 51 127 229
30.624 -18.968 -0.531 51 127 229
-6.040 2.260 -1.987 51 127 229
-4.259 -2.103 -1.720 51 127 229
-3.693 -1.994 -1.699 51 127 229
-5.288 3.930 -2.107 51 127 229
3.721 -8.322 -1.361 51 127 229
-4.327 -3.157 -1.661 51 127 229
-4.932 -3.624 -1.649 51 127 229
-8.108 13.364 -1.278 51 127 229
11.814 -23.512 -0.437 89 89 89
4.453 -11.647 -1.281 51 127 229
-0.284 5.953 -1.951 51 127 229
6.567 11.841 -1.245 51 127 229
-15.795 5.726 -2.294 51 127 229
-7.019 5.438 -2.108 51 127 229
26.100 18.244 -0.637 51 127 229
12.020 -5.159 -1.455 51 127 229
5.648 5.184 -1.834 51 127 229
4.964 -4.015 -1.500 51 127 229
3.469 4.640 -1.902 51 127 229
-8.654 -9.504 -1.862 51 127 229
-7.744 17.854 -1.178 51 127 229
-35.318 5.563 1.294 51 127 229
-22.636 -19.948 -2.303 165 165 165
4.407 3.038 -1.798 51 127 229
6.516 -0.515 -1.648 51 127 229
-0.056 -5.585 -1.447 51 127 229
3.626 1.697 -1.746 51 127 229
-5.704 5.488 -2.036 51 127 229
5.922 5.921 -1.855 51 127 229
-7.979 -4.370 0.516 51 127 229
-6.676 -11.696 0.749 51 127 229
-2.531 6.004 -1.988 51 127 229
-3.041 -3.955 -1.568 51 127 229
8.614 17.792 -1.283 51 127 229
0.326 13.408 -2.393 51 127 229
0.936 -4.502 0.104 51 127 229
12.143 -9.525 -0.726 51 127 229
-11.255 10.370 -0.536 51 127 229
-13.418 38.551 -0.146 51 127 229
2.817 -3.170 -1.575 51 127 229
8.590 -2.338 -1.506 51 127 229
6.854 -3.652 -0.772 51 127 229
-0.680 -16.745 -1.277 51 127 229
-29.970 5.839 0.197 51 127 229
9.160 13.139 -2.102 51 127 229
2.690 3.602 -1.879 51 127 229
5.875 0.384 -1.634 51 127 229
-1.930 -5.003 -1.559 51 127 229
-9.675 9.974 -1.294 51 127 229
-2.378 5.838 -1.991 51 127 229
-10.426 -4.567 -0.220 51 127 229
5.113 3.187 -1.779 51 127 229
-10.454 8.902 -1.029 51 127 229
6.093 11.680 -2.003 51 127 229
15.136 5.495 -1.792 51 127 229
11.397 -23.474 -0.297 89 89 89
-8.662 13.694 -1.144 51 127 229
13.220 5.189 -1.828 51 127 229
13.052 -17.243 -0.846 51 127 229
5.106 9.660 -2.031 51 127 229
0.174 5.471 -1.944 51 127 229
3.014 3.885 -1.918 51 127 229
6.640 -8.420 -1.207 51 127 229
-1.618 -5.558 -1.515 51 127 229
-3.372 -2.566 -1.662 51 127 229
-15.093 -3.330 -1.830 51 127 229
-7.208 3.962 -2.178 51 127 229
5.480 -4.896 -1.474 51 127 229
17.353 -15.254 -1.075 51 127 229
4.025 -2.477 -1.582 51 127 229
8.883 20.437 -2.438 51 127 229
-1.408 -5.474 -1.516 51 127 229
2.648 -6.703 -1.428 51 127 229
-0.784 -6.981 -0.175 51 127 229
22.507 -20.550 -0.942 89 89 89
-1.992 4.973 -1.991 51 127 229
-25.698 -14.598 -0.458 165 165 165
-1.036 -5.341 -1.517 51 127 229
27.083 22.878 -0.943 51 127 229
-13.714 6.682 -2.174 51 127 229
10.960 -23.620 -0.428 89 89 89
9.118 18.435 0.394 51 127 229
4.467 -2.233 -1.597 51 127 229
12.137 24.851 -2.365 51 127 229
11.978 -23.337 0.332 89 89 89
-29.645 2.456 -2.434 51 127 229
11.183 -2.570 -1.549 51 127 229
0.291 -14.673 -1.272 51 127 229
-9.708 13.388 -0.083 51 127 229
-13.794 39.051 -0.692 51 127 229
10.650 -4.389 -1.465 51 127 229
-6.019 -11.900 -1.629 51 127 229
-12.124 -4.988 -0.214 51 127 229
4.764 -1.869 -1.594 51 127 229
-12.448 6.907 0.599 51 127 229
-3.065 -3.194 -1.619 51 127 229
2.121 6.013 -1.902 51 127 229
0.432 9.756 -2.181 51 127 229
13.158 -19.753 -0.376 51 127 229
-1.915 -5.574 -1.489 51 127 229
34.337 -24.330 0.868 89 89 89
-2.921 -2.773 -1.643 51 127 229
4.395 -0.954 -1.675 51 127 229
-17.492 7.702 -0.275 51 127 229
0.475 -8.433 -1.380 51 127 229
2.348 -5.753 -1.441 51 127 229
2.158 4.110 -1.943 51 127 229
6.647 -3.611 -1.400 51 127 229
11.832 -33.017 -0.476 89 89 89
-25.462 6.405 -0.723 51 127 229
-1.216 -3.915 -1.546 51 127 229
2.685 4.243 -1.961 51 127 229
-1.289 5.453 -1.977 51 127 229
-9.814 -22.018 -2.548 165 165 165
16.706 2.987 -1.578 51 127 229
-3.469 16.109 -2.688 51 127 229
6.242 17.793 -1.563 51 127 229
-0.348 -4.294 -1.516 51 127 229
-5.362 -0.150 -1.749 51 127 229
-1.932 8.625 -2.125 51 127 229
6.482 -8.453 -1.268 51 127 229
4.373 3.130 -1.807 51 127 229
7.579 11.419 -0.432 51 127 229
-6.159 14.575 -2.714 51 127 229
21.720 4.541 -1.586 51 127 229
-12.475 6.905 0.445 51 127 229
31.652 -19.401 -0.068 51 127 229
5.720 -0.311 -1.647 51 127 229
2.657 -3.146 -1.558 51 127 229
-14.898 7.070 -1.952 51 127 229
-8.951 -1.324 -1.880 51 127 229
-13.213 8.172 0.646 51 127 229
-15.314 36.164 1.065 51 127 229
5.603 -4.378 -1.486 51 127 229
-8.290 6.101 -2.185 51 127 229
1.572 4.185 -1.981 51 127 229
-15.275 -0.074 -1.914 51 127 229
10.971 -23.841 -0.433 89 89 89
0.405 4.419 -1.957 51 127 229
9.816 22.776 -2.416 51 127 229
1.360 -10.708 -1.323 51 127 229
-8.728 -4.820 -0.650 51 127 229
0.333 5.006 -1.951 51 127 229
0.182 -9.695 -1.358 51 127 229
-8.695 11.370 -1.768 51 127 229
5.995 3.894 -1.853 51 127 229
2.878 -6.860 -1.420 51 127 229
2.192 4.397 -1.918 51 127 229
13.658 17.162 -2.115 51 127 229
4.026 6.667 -1.355 51 127 229
-3.888 -2.157 -1.713 51 127 229
-15.442 -3.957 -1.698 51 127 229
4.779 -0.726 -1.650 51 127 229
-10.334 8.186 -1.763 51 127 229
10.205 -1.263 -1.602 51 127 229
8.272 -5.381 -1.413 51 127 229
-8.219 12.199 -0.234 51 127 229
-23.825 -20.802 -2.243 165 165 165
-1.443 -21.920 0.344 51 127 229
-0.877 10.416 -1.847 51 127 229
3.532 6.006 -1.879 51 127 229
1.130 5.619 -1.941 51 127 229
4.404 -4.016 -1.504 51 127 229
4.086 6.289 -1.876 51 127 229
8.226 -0.770 -1.644 51 127 229
15.631 1.605 -1.548 51 127 229
6.891 15.323 -2.290 51 127 229
5.438 2.139 -1.712 51 127 229
5.719 15.641 -0.172 51 127 229
6.177 -25.857 -0.921 51 127 229
-10.082 -4.596 -1.454 51 127 229
6.017 -4.283 -1.487 51 127 229
0.429 5.456 -1.945 51 127 229
3.596 -8.352 -1.358 51 127 229
-13.617 10.158 -0.515 51 127 229
-17.528 -0.124 -1.986 51 127 229
-8.695 10.756 -0.631 51 127 229
0.668 10.844 -2.249 51 127 229
14.740 32.153 -2.656 51 127 229
4.675 -1.502 -1.618 51 127 229
8.230 -0.136 -1.643 51 127 229
9.501 6.953 -1.771 51 127 229
-9.912 7.896 -1.092 51 127 229
3.588 -5.359 -1.440 51 127 229
-8.831 13.989 0.021 51 127 229
-6.015 4.320 -2.076 51 127 229
-3.110 11.125 0.550 51 127 229
-35.087 1.306 -2.476 51 127 229
-2.277 9.944 -2.276 51 127 229
34.310 -12.623 -0.551 51 127 229
-15.327 7.300 -0.228 51 127 229
-11.528 7.541 -0.155 51 127 229
27.476 13.260 0.295 51 127 229
12.800 5.596 -1.860 51 127 229
7.485 2.008 -1.687 51 127 229
-11.869 7.678 -1.322 51 127 229
-12.554 10.492 0.504 51 127 229
0.811 -5.092 0.182 51 127 229
0.263 -3.839 -1.538 51 127 229
15.146 6.327 -1.832 51 127 229
-9.705 -7.769 -2.035 51 127 229
-15.887 -11.969 -2.645 51 127 229
-5.560 4.080 -2.074 51 127 229
-8.602 12.871 -1.925 51 127 229
-13.934 2.456 -2.157 51 127 229
-9.241 9.835 -1.170 51 127 229
1.291 -11.966 -1.283 51 127 229
-1.568 -3.716 -1.563 51 127 229
3.086 3.069 -1.813 51 127 229
-10.262 10.411 -1.972 51 127 229
-7.726 17.571 -1.254 51 127 229
4.251 -3.009 -1.562 51 127 229
-6.724 0.701 -1.943 51 127 229
-13.779 -2.257 -1.896 51 127 229
-11.396 10.308 0.652 51 127 229
0.156 5.939 -1.948 51 127 229
-0.380 -4.381 -1.503 51 127 229
7.000 11.665 -1.762 51 127 229
6.506 -0.157 -1.643 51 127 229
2.203 3.668 -1.940 51 127 229
0.569 5.262 -1.939 51 127 229
-10.613 -26.781 -2.365 165 165 165
6.834 -3.693 -1.160 51 127 229
7.136 -3.193 -1.366 51 127 229
34.366 -14.886 0.161 51 127 229
12.462 -2.187 -1.642 51 127 229
-9.045 9.240 -0.739 51 127 229
14.096 3.014 -1.653 51 127 229
0.020 -9.188 -1.368 51 127 229
-10.222 7.786 -1.714 51 127 229
-12.617 6.767 0.104 51 127 229
-34.751 8.583 -1.902 51 127 229
-1.787 10.729 -0.188 51 127 229
16.971 -18.623 -0.734 89 89 89
-22.232 -18.637 0.986 165 165 165
-7.696 14.828 -1.182 51 127 229
6.997 -25.656 0.529 51 127 229
-9.789 8.878 -1.062 51 127 229
12.124 -5.048 -1.462 51 127 229
7.061 17.832 -2.077 51 127 229
-11.885 11.583 0.591 51 127 229
-9.729 9.921 0.453 51 127 229
2.846 -5.099 -1.460 51 127 229
-32.157 6.632 -2.507 51 127 229
-2.215 4.196 -2.098 51 127 229
7.706 18.335 0.246 51 127 229
-12.769 5.409 -2.242 51 127 229
-5.318 -11.239 0.183 51 127 229
-15.233 6.671 -1.085 51 127 229
0.332 15.629 -2.548 51 127 229
27.034 22.930 -1.175 51 127 229
-36.257 -31.087 -0.334 165 165 165
-1.580 -4.849 -1.532 51 127 229
0.702 -7.887 -1.353 51 127 229
0.930 -4.355 -0.056 51 127 229
-8.816 16.528 0.580 51 127 229
-3.232 5.078 -2.049 51 127 229
-9.779 -4.293 -0.785 51 127 229
13.793 11.054 -1.893 51 127 229
21.557 28.404 -2.443 51 127 229
5.570 -6.767 -1.387 51 127 229
-13.114 39.222 -0.403 51 127 229
4.834 -5.455 -1.456 51 127 229
-13.362 6.566 -1.947 51 127 229
5.740 -2.051 -1.564 51 127 229
4.905 1.017 -1.694 51 127 229
7.582 -0.728 -1.635 51 127 229
11.924 2.668 -1.685 51 127 229
-8.009 6.840 -2.156 51 127 229
-0.804 -6.962 -0.432 51 127 229
-26.232 6.766 0.192 51 127 229
-25.663 3.842 -2.415 51 127 229
11.054 -7.941 -1.110 51 127 229
13.997 15.894 -0.493 51 127 229
4.752 1.707 -1.718 51 127 229
2.806 9.792 -2.106 51 127 229
4.613 -4.127 -1.514 51 127 229
6.896 1.467 -1.655 51 127 229
13.092 -17.314 -0.725 51 127 229
7.780 -5.205 -1.423 51 127 229
14.309 -0.744 -1.558 51 127 229
-12.167 8.284 0.108 51 127 229
-10.448 -11.214 0.653 51 127 229
-8.111 12.503 -0.238 51 127 229
1.664 4.312 -1.997 51 127 229
3.001 -3.985 -1.523 51 127 229
33.596 13.566 -1.624 51 127 229
26.079 -0.706 -1.410 51 127 229
30.893 -8.820 0.947 51 127 229
4.638 2.432 -1.751 51 127 229
-12.997 7.811 -0.717 51 127 229
3.002 -5.270 -1.470 51 127 229
6.920 -3.552 -0.773 51 127 229
-4.495 8.121 -2.129 51 127 229
27.400 -35.574 0.174 89 89 89
2.043 -8.412 -1.357 51 127 229
-10.587 -9.783 0.703 51 127 229
4.658 -2.123 -1.592 51 127 229
-12.605 10.718 -0.093 51 127 229
5.832 -25.722 -1.063 51 127 229
-7.624 -13.240 -0.489 51 127 229
3.736 -2.844 -1.564 51 127 229
21.198 -5.695 -0.490 51 127 229
-5.571 8.024 -2.163 51 127 229
-3.451 -3.754 -1.612 51 127 229
1.237 9.013 -2.102 51 127 229
7.355 7.323 -1.827 51 127 229
-5.242 -8.506 -1.597 51 127 229
-2.975 4.788 -2.027 51 127 229
-10.739 5.205 -2.206 51 127 229
18.398 2.618 -1.513 51 127 229
6.333 -5.338 -1.442 51 127 229
-6.650 -5.040 -1.708 51 127 229
-8.142 17.620 -1.175 51 127 229
0.010 -5.400 -1.431 51 127 229
-8.045 15.270 -0.819 51 127 229
-6.629 -6.153 -1.696 51 127 229
-20.050 -26.563 -1.581 165 165 165
-0.449 7.860 -1.970 51 127 229
5.894 1.828 -1.689 51 127 229
-9.779 4.305 -2.183 51 127 229
12.443 -29.046 1.123 89 89 89
5.559 -17.482 -0.783 51 127 229
15.130 9.719 -1.926 51 127 229
1.061 -5.152 -1.385 51 127 229
24.258 6.634 -1.660 51 127 229
-16.860 -14.206 -2.956 51 127 229
-8.395 10.914 -0.700 51 127 229
-2.167 5.269 -2.001 51 127 229
16.156 -0.901 -1.486 51 127 229
-12.233 6.428 -2.234 51 127 229
-6.483 4.094 -2.097 51 127 229
-3.147 14.542 -2.550 51 127 229
-1.666 10.746 -0.067 51 127 229
8.230 -0.446 -1.642 51 127 229
-5.400 3.639 -2.078 51 127 229
6.504 11.916 -1.338 51 127 229
23.018 -1.403 -1.382 51 127 229
-9.336 10.359 -1.473 51 127 229
-23.434 -15.628 -0.080 165 165 165
-13.650 3.491 -2.281 51 127 229
-2.392 -5.297 -1.530 51 127 229
-36.446 9.917 -2.472 51 127 229
-2.908 -16.664 -0.979 51 127 229
-9.977 -12.325 0.541 165 165 165
-7.374 4.002 -2.153 51 127 229
6.840 -3.739 -0.828 51 127 229
3.431 -3.034 -1.569 51 127 229
-2.808 -13.987 0.761 51 127 229
-1.260 10.689 -1.624 51 127 229
-0.331 -5.283 -1.466 51 127 229
6.990 -3.459 -0.171 51 127 229
-21.393 -4.209 -1.057 51 127 229
-13.042 39.988 0.817 51 127 229
7.559 -10.669 -1.289 51 127 229
-7.531 13.429 -1.257 51 127 229
5.569 -4.406 -1.484 51 127 229
2.351 -7.080 -1.423 51 127 229
6.337 11.919 -0.426 51 127 229
-7.259 13.777 -2.669 51 127 229
-3.353 -13.727 -1.473 51 127 229
-15.507 -4.507 -1.628 51 127 229
-13.429 38.862 0.801 51 127 229
13.175 13.337 -0.539 51 127 229
-12.527 -28.263 -2.372 165 165 165
13.679 -9.047 -0.789 51 127 229
0.861 -4.724 0.099 51 127 229
4.316 2.065 -1.731 51 127 229
5.182 1.609 -1.699 51 127 229
-9.768 -6.015 -1.373 51 127 229
-8.888 0.426 -2.013 51 127 229
-3.162 -15.467 0.639 51 127 229
-4.954 5.738 -2.014 51 127 229
-6.138 -12.641 -1.381 51 127 229
-2.162 12.090 -0.160 51 127 229
-0.147 -4.669 -1.506 51 127 229
-9.237 -15.275 0.475 165 165 165
27.020 22.562 1.168 51 127 229
7.601 -1.397 -1.588 51 127 229
5.163 0.495 -1.654 51 127 229
-3.569 -5.701 -0.732 51 127 229
-6.775 7.835 -2.206 51 127 229
-4.652 -5.666 -1.603 51 127 229
-25.148 -15.197 -0.454 165 165 165
-1.027 -3.589 -1.597 51 127 229
1.977 -3.410 -1.569 51 127 229
1.524 7.052 -1.884 51 127 229
-12.093 1.191 -2.060 51 127 229
-3.132 4.190 -2.036 51 127 229
28.123 38.619 -2.508 51 127 229
-10.134 5.910 -2.168 51 127 229
-8.625 12.399 0.655 51 127 229
19.468 9.181 -1.792 51 127 229
2.984 -4.683 -1.475 51 127 229
6.903 5.279 -1.846 51 127 229
-7.010 -4.664 -1.727 51 127 229
7.063 -26.867 -1.134 51 127 229
-10.285 -34.937 0.669 51 127 229
-4.491 -8.219 -1.556 51 127 229
11.216 7.135 -1.863 51 127 229
0.430 -15.248 -1.238 51 127 229
-12.056 10.647 0.675 51 127 229
-12.220 6.809 -0.565 51 127 229
-1.513 4.694 -1.984 51 127 229
-5.281 -5.282 -1.640 51 127 229
36.220 -29.395 1.808 89 89 89
-2.222 -6.102 -1.459 51 127 229
-6.763 0.044 -1.943 51 127 229
-3.606 -10.877 -1.499 51 127 229
-7.592 -5.557 -1.774 51 127 229
-1.452 5.281 -1.990 51 127 229
0.167 -6.768 -1.390 51 127 229
14.865 -17.131 -0.239 51 127 229
4.996 6.372 -1.861 51 127 229
-5.973 1.166 -1.971 51 127 229
26.332 -35.081 -0.370 89 89 89
-3.431 -2.496 -1.666 51 127 229
5.622 6.957 -1.835 51 127 229
-3.218 -5.792 -1.498 51 127 229
-12.091 7.644 -2.027 51 127 229
1.254 -12.813 -1.250 51 127 229
-8.966 11.133 -1.594 51 127 229
-10.099 7.981 -0.956 51 127 229
-0.069 -4.261 -1.494 51 127 229
-13.702 1.580 -2.102 51 127 229
15.682 21.156 -2.085 51 127 229
-1.301 -3.556 -1.589 51 127 229
-4.383 4.037 -2.062 51 127 229
5.188 -5.747 -1.422 51 127 229
-18.531 -4.342 -0.307 51 127 229
12.452 8.287 -1.841 51 127 229
-1.408 -22.104 -0.714 51 127 229
-9.980 11.371 0.650 51 127 229
2.394 4.112 -1.947 51 127 229
-0.641 -3.953 -1.530 51 127 229
-1.047 7.358 -2.000 51 127 229
8.342 -3.468 -1.457 51 127 229
-14.616 6.864 -0.490 51 127 229
0.475 -8.005 -1.373 51 127 229
-7.381 -1.367 -1.836 51 127 229
-1.132 10.324 0.400 51 127 229
37.751 -6.497 -0.790 51 127 229
7.167 -6.276 -1.117 51 127 229
-3.702 -5.518 -0.770 51 127 229
6.675 18.386 -2.471 51 127 229
3.810 -6.406 -1.426 51 127 229
-6.433 4.601 -2.095 51 127 229
-11.725 4.375 -2.211 51 127 229
-10.247 -4.100 -1.100 51 127 229
-1.589 5.253 -1.992 51 127 229
0.800 -5.054 0.025 51 127 229
13.473 15.849 -0.250 51 127 229
-9.906 -11.502 -0.107 51 127 229
-4.971 4.316 -2.052 51 127 229
-8.436 16.199 -2.421 51 127 229
27.731 -34.174 1.452 89 89 89
7.274 1.967 -1.700 51 127 229
3.142 15.318 -2.395 51 127 229
6.234 0.254 -1.630 51 127 229
-1.988 -3.354 -1.614 51 127 229
-18.203 -4.332 -1.444 51 127 229
-12.350 4.259 -2.220 51 127 229
22.336 1.215 -1.448 51 127 229
-13.290 -27.292 -2.505 165 165 165
-9.737 -11.642 -0.028 51 127 229
0.467 8.877 -2.052 51 127 229
-8.586 14.262 -2.267 51 127 229
27.111 -16.720 -0.795 51 127 229
9.354 7.289 -1.786 51 127 229
-6.818 5.068 -2.096 51 127 229
5.539 -2.435 -1.547 51 127 229
11.868 -4.431 -1.492 51 127 229
7.144 9.985 -1.981 51 127 229
6.130 -4.153 -1.493 51 127 229
-5.461 4.470 -2.057 51 127 229
1.343 4.523 -1.928 51 127 229
-9.040 -1.473 -1.904 51 127 229
17.864 -2.002 -1.447 51 127 229
2.016 -3.394 -1.572 51 127 229
8.165 -3.787 -1.450 51 127 229
-10.682 7.762 -2.131 51 127 229
-8.235 15.228 -1.540 51 127 229
-12.988 8.220 -0.266 51 127 229
5.558 4.781 -1.825 51 127 229
-12.174 -0.062 -1.892 51 127 229
3.132 -7.011 -1.400 51 127 229
-9.631 2.568 -2.106 51 127 229
35.328 -33.659 0.160 89 89 89
11.806 -4.513 -1.488 51 127 229
1.327 -7.038 -1.417 51 127 229
-9.493 8.341 -0.419 51 127 229
12.740 11.575 -0.053 51 127 229
10.327 1.630 -1.645 51 127 229
-5.923 1.302 -1.965 51 127 229
5.763 1.592 -1.675 51 127 229
-2.715 7.108 -0.869 51 127 229
-2.679 7.040 -0.493 51 127 229
-0.096 -16.288 -1.235 51 127 229
-5.680 -3.134 -1.695 51 127 229
2.901 -2.691 -1.629 51 127 229
11.336 6.667 -1.840 51 127 229
8.380 3.189 -1.736 51 127 229
0.873 -3.711 -1.558 51 127 229
-1.159 4.352 -2.009 51 127 229
15.518 -4.052 -1.568 51 127 229
-0.973 4.789 -1.975 51 127 229
0.739 4.336 -1.989 51 127 229
-12.263 6.983 -1.898 51 127 229
7.924 11.212 0.653 51 127 229
36.435 12.574 -0.609 51 127 229
2.792 9.296 -2.084 51 127 229
-13.675 -5.145 -0.724 51 127 229
2.931 -7.080 -1.396 51 127 229
2.743 12.418 -2.266 51 127 229
8.415 -1.979 -1.536 51 127 229
-9.107 10.559 -0.551 51 127 229
-12.505 2.860 -2.178 51 127 229
2.228 -8.078 -1.370 51 127 229
-13.636 0.443 -2.081 51 127 229
2.850 -2.772 -1.592 51 127 229
0.161 4.391 -1.981 51 127 229
-2.739 -5.805 -1.510 51 127 229
11.608 10.722 -1.959 51 127 229
0.853 -4.826 0.184 51 127 229
17.411 7.118 -1.777 51 127 229
-10.718 9.819 0.283 51 127 229
-7.029 0.583 -1.953 51 127 229
12.439 -14.065 -1.270 51 127 229
-1.970 -3.639 -1.579 51 127 229
0.551 -4.109 -1.493 51 127 229
-6.479 8.030 -2.198 51 127 229
1.339 6.234 -1.901 51 127 229
4.051 -5.482 -1.462 51 127 229
-3.804 -13.235 -1.500 51 127 229
11.168 -10.430 -1.081 51 127 229
0.065 -11.111 -1.318 51 127 229
2.402 5.936 -1.911 51 127 229
-2.715 10.116 -2.246 51 127 229
5.318 2.111 -1.735 51 127 229
7.133 -3.214 -1.096 51 127 229
2.391 3.577 -1.905 51 127 229
4.722 -2.275 -1.584 51 127 229
27.302 9.310 0.995 51 127 229
1.392 5.749 -1.944 51 127 229
4.178 2.786 -1.772 51 127 229
4.057 -2.437 -1.585 51 127 229
-1.546 -6.892 -1.400 51 127 229
-0.378 -21.168 -1.190 51 127 229
-3.029 -13.424 -1.428 51 127 229
7.334 7.347 -1.827 51 127 229
4.733 -5.543 -1.456 51 127 229
-12.908 6.222 -0.503 51 127 229
3.710 9.092 -2.027 51 127 229
3.491 4.453 -1.963 51 127 229
9.545 14.846 -2.213 51 127 229
13.255 -27.533 1.092 89 89 89
-1.396 10.204 -1.651 51 127 229
0.102 -4.180 -1.460 51 127 229
5.217 -2.403 -1.557 51 127 229
-2.863 -7.367 -1.450 51 127 229
4.263 -1.839 -1.612 51 127 229
-19.899 -4.034 0.027 51 127 229
-7.054 0.197 -1.953 51 127 229
13.092 -19.269 0.883 51 127 229
-11.968 8.246 -1.185 51 127 229
17.822 -17.818 -0.423 51 127 229
-13.517 -2.643 -1.867 51 127 229
2.768 -3.066 -1.564 51 127 229
-9.789 8.753 -0.977 51 127 229
-3.571 4.153 -2.011 51 127 229
6.044 -3.777 -1.495 51 127 229
2.641 8.534 -1.991 51 127 229
6.045 -0.790 -1.638 51 127 229
35.331 -31.214 0.161 89 89 89
1.884 -7.431 -1.395 51 127 229
13.127 0.057 -1.571 51 127 229
-25.394 6.682 -0.722 51 127 229
17.167 -12.400 -0.590 51 127 229
9.398 1.738 -1.651 51 127 229
-21.583 -20.613 -2.102 165 165 165
3.570 -8.359 -1.357 51 127 229
5.365 -0.117 -1.656 51 127 229
15.508 -1.046 -1.521 51 127 229
-13.651 -5.277 -0.800 51 127 229
-16.003 -4.585 -0.045 51 127 229
-31.060 6.876 -0.718 51 127 229
4.415 10.123 -2.055 51 127 229
-31.885 -1.707 -2.271 51 127 229
3.405 4.905 -1.908 51 127 229
9.803 2.577 -1.687 51 127 229
-16.143 1.506 -2.143 51 127 229
0.952 -4.438 -0.254 51 127 229
-10.582 -11.473 0.835 51 127 229
33.738 13.933 -1.638 51 127 229
6.674 25.456 -2.747 51 127 229
-3.467 4.325 -2.039 51 127 229
-7.628 3.319 -2.131 51 127 229
-3.997 3.169 -2.000 51 127 229
-7.529 0.084 -1.973 51 127 229
-6.466 -0.732 -1.785 51 127 229
4.588 1.544 -1.689 51 127 229
6.070 3.528 -1.816 51 127 229
18.328 -17.871 -0.125 89 89 89
-6.893 -3.842 -1.685 51 127 229
3.738 -2.691 -1.583 51 127 229
4.581 -6.721 -1.403 51 127 229
-8.565 14.593 -2.308 51 127 229
17.869 4.463 -1.618 51 127 229
-0.512 -8.101 -1.320 51 127 229
-3.965 -4.171 -1.576 51 127 229
19.385 10.720 -1.446 51 127 229
-7.436 -1.599 -1.779 51 127 229
-3.798 -2.276 -1.703 51 127 229
-22.275 -1.984 -1.922 51 127 229
-12.512 -3.927 -1.669 51 127 229
-7.119 1.400 -1.965 51 127 229
-0.443 11.055 -2.290 51 127 229
2.757 3.154 -1.851 51 127 229
-12.066 7.821 -0.581 51 127 229
-12.056 6.592 -1.784 51 127 229
31.055 -6.052 -0.233 51 127 229
-23.075 -22.343 -2.468 165 165 165
-7.975 13.871 -1.022 51 127 229
2.893 8.053 -1.975 51 127 229
-38.025 -30.916 -2.709 165 165 165
1.778 -15.675 -1.191 51 127 229
5.184 3.935 -1.852 51 127 229
-10.429 -1.383 -1.887 51 127 229
15.822 2.207 -1.578 51 127 229
7.054 -12.638 -1.265 51 127 229
1.291 9.511 -2.143 51 127 229
2.232 5.220 -1.925 51 127 229
-0.896 -4.257 -1.540 51 127 229
-0.874 -7.025 0.464 51 127 229
-18.056 -19.964 -2.871 165 165 165
7.210 12.849 -0.293 51 127 229
1.072 -5.400 -1.365 51 127 229
-5.424 6.316 -2.061 51 127 229
5.360 -2.426 -1.557 51 127 229
-26.927 11.754 -1.004 51 127 229
-3.843 3.421 -2.024 51 127 229
10.321 -6.089 -1.105 51 127 229
-14.712 7.596 -1.374 51 127 229
6.542 2.221 -1.697 51 127 229
26.856 24.921 -2.078 51 127 229
-6.255 -12.624 -0.767 51 127 229
4.928 17.731 -0.751 51 127 229
-12.582 10.733 -0.206 51 127 229
22.283 7.960 -1.708 51 127 229
-24.637 -15.509 1.132 165 165 165
-13.689 8.599 -0.857 51 127 229
2.309 3.805 -1.922 51 127 229
10.257 -0.670 -1.605 51 127 229
-5.838 -2.892 -1.705 51 127 229
6.280 -25.914 -0.433 51 127 229
14.566 5.022 -1.785 51 127 229
5.922 -8.997 -1.330 51 127 229
-8.408 13.384 -1.690 51 127 229
1.990 4.329 -1.950 51 127 229
14.424 12.695 -1.954 51 127 229
-8.267 -1.456 -1.884 51 127 229
15.507 15.551 -1.980 51 127 229
6.054 -4.624 -1.475 51 127 229
11.840 -23.450 0.042 89 89 89
5.341 3.406 -1.797 51 127 229
-5.279 -1.428 -1.834 51 127 229
2.203 -3.380 -1.557 51 127 229
2.563 -5.893 -1.431 51 127 229
-0.164 -9.180 -1.367 51 127 229
-2.490 6.384 -1.944 51 127 229
-17.845 7.614 0.645 51 127 229
3.930 -7.788 -1.373 51 127 229
-7.879 14.048 -0.951 51 127 229
3.034 8.161 -1.939 51 127 229
-15.776 -11.847 -2.622 51 127 229
11.927 -30.227 -0.199 89 89 89
-2.378 -9.229 -1.427 51 127 229
-7.244 -2.962 -1.742 51 127 229
12.450 2.631 -1.671 51 127 229
38.080 10.556 -1.561 51 127 229
5.697 2.657 -1.730 51 127 229
-9.177 10.094 -0.622 51 127 229
2.197 -9.356 -1.347 51 127 229
1.025 -4.180 -0.819 51 127 229
-14.030 38.937 -0.692 51 127 229
-3.606 -5.613 -0.885 51 127 229
2.452 3.516 -1.898 51 127 229
-0.408 -3.937 -1.507 51 127 229
-3.038 -5.531 -1.557 51 127 229
-8.151 11.075 0.521 51 127 229
-5.182 -17.026 -1.589 51 127 229
-20.545 5.345 -2.338 51 127 229
27.398 -36.038 0.174 89 89 89
3.995 -3.993 -1.511 51 127 229
35.130 -5.939 -0.538 51 127 229
6.940 -3.515 -0.880 51 127 229
37.438 27.253 0.907 51 127 229
0.634 -17.962 -1.179 51 127 229
-8.845 -2.259 -1.817 51 127 229
-10.622 -34.916 -1.540 51 127 229
0.063 -4.203 -1.470 51 127 229
9.122 18.525 0.658 51 127 229
11.512 -8.457 -0.919 51 127 229
-13.022 7.587 -1.064 51 127 229
-14.510 -15.043 -2.789 165 165 165
7.566 8.394 -1.914 51 127 229
-10.282 8.877 -1.433 51 127 229
1.792 -14.831 -1.210 51 127 229
10.998 -23.778 -0.758 89 89 89
-0.249 -5.142 -1.474 51 127 229
-0.898 5.490 -1.966 51 127 229
5.989 1.207 -1.665 51 127 229
11.563 -12.011 -1.297 51 127 229
11.042 -4.524 -1.472 51 127 229
-4.891 2.397 -1.965 51 127 229
7.486 1.983 -1.685 51 127 229
17.343 -17.701 -0.558 89 89 89
3.826 -10.345 -1.312 51 127 229
-34.432 -3.614 -2.083 51 127 229
0.301 -4.628 -1.490 51 127 229
-0.082 5.791 -1.955 51 127 229
8.536 -2.452 -1.502 51 127 229
5.342 -2.816 -1.540 51 127 229
-0.669 -7.063 0.165 51 127 229
-6.356 3.438 -2.100 51 127 229
-0.651 -7.155 0.032 51 127 229
0.433 -4.183 -1.466 51 127 229
-2.960 10.995 -2.355 51 127 229
-31.914 6.547 -0.153 51 127 229
13.168 13.621 -0.078 51 127 229
-9.224 11.340 -1.280 51 127 229
-4.163 -8.202 -1.525 51 127 229
-12.036 8.922 0.282 51 127 229
6.256 0.038 -1.632 51 127 229
-9.662 -17.563 -2.435 165 165 165
17.821 -18.332 -1.210 89 89 89
-3.382 -2.740 -1.659 51 127 229
4.681 2.312 -1.743 51 127 229
4.949 3.295 -1.818 51 127 229
13.019 16.454 0.255 51 127 229
-0.684 -7.132 -0.269 51 127 229
-12.295 6.370 0.104 51 127 229
10.212 8.795 -1.895 51 127 229
-11.596 7.598 -0.226 51 127 229
8.661 17.535 -2.333 51 127 229
-2.753 -2.663 -1.659 51 127 229
2.158 3.778 -1.927 51 127 229
-8.116 3.978 -2.142 51 127 229
-11.170 -12.452 0.272 51 127 229
27.076 -16.758 -0.795 51 127 229
-5.831 -1.231 -1.812 51 127 229
-9.608 -12.051 0.171 165 165 165
8.431 2.121 -1.674 51 127 229
12.187 -0.360 -1.581 51 127 229
3.226 19.531 -2.727 51 127 229
-26.289 -34.029 -2.650 165 165 165
6.755 -8.200 -1.120 51 127 229
5.426 -5.251 -1.456 51 127 229
-3.699 -2.172 -1.695 51 127 229
-0.570 4.497 -1.987 51 127 229
4.796 0.194 -1.652 51 127 229
3.000 3.905 -1.920 51 127 229
-7.725 9.630 -2.292 51 127 229
6.813 -6.721 -0.989 51 127 229
14.834 -1.632 -1.542 51 127 229
3.291 -3.789 -1.534 51 127 229
-19.805 2.781 -2.310 51 127 229
17.105 16.300 -1.992 51 127 229
-1.333 -3.555 -1.594 51 127 229
-2.738 5.420 -2.026 51 127 229
19.815 -18.071 -1.113 89 89 89
-4.710 2.902 -2.006 51 127 229
6.674 15.426 -2.292 51 127 229
10.752 -3.335 -1.512 51 127 229
2.521 -3.263 -1.558 51 127 229
-1.009 -7.070 -0.790 51 127 229
-6.439 6.734 -2.128 51 127 229
5.561 -6.411 -1.401 51 127 229
19.406 2.150 -1.482 51 127 229
20.434 13.726 -1.933 51 127 229
3.900 -1.622 -1.630 51 127 229
-14.675 -14.967 -1.782 51 127 229
0.516 -4.403 -1.458 51 127 229
2.733 3.095 -1.868 51 127 229
-3.553 -5.778 -1.031 51 127 229
-2.372 10.700 0.531 51 127 229
-2.761 4.714 -2.020 51 127 229
30.177 -12.126 -0.824 51 127 229
3.693 9.872 -2.082 51 127 229
-1.268 6.349 -1.918 51 127 229
-1.567 -4.722 -1.539 51 127 229
0.486 -5.894 -1.429 51 127 229
16.658 -5.676 -1.514 51 127 229
20.141 16.077 -2.032 51 127 229
-2.535 -5.195 -1.523 51 127 229
11.360 17.330 0.154 51 127 229
-12.291 8.989 -1.073 51 127 229
1.892 -5.739 -1.461 51 127 229
11.044 11.994 -2.029 51 127 229
4.326 -8.526 -1.344 51 127 229
6.333 -4.247 -1.480 51 127 229
8.676 -2.260 -1.518 51 127 229
4.482 7.010 -1.847 51 127 229
-12.971 8.379 0.106 51 127 229
-5.943 -24.504 -1.581 51 127 229
0.728 4.699 -1.939 51 127 229
-10.615 6.250 -2.175 51 127 229
-1.324 -3.892 -1.552 51 127 229
-13.368 -5.101 0.807 51 127 229
-8.000 -32.260 -2.165 51 127 229
-6.212 -12.563 -1.196 51 127 229
-8.596 13.240 0.388 51 127 229
8.906 21.299 -2.532 51 127 229
24.326 -14.340 -1.033 51 127 229
16.159 -2.129 -1.495 51 127 229
-4.448 -4.380 -1.611 51 127 229
7.368 3.257 -1.766 51 127 229
0.321 -3.812 -1.528 51 127 229
-8.871 10.822 -0.553 51 127 229
10.751 9.101 -1.887 51 127 229
-1.478 -4.870 -1.528 51 127 229
-2.874 -4.311 -1.578 51 127 229
-7.652 -5.360 -1.762 51 127 229
0.906 -3.678 -1.547 51 127 229
2.865 -7.871 -1.371 51 127 229
-0.384 18.059 -2.778 51 127 229
16.134 -3.907 -1.522 51 127 229
-9.743 3.165 -2.169 51 127 229
3.688 -4.015 -1.515 51 127 229
-12.849 5.142 -2.238 51 127 229
4.780 6.453 -1.846 51 127 229
21.437 -6.087 -0.253 51 127 229
-6.308 -13.199 -0.734 51 127 229
7.757 3.146 -1.764 51 127 229
-1.834 -5.356 -1.522 51 127 229
19.368 9.889 -1.156 51 127 229
-12.376 2.572 -2.145 51 127 229
-0.311 11.294 0.076 51 127 229
-10.345 -34.936 -1.110 51 127 229
-0.834 -7.002 -0.010 51 127 229
-9.840 8.988 -0.833 51 127 229
-8.208 12.835 -1.892 51 127 229
-2.219 4.611 -2.007 51 127 229
13.061 7.517 -1.854 51 127 229
19.801 9.320 -1.048 51 127 229
-3.925 3.005 -1.977 51 127 229
-5.613 -6.658 -1.623 51 127 229
-1.896 5.927 -1.970 51 127 229
-14.255 -4.665 -0.751 51 127 229
-3.634 -5.601 0.472 51 127 229
-13.373 -1.511 -1.971 51 127 229
0.423 4.357 -1.976 51 127 229
3.159 -8.966 -1.332 51 127 229
15.776 5.391 -1.765 51 127 229
25.576 -12.248 -1.041 51 127 229
21.129 2.673 -1.512 51 127 229
4.995 1.053 -1.686 51 127 229
7.912 7.484 -1.839 51 127 229
3.414 2.278 -1.801 51 127 229
12.518 0.895 -1.582 51 127 229
-2.823 -2.766 -1.666 51 127 229
22.070 6.311 -1.650 51 127 229
2.413 7.549 -1.907 51 127 229
-0.188 -6.271 -1.394 51 127 229
4.196 -1.266 -1.705 51 127 229
8.095 -3.299 -1.470 51 127 229
4.777 0.412 -1.655 51 127 229
7.231 11.700 -0.841 51 127 229
-6.432 -0.350 -1.766 51 127 229
-9.056 10.079 -1.345 51 127 229
-13.489 13.742 0.432 51 127 229
5.169 5.699 -1.844 51 127 229
6.677 11.477 -0.007 51 127 229
31.642 -20.293 -0.071 51 127 229
-23.604 -16.675 -0.294 165 165 165
2.964 7.937 -1.954 51 127 229
14.224 17.834 -2.065 51 127 229
15.588 -15.431 0.200 51 127 229
-5.209 -5.632 -1.622 51 127 229
31.310 -18.250 -0.285 51 127 229
-2.154 4.206 -2.043 51 127 229
-0.708 -6.973 -0.642 51 127 229
-13.783 -4.552 -1.062 165 165 165
-7.284 -0.993 -1.797 51 127 229
7.771 15.194 -2.251 51 127 229
4.276 3.057 -1.808 51 127 229
-0.916 -4.255 -1.542 51 127 229
6.645 11.896 -1.001 51 127 229
29.982 16.427 -0.283 51 127 229
-3.770 -2.890 -1.648 51 127 229
-2.717 6.562 -0.586 51 127 229
4.364 -3.421 -1.551 51 127 229
10.295 1.162 -1.627 51 127 229
12.541 6.405 -1.815 51 127 229
-2.142 -5.747 -1.502 51 127 229
-17.565 -0.238 -1.990 51 127 229
-0.934 8.086 -2.037 51 127 229
-29.880 -13.644 0.835 165 165 165
8.271 9.019 -1.971 51 127 229
-8.942 11.141 -1.764 51 127 229
6.914 6.907 -1.802 51 127 229
-9.035 9.964 -1.247 51 127 229
7.022 -1.211 -1.650 51 127 229
-5.165 5.931 -2.026 51 127 229
4.827 15.997 -2.202 51 127 229
-4.229 -3.567 -1.647 51 127 229
4.735 -6.093 -1.414 51 127 229
27.302 8.786 0.992 51 127 229
-3.100 8.077 -2.073 51 127 229
-0.782 5.952 -1.962 51 127 229
-36.474 -5.800 0.452 51 127 229
5.664 0.886 -1.664 51 127 229
20.556 11.186 -1.826 51 127 229
7.074 -25.821 -0.438 51 127 229
2.360 -6.549 -1.434 51 127 229
-3.561 -5.814 0.183 51 127 229
6.683 -7.072 -1.185 51 127 229
9.399 2.219 -1.672 51 127 229
-4.713 2.409 -1.969 51 127 229
-2.894 -6.007 -1.506 51 127 229
13.187 -19.331 -0.085 51 127 229
14.857 0.986 -1.546 51 127 229
-8.406 17.389 -0.700 51 127 229
-5.539 -14.067 -0.207 51 127 229
6.438 -5.738 -1.368 51 127 229
-2.636 7.338 -0.658 51 127 229
-13.106 -22.444 -2.765 165 165 165
3.489 -3.347 -1.564 51 127 229
-3.535 -5.762 0.388 51 127 229
-4.243 -3.215 -1.649 51 127 229
-0.539 10.570 -2.275 51 127 229
-17.043 0.938 -2.154 51 127 229
3.054 2.654 -1.824 51 127 229
9.098 -7.621 -1.008 51 127 229
-28.955 11.231 -2.530 51 127 229
13.771 14.225 0.864 51 127 229
9.433 10.648 -2.013 51 127 229
-3.271 -8.215 -1.457 51 127 229
-9.006 12.495 0.567 51 127 229
4.247 -2.825 -1.575 51 127 229
12.762 4.012 -1.770 51 127 229
-3.346 -3.297 -1.617 51 127 229
5.156 -7.091 -1.385 51 127 229
-3.066 -7.100 -1.489 51 127 229
-1.208 -3.540 -1.606 51 127 229
-5.762 2.095 -1.994 51 127 229
-8.910 -4.258 -1.665 51 127 229
-13.960 2.483 -2.162 51 127 229
15.916 -26.252 -0.937 89 89 89
0.714 5.107 -1.945 51 127 229
6.552 4.049 -1.836 51 127 229
-1.956 -4.339 -1.562 51 127 229
-6.556 5.903 -2.097 51 127 229
-3.265 -2.560 -1.663 51 127 229
-2.936 -2.983 -1.627 51 127 229
-19.083 -2.175 -1.984 51 127 229
13.136 15.587 0.396 51 127 229
5.088 3.320 -1.795 51 127 229
-2.423 -5.459 -1.516 51 127 229
-1.933 -6.476 -1.451 51 127 229
-9.289 -9.503 -1.931 51 127 229
12.549 -23.478 -0.778 89 89 89
1.188 5.936 -1.934 51 127 229
-1.171 10.736 -0.707 51 127 229
34.698 -7.030 0.570 51 127 229
14.896 -3.789 -1.589 51 127 229
-19.108 -31.730 -2.432 51 127 229
-7.843 14.505 -0.192 51 127 229
-7.755 0.440 -1.974 51 127 229
8.609 17.858 -1.776 51 127 229
-23.637 -26.260 -2.952 165 165 165
-7.286 -4.149 -1.722 51 127 229
6.838 16.104 -2.312 51 127 229
-8.434 15.755 0.126 51 127 229
5.966 6.654 -1.833 51 127 229
6.028 -0.893 -1.637 51 127 229
-9.568 -6.796 -2.003 51 127 229
5.392 1.714 -1.710 51 127 229
-2.356 8.529 -2.126 51 127 229
7.344 11.595 -1.179 51 127 229
6.549 2.131 -1.691 51 127 229
-2.277 -5.856 -1.473 51 127 229
0.877 5.590 -1.961 51 127 229
-22.184 -4.020 -1.657 51 127 229
-11.938 7.619 -1.325 51 127 229
3.473 4.112 -1.916 51 127 229
3.257 3.246 -1.834 51 127 229
1.793 -3.380 -1.599 51 127 229
-4.600 -3.230 -1.682 51 127 229
-0.724 5.051 -1.973 51 127 229
-19.781 7.949 -2.571 51 127 229
3.057 -3.504 -1.538 51 127 229
-15.051 0.215 -2.152 51 127 229
-23.889 -16.219 0.413 165 165 165
-1.393 -22.080 -0.840 51 127 229
-0.060 -5.466 -1.452 51 127 229
-8.922 -34.113 -2.138 51 127 229
5.937 19.043 0.383 51 127 229
-29.145 0.107 -2.387 51 127 229
-8.685 10.614 0.186 51 127 229
18.077 1.392 -1.468 51 127 229
-2.392 4.084 -2.088 51 127 229
-4.349 3.171 -2.017 51 127 229
6.072 -0.209 -1.639 51 127 229
10.832 0.962 -1.605 51 127 229
4.384 -11.683 -1.283 51 127 229
-8.675 -5.591 -1.065 51 127 229
-26.758 3.754 -2.521 51 127 229
8.184 1.333 -1.666 51 127 229
-3.615 -5.594 -1.201 51 127 229
10.997 15.481 -2.161 51 127 229
-24.223 -3.131 -1.965 51 127 229
8.053 4.051 -1.836 51 127 229
2.809 4.780 -1.924 51 127 229
-10.325 7.544 -0.796 51 127 229
3.731 -10.058 -1.317 51 127 229
-13.590 -16.887 -2.802 165 165 165
4.396 -5.478 -1.457 51 127 229
0.147 -3.968 -1.503 51 127 229
3.605 4.430 -1.933 51 127 229
2.554 12.406 -2.256 51 127 229
3.272 -14.551 -1.211 51 127 229
0.887 -10.393 -1.344 51 127 229
-6.239 -7.639 -1.652 51 127 229
8.936 5.905 -1.802 51 127 229
-3.021 6.693 -1.963 51 127 229
-10.294 7.674 -0.737 51 127 229
-6.429 8.757 -2.233 51 127 229
-0.956 -7.021 -0.782 51 127 229
-4.020 10.392 -2.300 51 127 229
13.134 -19.824 -0.517 89 89 89
14.578 -5.282 -1.505 51 127 229
2.874 -2.706 -1.625 51 127 229
-9.365 18.244 -0.130 51 127 229
0.443 6.739 -1.883 51 127 229
-5.422 6.951 -2.102 51 127 229
1.622 -5.797 -1.456 51 127 229
-1.845 8.618 -2.119 51 127 229
-8.261 4.747 -2.169 51 127 229
6.584 -6.321 -1.287 51 127 229
2.320 5.171 -1.921 51 127 229
-25.534 -14.066 0.772 165 165 165
6.350 3.474 -1.792 51 127 229
5.260 3.784 -1.842 51 127 229
6.144 7.103 -1.841 51 127 229
6.763 -5.541 -1.315 51 127 229
-4.330 -2.984 -1.683 51 127 229
25.848 17.977 -1.391 51 127 229
5.458 -1.897 -1.574 51 127 229
-14.467 37.232 1.083 51 127 229
-1.205 10.703 -0.449 51 127 229
-8.997 5.842 -2.195 51 127 229
9.543 -15.615 -1.224 51 127 229
-7.219 -2.980 -1.738 51 127 229
2.884 -6.285 -1.425 51 127 229
15.322 18.471 -2.028 51 127 229
0.808 -5.106 0.054 51 127 229
16.188 -3.335 -1.516 51 127 229
4.669 10.725 -2.076 51 127 229
31.003 -11.289 -0.840 51 127 229
-31.374 -4.733 0.280 51 127 229
-14.453 -4.493 -1.217 51 127 229
3.274 5.284 -1.918 51 127 229
15.529 0.564 -1.525 51 127 229
-9.614 14.843 0.123 51 127 229
8.615 -14.912 -1.235 51 127 229
-3.865 -2.803 -1.659 51 127 229
2.493 3.453 -1.885 51 127 229
-8.146 6.311 -2.188 51 127 229
7.444 31.892 -2.831 51 127 229
17.556 -16.256 -1.247 51 127 229
9.806 2.462 -1.682 51 127 229
8.625 -8.526 -1.032 51 127 229
1.005 9.146 -2.127 51 127 229
-7.305 3.815 -2.182 51 127 229
-8.529 -3.192 -1.721 51 127 229
-5.055 -3.491 -1.657 51 127 229
3.093 -3.061 -1.579 51 127 229
-9.768 3.256 -2.180 51 127 229
-20.477 -15.280 -2.995 165 165 165
-4.067 -10.870 -1.523 51 127 229
-6.313 0.321 -1.936 51 127 229
-4.698 -11.839 -1.545 51 127 229
6.776 -1.436 -1.526 51 127 229
-0.747 -1.549 -0.583 51 127 229
-10.617 -9.688 0.702 51 127 229
-25.318 4.393 -2.389 51 127 229
-2.494 -4.120 -1.551 51 127 229
-3.987 -7.662 -1.499 51 127 229
3.023 -2.545 -1.629 51 127 229
4.805 0.278 -1.660 51 127 229
9.823 -17.525 -0.890 51 127 229
12.882 13.173 0.472 51 127 229
12.474 13.837 -0.075 51 127 229
9.785 -15.520 -1.229 51 127 229
-10.254 4.187 -2.165 51 127 229
-8.118 -6.595 -1.861 51 127 229
-2.513 -5.071 -1.529 51 127 229
-4.876 5.791 -2.013 51 127 229
34.357 -12.695 0.160 51 127 229
-15.066 -3.351 -1.828 51 127 229
3.137 5.350 -1.913 51 127 229
30.070 12.314 -1.644 51 127 229
-0.856 5.191 -1.971 51 127 229
-8.983 10.473 -2.352 51 127 229
0.849 4.546 -1.931 51 127 229
-15.493 36.042 -0.139 51 127 229
5.637 1.066 -1.667 51 127 229
4.582 -0.186 -1.669 51 127 229
5.640 2.921 -1.751 51 127 229
-9.923 8.659 -0.907 51 127 229
26.221 10.890 -1.763 51 127 229
-4.273 -12.942 0.086 51 127 229
-9.346 9.887 -1.181 51 127 229
0.260 -3.775 -1.553 51 127 229
11.151 -10.187 -1.066 51 127 229
1.117 -7.448 -1.366 51 127 229
4.906 6.405 -1.854 51 127 229
-4.284 5.435 -2.029 51 127 229
0.870 -4.694 0.216 51 127 229
-3.961 -2.283 -1.700 51 127 229
1.798 4.325 -1.961 51 127 229
-39.341 -30.845 -1.894 165 165 165
-1.787 10.563 0.457 51 127 229
-8.095 14.368 -1.863 51 127 229
17.477 19.794 -2.090 51 127 229
-14.481 -14.915 0.138 165 165 165
29.006 -10.891 0.688 51 127 229
1.209 -9.573 -1.351 51 127 229
0.560 5.428 -1.940 51 127 229
5.123 -2.842 -1.545 51 127 229
-9.862 -27.879 -2.260 51 127 229
4.907 -4.057 -1.495 51 127 229
-2.683 7.224 -0.414 51 127 229
-8.445 11.104 -1.044 51 127 229
-11.017 -6.279 -1.602 51 127 229
12.614 17.176 -0.262 51 127 229
4.046 4.619 -1.890 51 127 229
-19.554 -3.811 -1.809 51 127 229
-7.129 -11.353 0.267 51 127 229
6.278 2.412 -1.727 51 127 229
0.729 -4.689 -1.438 51 127 229
-8.947 10.744 -0.877 51 127 229
0.448 4.526 -1.956 51 127 229
3.300 4.071 -1.924 51 127 229
-6.275 -12.462 -0.260 51 127 229
2.825 -5.806 -1.439 51 127 229
0.752 -4.102 -1.502 51 127 229
17.461 -27.180 -0.597 89 89 89
4.459 -1.663 -1.606 51 127 229
-7.672 -3.312 -1.720 51 127 229
12.906 12.690 0.161 51 127 229
7.809 -26.720 -0.466 51 127 229
13.880 -2.920 -1.605 51 127 229
4.451 -10.119 -1.318 51 127 229
3.192 3.363 -1.851 51 127 229
2.501 0.514 -0.927 51 127 229
12.326 14.899 -2.090 51 127 229
3.927 3.315 -1.821 51 127 229
-30.455 8.754 -2.775 51 127 229
-23.525 -16.728 -0.090 165 165 165
5.600 -4.121 -1.508 51 127 229
-29.157 11.241 -2.369 51 127 229
17.191 -12.623 -0.595 51 127 229
11.021 -7.970 -1.109 51 127 229
-1.162 10.628 -1.891 51 127 229
11.742 1.519 -1.623 51 127 229
-5.946 -6.485 -1.643 51 127 229
15.207 9.566 -1.924 51 127 229
-2.299 6.021 -1.966 51 127 229
24.139 16.450 -1.966 51 127 229
7.352 -10.188 -1.302 51 127 229
7.143 11.739 -0.931 51 127 229
-18.423 2.372 -2.228 51 127 229
-9.983 9.173 -2.308 51 127 229
-1.634 4.952 -2.006 51 127 229
-10.398 -4.560 -1.412 51 127 229
4.718 6.478 -1.842 51 127 229
8.472 -8.559 -1.101 51 127 229
-5.866 -11.310 -1.604 51 127 229
-8.628 -3.054 -1.731 51 127 229
-2.665 7.377 -0.900 51 127 229
6.350 3.567 -1.805 51 127 229
-3.070 4.374 -2.032 51 127 229
11.609 -23.467 0.210 89 89 89
-2.054 4.674 -2.006 51 127 229
4.613 -3.284 -1.522 51 127 229
0.481 -3.756 -1.551 51 127 229
7.920 17.242 -2.392 51 127 229
8.246 -25.579 -1.091 89 89 89
3.834 1.955 -1.734 51 127 229
3.761 -4.515 -1.475 51 127 229
26.606 -23.051 -0.686 89 89 89
-6.878 -11.329 -0.705 51 127 229
-11.440 9.793 -1.514 51 127 229
6.859 -3.647 -0.402 51 127 229
28.825 22.722 -1.885 51 127 229
-4.794 7.450 -2.117 51 127 229
-19.453 -5.346 1.014 51 127 229
1.651 -3.479 -1.571 51 127 229
6.031 -0.817 -1.635 51 127 229
8.151 1.593 -1.670 51 127 229
4.334 -2.920 -1.570 51 127 229
-0.326 4.585 -1.968 51 127 229
0.510 -4.585 -1.479 51 127 229
-1.025 6.283 -1.952 51 127 229
4.570 0.210 -1.671 51 127 229
10.451 4.242 -1.795 51 127 229
-11.417 9.006 -1.018 51 127 229
4.916 9.788 -2.037 51 127 229
-1.821 4.886 -2.003 51 127 229
-12.284 6.591 0.589 51 127 229
5.238 2.335 -1.742 51 127 229
-3.920 -5.557 0.477 51 127 229
-3.097 5.857 -2.017 51 127 229
0.821 5.387 -1.938 51 127 229
-5.937 7.195 -2.133 51 127 229
18.055 1.304 -1.466 51 127 229
17.310 -21.178 -0.978 89 89 89
7.144 -25.763 -0.437 51 127 229
23.421 4.269 -1.559 51 127 229
2.890 4.014 -1.930 51 127 229
6.820 6.402 -1.831 51 127 229
6.108 22.896 -2.740 51 127 229
14.012 7.362 -1.845 51 127 229
-1.949 -4.621 -1.557 51 127 229
-9.221 9.577 0.340 51 127 229
-5.857 5.107 -2.061 51 127 229
-2.315 8.658 -2.155 51 127 229
13.301 16.631 -0.261 51 127 229
-35.523 5.555 -1.693 51 127 229
3.473 13.777 -2.309 51 127 229
-22.946 1.939 -2.269 51 127 229
-21.868 5.388 -2.354 51 127 229
-12.285 9.992 0.664 51 127 229
-6.222 -12.506 -0.011 51 127 229
14.164 3.239 -1.669 51 127 229
-19.248 -4.260 -1.301 51 127 229
0.174 17.392 -2.672 51 127 229
7.066 -3.393 -0.742 51 127 229
-10.613 -6.225 -1.253 51 127 229
-3.830 8.341 -2.107 51 127 229
-9.449 -4.418 -1.488 51 127 229
22.458 25.195 -2.303 51 127 229
-9.632 -3.782 -1.675 51 127 229
5.613 -1.409 -1.583 51 127 229
-0.913 6.682 -1.922 51 127 229
8.226 -1.332 -1.656 51 127 229
-6.993 -2.041 -1.775 51 127 229
-9.916 8.416 -1.043 51 127 229
4.519 -5.375 -1.457 51 127 229
5.591 -3.577 -1.504 51 127 229
-7.853 18.040 -0.598 51 127 229
18.094 5.254 -1.661 51 127 229
-3.534 5.402 -2.029 51 127 229
12.222 -7.901 -1.026 51 127 229
9.308 -5.647 -1.317 51 127 229
9.332 -25.665 -0.316 89 89 89
-3.828 -2.476 -1.691 51 127 229
3.957 6.651 -1.346 51 127 229
4.215 -9.422 -1.334 51 127 229
-4.439 3.426 -2.043 51 127 229
-12.966 -5.182 -0.152 51 127 229
6.774 16.747 -0.073 51 127 229
12.411 17.000 -2.162 51 127 229
-7.022 -0.586 -1.802 51 127 229
-10.767 -13.481 0.563 165 165 165
13.171 13.031 -0.297 51 127 229
21.582 -6.651 -0.656 51 127 229
-0.607 -5.310 -1.484 51 127 229
-8.371 9.346 -2.330 51 127 229
5.703 -2.984 -1.524 51 127 229
7.445 16.561 -0.074 51 127 229
-7.837 14.184 -0.958 51 127 229
24.024 21.599 -2.196 51 127 229
-7.699 -3.834 -1.699 51 127 229
-3.811 -3.593 -1.613 51 127 229
-0.218 6.879 -1.918 51 127 229
13.271 16.342 0.255 51 127 229
-13.525 8.242 -0.200 51 127 229
10.363 -20.082 -1.149 89 89 89
-7.913 14.921 -1.815 51 127 229
19.300 -10.802 -1.299 51 127 229
0.100 -4.824 -1.469 51 127 229
9.171 -17.413 -1.204 51 127 229
-9.100 -4.329 -1.626 51 127 229
17.182 -13.361 -0.468 51 127 229
7.918 7.905 -1.894 51 127 229
-0.458 -4.748 -1.505 51 127 229
3.878 4.820 -1.906 51 127 229
4.083 -2.837 -1.581 51 127 229
-1.102 -3.572 -1.602 51 127 229
-14.098 2.731 -2.191 51 127 229
5.898 -0.107 -1.631 51 127 229
-4.694 5.940 -2.014 51 127 229
9.120 19.699 -2.371 51 127 229
-2.512 -28.284 0.930 51 127 229
-0.603 -4.017 -1.518 51 127 229
-12.409 -1.376 -1.943 51 127 229
34.368 -11.548 0.159 51 127 229
-1.494 5.639 -2.004 51 127 229
16.939 -20.111 -0.313 89 89 89
1.481 6.250 -1.915 51 127 229
7.014 -3.345 -0.315 51 127 229
-16.820 37.687 -0.154 51 127 229
4.154 4.435 -1.939 51 127 229
7.330 -10.836 -1.289 51 127 229
15.843 15.151 -1.975 51 127 229
-22.855 -4.165 -1.579 51 127 229
-12.034 7.899 -2.041 51 127 229
-4.993 6.066 -2.025 51 127 229
5.597 1.327 -1.675 51 127 229
4.196 -1.709 -1.619 51 127 229
5.166 -4.149 -1.496 51 127 229
-20.076 -15.483 -2.969 165 165 165
5.582 1.361 -1.673 51 127 229
-0.412 -10.539 -1.361 51 127 229
-12.207 7.044 -1.995 51 127 229
-5.210 -14.929 0.822 51 127 229
7.903 -16.532 -1.222 51 127 229
-1.341 -6.202 -1.417 51 127 229
2.416 -5.142 -1.470 51 127 229
5.256 1.253 -1.687 51 127 229
-1.109 -5.193 -1.533 51 127 229
2.711 -5.093 -1.496 51 127 229
-14.470 -25.369 -2.585 165 165 165
4.363 1.943 -1.726 51 127 229
-1.539 5.760 -2.001 51 127 229
-4.316 6.402 -2.060 51 127 229
-0.355 6.278 -1.932 51 127 229
-1.452 4.976 -1.995 51 127 229
4.802 -7.813 -1.374 51 127 229
4.021 -5.494 -1.461 51 127 229
-2.896 4.828 -2.026 51 127 229
-1.038 -3.629 -1.577 51 127 229
3.111 -2.531 -1.612 51 127 229
-1.583 5.740 -1.999 51 127 229
6.607 1.627 -1.665 51 127 229
-12.866 -5.545 0.285 51 127 229
1.813 3.937 -1.966 51 127 229
-9.288 12.367 -1.264 51 127 229
10.056 29.801 -2.525 51 127 229
1.607 4.419 -1.922 51 127 229
-10.154 8.103 -1.202 51 127 229
-10.542 10.937 0.649 51 127 229
-7.926 13.164 -1.803 51 127 229
-5.775 -4.896 -1.668 51 127 229
-8.974 -4.372 -0.530 51 127 229
-15.930 -18.142 -2.814 165 165 165
16.778 -4.625 -1.498 51 127 229
4.131 4.752 -1.873 51 127 229
36.214 -34.209 1.920 89 89 89
19.559 2.825 -1.503 51 127 229
-18.474 -4.142 -0.304 51 127 229
13.144 11.804 0.462 51 127 229
12.193 -0.399 -1.582 51 127 229
8.179 -28.388 0.711 51 127 229
-7.738 9.614 -2.291 51 127 229
-8.383 7.452 -2.200 51 127 229
-4.013 -11.765 -1.501 51 127 229
-10.177 8.589 -1.723 51 127 229
1.422 -8.579 -1.364 51 127 229
-11.560 -4.685 -1.574 51 127 229
-5.038 3.028 -2.017 51 127 229
-8.013 12.250 -0.157 51 127 229
-5.811 7.809 -2.154 51 127 229
-0.931 -5.741 -1.460 51 127 229
-12.519 -16.086 -2.713 165 165 165
3.884 1.519 -1.712 51 127 229
2.979 6.055 -1.886 51 127 229
-17.938 -15.709 -2.945 51 127 229
13.012 3.423 -1.718 51 127 229
-3.001 -28.893 0.237 51 127 229
2.957 3.253 -1.833 51 127 229
-3.014 -3.553 -1.596 51 127 229
34.389 -11.137 0.160 51 127 229
-10.302 8.642 -1.741 51 127 229
2.789 -6.305 -1.420 51 127 229
6.834 -7.663 -1.147 51 127 229
4.083 4.586 -1.890 51 127 229
11.285 11.322 -1.985 51 127 229
-3.260 -2.691 -1.654 51 127 229
1.833 6.383 -1.902 51 127 229
3.413 2.522 -1.760 51 127 229
-3.605 -5.527 -1.050 51 127 229
2.999 4.659 -1.921 51 127 229
-20.338 8.549 -0.849 51 127 229
-12.782 -5.083 -0.910 51 127 229
-3.920 -5.568 0.136 51 127 229
9.871 -13.027 -1.262 51 127 229
24.480 -0.208 -0.579 51 127 229
-3.548 5.407 -2.033 51 127 229
2.817 21.629 -2.922 51 127 229
-34.216 -3.701 -2.069 51 127 229
-16.367 -7.493 0.498 51 127 229
12.195 8.313 -1.814 51 127 229
7.878 11.221 0.652 51 127 229
6.258 0.048 -1.633 51 127 229
-25.666 -13.994 0.277 165 165 165
13.784 8.246 -1.876 51 127 229
4.897 1.195 -1.708 51 127 229
6.508 -0.464 -1.645 51 127 229
-2.731 4.731 -2.021 51 127 229
-0.077 10.138 -2.266 51 127 229
-3.260 -3.209 -1.628 51 127 229
-25.592 -13.962 0.090 165 165 165
4.151 2.142 -1.741 51 127 229
-12.222 -4.864 -0.626 51 127 229
3.798 -7.528 -1.383 51 127 229
-3.768 3.547 -2.039 51 127 229
-11.046 9.095 -1.598 51 127 229
2.127 4.348 -1.939 51 127 229
-7.708 1.336 -1.990 51 127 229
-0.776 4.694 -1.969 51 127 229
-13.565 -28.513 -2.427 51 127 229
2.080 6.245 -1.885 51 127 229
13.341 15.846 0.024 51 127 229
-2.119 -3.807 -1.568 51 127 229
17.302 -18.356 0.197 89 89 89
28.792 -11.089 0.315 51 127 229
3.359 -4.265 -1.505 51 127 229
1.637 6.096 -1.949 51 127 229
6.024 4.525 -1.875 51 127 229
4.083 1.204 -1.700 51 127 229
-1.664 -3.591 -1.574 51 127 229
-3.529 -4.952 -1.557 51 127 229
-35.993 -5.666 0.450 51 127 229
-12.414 6.260 -1.390 51 127 229
6.699 17.890 0.832 51 127 229
2.292 -6.543 -1.428 51 127 229
5.016 -1.226 -1.715 51 127 229
-14.652 -14.875 0.008 165 165 165
-5.573 -0.857 -1.781 51 127 229
-14.689 6.746 -0.586 51 127 229
-6.302 0.442 -1.935 51 127 229
-29.528 4.302 -2.438 51 127 229
9.499 12.430 0.426 51 127 229
-2.086 -11.814 -1.441 51 127 229
-1.795 -8.650 -1.388 51 127 229
-9.021 -3.479 -1.718 51 127 229
-35.466 -2.867 -2.148 51 127 229
-6.450 -0.959 -1.788 51 127 229
20.716 -6.924 -1.289 51 127 229
2.273 6.914 -1.902 51 127 229
0.201 -3.973 -1.505 51 127 229
2.977 -3.469 -1.560 51 127 229
-6.023 2.347 -1.993 51 127 229
5.052 5.847 -1.853 51 127 229
6.455 6.353 -1.856 51 127 229
3.937 -3.674 -1.554 51 127 229
3.914 -3.022 -1.569 51 127 229
5.035 21.042 -2.750 51 127 229
16.394 4.307 -1.690 51 127 229
13.356 15.834 0.156 51 127 229
-0.644 -17.681 -1.257 51 127 229
5.155 -3.524 -1.536 51 127 229
2.517 -6.762 -1.431 51 127 229
-2.005 -7.149 -1.420 51 127 229
-3.324 -2.493 -1.668 51 127 229
9.206 18.463 0.394 51 127 229
-5.491 -13.555 0.689 51 127 229
11.868 -30.415 0.754 89 89 89
3.746 -13.762 -1.236 51 127 229
-4.250 2.733 -1.970 51 127 229
-9.948 9.348 -1.831 51 127 229
-6.307 -1.357 -1.814 51 127 229
9.470 0.928 -1.639 51 127 229
-2.667 -5.032 -1.541 51 127 229
0.288 5.456 -1.941 51 127 229
9.767 -1.450 -1.620 51 127 229
-38.800 1.621 -2.564 51 127 229
31.628 -34.227 0.947 89 89 89
-5.263 -3.058 -1.692 51 127 229
-6.856 11.103 -2.431 51 127 229
-9.492 10.608 0.030 51 127 229
8.791 5.299 -1.798 51 127 229
1.332 5.103 -1.937 51 127 229
12.176 11.409 -1.961 51 127 229
20.574 12.577 -0.883 51 127 229
6.575 16.635 -0.289 51 127 229
-24.006 0.117 -2.231 51 127 229
-2.669 7.271 -0.887 51 127 229
4.595 2.332 -1.763 51 127 229
4.027 4.657 -1.895 51 127 229
-38.896 1.746 -2.571 51 127 229
-7.589 -0.594 -1.784 51 127 229
3.048 6.533 -1.883 51 127 229
0.740 4.819 -1.947 51 127 229
-4.231 3.448 -2.052 51 127 229
8.076 -3.335 -1.469 51 127 229
3.657 22.325 -2.883 51 127 229
-5.293 -10.615 0.322 51 127 229
-5.452 3.094 -2.052 51 127 229
7.076 -3.254 -0.317 51 127 229
3.399 -2.424 -1.593 51 127 229
36.523 -11.105 0.796 51 127 229
6.102 5.685 -1.846 51 127 229
-4.161 2.165 -1.960 51 127 229
-8.644 -3.012 -1.731 51 127 229
5.000 1.013 -1.685 51 127 229
9.425 -0.309 -1.616 51 127 229
35.718 -34.217 0.988 89 89 89
-5.275 -1.736 -1.746 51 127 229
2.581 5.855 -1.909 51 127 229
-6.190 4.445 -2.087 51 127 229
-8.006 7.520 -2.153 51 127 229
-2.199 -5.710 -1.499 51 127 229
5.418 -6.901 -1.388 51 127 229
6.119 10.790 -2.004 51 127 229
0.763 -10.490 -1.357 51 127 229
6.907 -3.552 -0.878 51 127 229
-13.284 -1.393 -1.955 51 127 229
-2.298 5.551 -2.009 51 127 229
9.021 -3.270 -1.474 51 127 229
3.425 3.321 -1.855 51 127 229
-4.909 -9.731 -1.549 51 127 229
-8.833 -4.535 -0.712 51 127 229
0.630 -25.830 -0.725 51 127 229
-8.980 5.039 -2.183 51 127 229
34.305 -12.499 -0.550 51 127 229
1.067 11.431 -2.273 51 127 229
-0.662 5.823 -1.975 51 127 229
-4.150 6.479 -2.053 51 127 229
0.368 6.753 -1.886 51 127 229
3.955 6.670 -1.509 51 127 229
5.219 -1.326 -1.694 51 127 229
13.097 -1.015 -1.569 51 127 229
-1.496 -3.645 -1.562 51 127 229
0.207 -8.738 -1.370 51 127 229
-16.677 -4.163 -1.417 51 127 229
-4.409 2.074 -1.927 51 127 229
3.220 -5.951 -1.447 51 127 229
7.149 11.290 0.076 51 127 229
3.351 2.665 -1.778 51 127 229
-3.533 -12.697 -1.517 51 127 229
11.246 14.081 -2.134 51 127 229
-10.526 -4.330 -0.925 51 127 229
-5.281 -2.632 -1.715 51 127 229
-7.743 15.394 -0.708 51 127 229
-22.372 -20.374 -1.217 165 165 165
4.823 -3.059 -1.539 51 127 229
1.902 4.875 -1.923 51 127 229
1.292 5.910 -1.934 51 127 229
-2.070 -7.862 -1.397 51 127 229
20.543 6.807 -1.670 51 127 229
-9.284 -4.697 -1.022 51 127 229
16.151 -1.360 -1.488 51 127 229
3.782 3.648 -1.865 51 127 229
-25.394 7.193 -0.437 51 127 229
-0.345 -3.779 -1.569 51 127 229
0.370 -3.984 -1.513 51 127 229
-8.164 5.471 -2.165 51 127 229
-10.383 10.606 -0.598 51 127 229
-1.206 -4.761 -1.512 51 127 229
-3.194 -10.887 -1.483 51 127 229
-1.318 10.700 0.272 51 127 229
-16.544 3.301 -2.307 51 127 229
-5.338 12.178 -2.481 51 127 229
-7.438 0.871 -1.962 51 127 229
34.149 -14.658 0.336 51 127 229
-6.725 -0.772 -1.790 51 127 229
-14.854 -25.117 -2.582 165 165 165
-2.774 4.250 -2.020 51 127 229
-0.172 5.350 -1.957 51 127 229
5.791 1.363 -1.664 51 127 229
2.179 5.260 -1.930 51 127 229
14.033 -23.487 -0.970 89 89 89
6.678 -6.914 -1.169 51 127 229
-0.402 12.873 -2.408 51 127 229
-0.055 5.940 -1.947 51 127 229
-0.662 -5.641 -1.477 51 127 229
3.685 -7.896 -1.370 51 127 229
-4.040 -4.165 -1.590 51 127 229
-24.997 -16.329 0.627 165 165 165
-12.422 7.270 0.342 51 127 229
-4.195 -2.439 -1.695 51 127 229
3.271 -11.530 -1.280 51 127 229
-5.937 -0.800 -1.758 51 127 229
6.959 -3.546 -0.126 51 127 229
-2.351 5.423 -2.021 51 127 229
3.704 -9.646 -1.334 51 127 229
-7.796 -3.710 -1.707 51 127 229
-5.195 -6.866 -1.601 51 127 229
-2.513 6.013 -1.987 51 127 229
14.772 -17.185 0.059 51 127 229
-10.190 -8.484 -2.062 51 127 229
0.980 -4.225 -0.336 51 127 229
-8.783 -4.596 -0.645 51 127 229
-3.111 6.444 -1.978 51 127 229
-5.126 -8.530 -1.589 51 127 229
11.032 -23.486 0.211 89 89 89
-0.657 -7.200 0.207 51 127 229
-1.639 -3.391 -1.631 51 127 229
19.275 11.168 -1.346 51 127 229
-9.334 10.404 0.352 51 127 229
-5.809 5.821 -2.031 51 127 229
1.354 4.788 -1.941 51 127 229
-16.420 -4.350 0.579 51 127 229
-5.896 -5.672 -1.668 51 127 229
5.245 2.754 -1.744 51 127 229
-2.509 -5.625 -1.512 51 127 229
6.226 -17.491 -0.797 51 127 229
9.998 11.236 -2.030 51 127 229
-3.130 -2.429 -1.684 51 127 229
8.460 0.110 -1.613 51 127 229
-4.026 -8.285 -1.526 51 127 229
-11.865 -3.238 -1.785 51 127 229
-7.115 -2.387 -1.750 51 127 229
16.855 -3.612 -1.484 51 127 229
-8.834 10.918 -0.302 51 127 229
6.178 12.021 0.556 51 127 229
3.087 -10.273 -1.316 51 127 229
-8.737 5.504 -2.191 51 127 229
9.801 12.491 0.729 51 127 229
3.124 3.780 -1.912 51 127 229
2.541 5.248 -1.918 51 127 229
-7.047 14.069 -2.698 51 127 229
4.385 -19.052 -1.088 51 127 229
-9.126 -0.086 -1.821 51 127 229
-0.033 -4.060 -1.508 51 127 229
8.772 -6.769 -1.265 51 127 229
-3.869 -5.208 -1.539 51 127 229
14.962 16.501 -2.011 51 127 229
-4.309 5.184 -2.040 51 127 229
13.325 -19.021 0.595 51 127 229
9.416 3.091 -1.723 51 127 229
-0.543 -4.893 -1.508 51 127 229
7.384 16.812 -1.634 51 127 229
-4.758 -5.627 -1.613 51 127 229
-0.335 5.192 -1.954 51 127 229
22.989 -1.546 -1.381 51 127 229
4.523 17.119 -2.551 51 127 229
15.924 14.989 -1.970 51 127 229
8.522 -4.120 -1.448 51 127 229
11.538 -23.487 -0.758 89 89 89
-4.744 -4.130 -1.628 51 127 229
-24.213 -17.569 0.626 165 165 165
16.431 17.881 -2.053 51 127 229
8.003 -7.048 -1.077 51 127 229
-9.402 -4.921 0.147 51 127 229
