ply
format ascii 1.0
element vertex 2048
property float x
property float y
property float z
property uchar red
property uchar green
property uchar blue
end_header
-5.258 12.259 -2.490 244 35 150
-9.975 0.019 -2.032 127 63 127
-12.834 7.476 -0.777 56 153 56
-1.679 6.188 -1.961 56 153 56
4.643 -0.853 -1.658 127 63 127
-8.840 11.083 -1.652 56 153 56
-5.286 -3.026 -1.692 244 35 150
-2.875 10.946 0.331 56 153 56
7.364 11.487 -0.597 56 153 56
-4.757 2.804 -1.999 127 63 127
13.050 -23.442 0.036 89 89 89
5.448 -6.852 -1.385 244 35 150
-6.742 -0.876 -1.797 127 63 127
13.221 5.141 -1.825 127 63 127
7.939 7.136 -1.801 56 153 56
-1.621 -6.492 -1.433 56 153 56
7.412 6.729 -1.758 56 153 56
2.266 5.959 -1.902 56 153 56
14.892 -3.271 -1.576 127 63 127
-3.378 -3.569 -1.602 244 35 150
-0.436 7.878 -1.974 56 153 56
3.323 2.928 -1.800 127 63 127
-16.586 2.558 -2.222 127 63 127
6.901 10.184 -1.986 56 153 56
-9.687 -4.758 -1.006 56 153 56
-3.916 2.869 -1.998 127 63 127
0.832 -25.804 -0.725 89 89 89
9.394 2.015 -1.662 127 63 127
-18.894 7.811 -1.735 56 153 56
4.793 1.987 -1.728 127 63 127
8.414 31.714 -2.838 56 153 56
-25.316 -15.334 1.336 56 153 56
-8.342 -9.493 -1.827 56 153 56
2.834 -7.120 -1.396 244 35 150
-0.776 -6.990 0.428 56 153 56
5.000 -3.321 -1.523 244 35 150
19.638 -7.244 -1.328 127 63 127
1.644 7.005 -1.879 56 153 56
34.356 -23.047 1.626 89 89 89
-0.546 -16.676 -1.270 56 153 56
6.696 0.602 -1.635 127 63 127
-10.978 -2.358 -1.834 244 35 150
5.955 16.344 0.041 56 153 56
4.487 -5.737 -1.452 244 35 150
7.407 11.489 -0.260 56 153 56
-36.866 -30.097 -1.194 56 153 56
-9.755 9.283 -2.176 56 153 56
-38.236 -37.555 -1.734 165 165 165
-15.780 36.216 0.109 56 153 56
7.894 4.664 -1.785 244 35 150
1.652 4.319 -1.998 127 63 127
5.163 -0.767 -1.647 127 63 127
9.014 4.551 -1.853 127 63 127
4.392 -1.348 -1.708 127 63 127
8.347 -2.797 -1.484 244 35 150
-17.117 7.429 -0.137 56 153 56
-1.886 8.829 0.296 56 153 56
13.872 10.587 -1.866 56 153 56
14.851 -1.329 -1.542 127 63 127
3.166 8.755 -1.996 56 153 56
7.550 18.077 -0.578 56 153 56
-25.230 4.580 -2.384 244 35 150
7.967 9.324 -1.977 56 153 56
11.416 8.090 -1.807 56 153 56
-0.494 -14.833 -1.288 56 153 56
-0.030 10.139 -2.266 56 153 56
5.175 17.145 -1.592 56 153 56
-8.941 10.481 -1.947 56 153 56
10.457 3.658 -1.759 127 63 127
6.165 -27.365 -0.985 56 153 56
-23.779 -18.097 1.342 56 153 56
-0.194 -5.306 -1.470 56 153 56
-4.018 -4.653 -1.581 56 153 56
2.958 -6.072 -1.443 244 35 150
-3.665 -5.616 -1.275 56 153 56
6.689 -3.638 -1.322 244 35 150
5.579 -2.371 -1.551 244 35 150
-14.176 -5.248 0.835 56 153 56
13.337 16.570 -0.497 56 153 56
-9.834 7.500 -1.291 56 153 56
6.131 -29.188 1.275 56 153 56
4.113 6.714 -1.163 255 216 25
0.909 -8.721 -1.375 56 153 56
12.672 6.146 -1.814 244 35 150
3.254 -4.675 -1.478 244 35 150
-7.770 -7.915 -1.796 56 153 56
4.782 16.293 -1.392 56 153 56
-2.162 -4.538 -1.564 56 153 56
-17.831 -4.799 0.835 56 153 56
26.227 -11.566 -1.057 244 35 150
-2.534 -14.893 -1.412 56 153 56
-6.034 1.109 -1.930 127 63 127
-23.852 -16.298 0.615 56 153 56
-10.795 -13.202 0.351 56 153 56
0.943 -11.094 -1.048 56 153 56
11.365 -4.167 -1.498 244 35 150
2.381 4.638 -1.916 244 35 150
-7.033 -5.939 -1.730 56 153 56
11.243 11.460 -1.994 56 153 56
2.471 -10.478 -1.320 244 35 150
5.946 15.044 -2.317 56 153 56
19.375 10.675 -1.444 51 127 229
7.454 6.383 -1.807 56 153 56
7.703 -15.421 -1.235 244 35 150
2.400 -9.247 -1.338 244 35 150
3.810 12.416 -2.219 56 153 56
-6.414 -11.442 0.590 56 153 56
3.892 4.115 -1.915 127 63 127
1.908 4.141 -1.971 127 63 127
-0.884 -13.559 -1.331 56 153 56
4.447 -3.293 -1.550 244 35 150
10.837 10.478 -1.964 56 153 56
-15.976 2.477 -2.206 127 63 127
-5.821 2.265 -1.975 127 63 127
7.027 11.730 -1.678 56 153 56
8.192 -8.705 -1.164 56 153 56
6.046 0.815 -1.658 127 63 127
-12.849 9.034 -0.558 56 153 56
-3.449 7.777 -2.035 56 153 56
7.927 18.732 -1.326 56 153 56
-0.771 -7.013 -0.828 56 153 56
4.069 -8.669 -1.346 244 35 150
6.845 -3.334 -1.485 244 35 150
-18.857 -4.053 -0.444 56 153 56
6.171 -7.409 -1.365 244 35 150
2.462 5.895 -1.906 56 153 56
-8.487 -3.271 -1.718 244 35 150
-6.103 0.644 -1.928 127 63 127
-0.288 -3.848 -1.553 56 153 56
5.468 16.130 -0.268 56 153 56
-0.758 -6.943 -0.639 56 153 56
6.627 11.823 -1.568 56 153 56
5.075 0.060 -1.661 127 63 127
7.105 -3.300 -0.359 255 216 25
3.818 -5.239 -1.450 244 35 150
26.056 17.139 -0.806 255 216 25
1.593 4.091 -1.991 127 63 127
-9.473 11.956 0.561 56 153 56
4.960 -5.920 -1.416 244 35 150
-21.900 -20.202 -2.099 89 89 89
4.618 -18.190 -1.127 56 153 56
6.805 -3.752 -0.968 255 216 25
27.086 20.200 -1.902 56 153 56
-8.879 1.981 -2.061 127 63 127
-5.530 2.877 -2.037 127 63 127
25.443 -15.627 -0.927 244 35 150
5.970 2.505 -1.718 127 63 127
5.800 15.578 -0.466 56 153 56
3.806 2.898 -1.794 127 63 127
10.870 8.624 -1.855 56 153 56
-1.910 6.603 -1.955 56 153 56
10.925 -24.341 0.211 89 89 89
27.084 -10.749 -1.079 244 35 150
6.378 -8.224 -1.354 56 153 56
-12.432 -16.080 -2.704 56 153 56
-8.652 -1.823 -1.834 244 35 150
2.931 5.475 -1.916 244 35 150
10.374 3.033 -1.712 127 63 127
0.104 5.492 -1.950 244 35 150
7.505 16.892 -1.528 56 153 56
8.930 -1.783 -1.547 244 35 150
-5.973 4.345 -2.069 244 35 150
-2.354 10.556 0.406 56 153 56
5.013 4.708 -1.847 244 35 150
2.978 -2.810 -1.592 244 35 150
6.224 16.354 -0.384 56 153 56
1.210 6.884 -1.885 56 153 56
-1.822 -37.981 -2.070 56 153 56
28.781 1.996 -1.431 127 63 127
5.438 -3.425 -1.517 244 35 150
-14.661 7.789 0.574 56 153 56
5.318 0.769 -1.670 127 63 127
-5.370 -11.258 -1.564 56 153 56
-4.143 2.950 -1.988 127 63 127
10.917 2.436 -1.662 127 63 127
3.282 -3.043 -1.575 244 35 150
-2.570 4.791 -2.014 244 35 150
6.454 -5.557 -1.350 56 153 56
4.793 -0.560 -1.649 127 63 127
-3.660 -18.986 -1.393 56 153 56
13.180 4.934 -1.809 127 63 127
2.001 19.734 -2.875 56 153 56
-3.548 -3.797 -1.595 56 153 56
9.263 -9.100 -1.042 56 153 56
-15.249 -4.578 -0.813 56 153 56
-5.187 -27.945 0.721 56 153 56
-0.958 -3.745 -1.570 244 35 150
-12.214 6.161 -1.277 56 153 56
-11.797 1.387 -2.096 127 63 127
28.908 -11.239 0.531 56 153 56
4.036 3.659 -1.881 127 63 127
16.966 -18.735 -0.737 51 127 229
-11.903 -12.125 0.885 56 153 56
2.476 4.025 -1.933 127 63 127
5.541 0.733 -1.677 127 63 127
19.318 11.152 -1.073 51 127 229
6.153 2.946 -1.757 127 63 127
34.379 -15.854 0.339 89 89 89
-8.306 -10.832 -1.836 56 153 56
4.574 -2.899 -1.572 244 35 150
1.859 4.575 -1.928 244 35 150
3.431 -6.054 -1.437 244 35 150
7.376 11.668 -1.696 56 153 56
-11.029 -20.651 -1.328 255 216 25
-6.495 2.574 -2.020 127 63 127
8.946 2.286 -1.676 127 63 127
-32.501 7.729 0.052 56 153 56
-8.889 12.536 -2.190 56 153 56
3.976 6.866 -1.825 56 153 56
-2.260 5.234 -2.000 244 35 150
11.508 -6.808 -1.005 56 153 56
-15.113 7.077 -1.289 56 153 56
0.228 -4.677 -1.468 56 153 56
-7.683 13.923 -0.354 56 153 56
2.794 -3.654 -1.518 244 35 150
36.097 -30.606 0.159 89 89 89
7.189 11.272 0.076 56 153 56
-4.693 4.131 -2.061 244 35 150
-9.173 9.771 -0.999 56 153 56
4.274 -1.782 -1.608 244 35 150
6.922 -14.749 -1.249 244 35 150
-8.880 9.298 -0.579 56 153 56
6.513 4.455 -1.885 127 63 127
31.722 -11.048 -0.860 165 165 165
1.569 -7.897 -1.379 244 35 150
-27.166 9.477 -0.629 56 153 56
-5.695 3.592 -2.092 127 63 127
-6.445 -1.079 -1.791 127 63 127
3.284 3.522 -1.875 127 63 127
11.364 -25.785 -1.000 89 89 89
-4.316 -2.007 -1.725 244 35 150
19.405 13.456 -1.987 127 63 127
4.572 4.884 -1.863 244 35 150
-5.356 -0.050 -1.746 127 63 127
6.901 -3.296 -1.332 244 35 150
-4.267 -7.654 -1.524 56 153 56
-4.869 -3.171 -1.680 244 35 150
8.026 4.182 -1.844 127 63 127
12.055 13.259 0.371 56 153 56
-12.129 8.390 0.016 56 153 56
3.848 5.850 -1.888 56 153 56
-8.217 11.978 -0.409 56 153 56
-7.240 0.244 -1.960 127 63 127
-0.175 10.189 -2.278 56 153 56
2.545 3.754 -1.897 127 63 127
4.019 6.718 -1.798 56 153 56
-2.491 -8.240 -1.413 56 153 56
15.127 -5.162 -1.558 244 35 150
6.767 11.543 -0.171 56 153 56
-5.317 -1.681 -1.754 244 35 150
0.186 -20.354 -1.134 56 153 56
1.417 7.270 -1.936 56 153 56
-0.069 -4.369 -1.489 56 153 56
24.026 31.337 -2.530 244 35 150
0.278 -6.630 -1.414 56 153 56
30.762 -34.252 0.705 89 89 89
-4.834 -4.007 -1.626 56 153 56
7.584 -5.403 -1.413 56 153 56
6.662 -2.716 -1.520 244 35 150
6.798 15.314 -2.283 56 153 56
-25.655 -14.002 0.622 56 153 56
17.073 -17.754 -0.554 51 127 229
-9.222 -4.275 -0.167 56 153 56
-9.493 10.379 0.282 56 153 56
12.627 -1.928 -1.603 127 63 127
4.332 -2.481 -1.593 244 35 150
-2.174 6.496 -1.945 56 153 56
-6.223 -12.559 -0.169 56 153 56
-8.256 11.218 -0.805 56 153 56
-33.132 -32.047 -0.874 56 153 56
6.488 -3.065 -1.512 244 35 150
-11.047 -18.260 0.788 56 153 56
7.278 -1.408 -1.582 244 35 150
5.173 -0.621 -1.645 127 63 127
-0.928 -6.993 0.037 56 153 56
-4.605 4.635 -2.041 244 35 150
13.716 -0.262 -1.554 127 63 127
2.057 5.511 -1.935 244 35 150
-1.286 5.939 -1.983 56 153 56
-1.238 -4.897 -1.512 56 153 56
11.678 -33.022 -1.090 56 153 56
-6.840 2.110 -1.988 127 63 127
-9.607 1.929 -2.069 127 63 127
37.401 13.212 0.807 56 153 56
-16.074 3.751 -2.369 127 63 127
-10.356 -11.686 0.347 56 153 56
-6.751 -8.757 -1.688 56 153 56
-3.219 13.351 -2.449 56 153 56
12.534 1.154 -1.588 127 63 127
-8.781 -4.056 -1.122 56 153 56
13.259 15.561 0.253 56 153 56
4.796 -3.083 -1.537 244 35 150
1.478 5.524 -1.938 244 35 150
8.229 -0.162 -1.641 127 63 127
-21.924 8.829 -2.749 56 153 56
4.028 -1.615 -1.643 244 35 150
0.004 -6.182 -1.435 56 153 56
-2.144 9.428 -2.231 56 153 56
-8.300 17.720 -0.252 56 153 56
1.921 -5.909 -1.440 244 35 150
-2.441 4.534 -2.016 244 35 150
-8.170 -8.678 -1.834 56 153 56
-7.934 17.987 -0.951 56 153 56
7.885 -12.231 -1.276 244 35 150
-5.376 5.764 -2.029 244 35 150
4.144 3.994 -1.886 127 63 127
16.617 6.852 -1.808 127 63 127
11.991 -23.474 -0.594 89 89 89
-8.536 -35.069 -2.195 56 153 56
-4.319 -22.092 -1.386 56 153 56
-1.342 4.504 -1.997 244 35 150
-4.797 -13.362 -1.554 56 153 56
1.335 -6.483 -1.409 244 35 150
11.006 9.735 -1.909 56 153 56
35.457 -31.135 0.381 89 89 89
-8.888 13.075 0.307 56 153 56
8.089 18.368 0.491 56 153 56
7.225 -2.199 -1.542 244 35 150
5.068 -3.593 -1.526 244 35 150
4.137 -2.126 -1.610 244 35 150
4.521 -0.915 -1.666 127 63 127
1.656 6.553 -1.888 56 153 56
-4.205 -3.118 -1.672 244 35 150
12.826 13.957 -0.079 56 153 56
2.985 -2.878 -1.573 244 35 150
5.641 -2.254 -1.556 244 35 150
5.110 -5.259 -1.468 244 35 150
-1.398 4.719 -1.982 244 35 150
-5.452 -1.359 -1.827 127 63 127
25.076 19.781 -2.010 244 35 150
2.604 5.676 -1.928 244 35 150
6.030 0.832 -1.654 127 63 127
4.651 16.759 -1.648 56 153 56
29.192 -34.502 0.929 89 89 89
-2.843 4.515 -2.034 244 35 150
2.036 -3.317 -1.591 244 35 150
-4.760 -8.586 -1.566 56 153 56
11.701 -6.703 -1.017 56 153 56
-9.099 -7.781 -1.953 56 153 56
-0.737 -3.954 -1.539 56 153 56
-15.619 -6.713 0.789 56 153 56
2.733 6.417 -1.882 56 153 56
-3.010 -3.820 -1.577 56 153 56
7.206 11.868 -0.851 56 153 56
27.274 8.537 -1.574 244 35 150
-8.362 10.799 0.038 56 153 56
-16.094 3.808 -2.374 127 63 127
24.419 0.834 -1.025 51 127 229
-12.259 7.879 -1.631 56 153 56
8.191 0.225 -1.637 127 63 127
-2.966 -3.276 -1.612 244 35 150
12.838 12.521 0.465 56 153 56
-2.977 4.004 -2.090 127 63 127
7.387 -14.546 -1.252 244 35 150
-9.192 0.812 -2.019 127 63 127
6.449 12.088 -1.352 56 153 56
0.276 6.234 -1.921 56 153 56
-29.148 8.699 -1.402 56 153 56
-4.801 -2.654 -1.713 244 35 150
2.858 -6.870 -1.420 244 35 150
2.700 -4.832 -1.468 244 35 150
-0.953 -6.990 0.430 56 153 56
14.244 -0.002 -1.550 127 63 127
9.672 -18.321 -1.178 56 153 56
-0.079 -4.340 -1.478 56 153 56
-30.404 6.778 0.056 56 153 56
-12.059 8.159 -2.218 56 153 56
1.210 5.274 -1.927 244 35 150
-6.097 0.880 -1.937 127 63 127
39.940 1.928 -1.339 127 63 127
4.231 24.528 -2.886 56 153 56
7.436 -1.766 -1.566 244 35 150
7.636 7.156 -1.764 56 153 56
0.692 -5.750 -1.395 56 153 56
3.758 -10.358 -1.311 244 35 150
8.992 -6.448 -1.187 56 153 56
5.800 -26.258 -0.438 56 153 56
-7.832 -12.470 0.517 56 153 56
-1.061 -7.076 0.467 56 153 56
-0.949 -6.990 0.037 56 153 56
-8.787 10.551 0.281 56 153 56
4.233 -3.778 -1.521 244 35 150
11.209 -14.759 -1.247 244 35 150
-1.019 -3.901 -1.550 56 153 56
9.511 6.221 -1.817 244 35 150
-9.326 11.643 -0.692 56 153 56
-9.451 10.270 -1.553 56 153 56
-9.396 -5.268 -0.055 56 153 56
-8.118 12.276 -0.586 56 153 56
5.620 -5.372 -1.431 244 35 150
4.505 3.286 -1.819 127 63 127
26.362 1.483 -1.432 127 63 127
2.226 -3.253 -1.570 244 35 150
11.338 -8.959 -1.013 56 153 56
4.253 1.834 -1.721 127 63 127
2.923 4.252 -1.951 127 63 127
-0.984 -4.603 -1.529 56 153 56
3.221 3.326 -1.847 127 63 127
14.355 10.925 0.692 56 153 56
-1.314 4.320 -2.011 244 35 150
-15.557 0.725 -2.122 127 63 127
5.106 17.204 0.590 56 153 56
-6.181 -11.576 0.589 56 153 56
-3.816 5.519 -2.037 56 153 56
1.747 6.988 -1.882 56 153 56
4.482 4.741 -1.863 244 35 150
-9.489 -3.550 -1.715 244 35 150
30.624 -18.968 -0.531 244 35 150
-6.040 2.260 -1.987 127 63 127
-4.259 -2.103 -1.720 244 35 150
-3.693 -1.994 -1.699 244 35 150
-5.288 3.930 -2.107 127 63 127
3.721 -8.322 -1.361 244 35 150
-4.327 -3.157 -1.661 244 35 150
-4.932 -3.624 -1.649 244 35 150
-8.108 13.364 -1.278 56 153 56
11.814 -23.512 -0.437 89 89 89
4.453 -11.647 -1.281 244 35 150
-0.284 5.953 -1.951 56 153 56
6.567 11.841 -1.245 56 153 56
-15.795 5.726 -2.294 56 153 56
-7.019 5.438 -2.108 244 35 150
26.100 18.244 -0.637 255 216 25
12.020 -5.159 -1.455 244 35 150
5.648 5.184 -1.834 244 35 150
4.964 -4.015 -1.500 244 35 150
3.469 4.640 -1.902 244 35 150
-8.654 -9.504 -1.862 56 153 56
-7.744 17.854 -1.178 56 153 56
-35.318 5.563 1.294 56 153 56
-22.636 -19.948 -2.303 89 89 89
4.407 3.038 -1.798 127 63 127
6.516 -0.515 -1.648 127 63 127
-0.056 -5.585 -1.447 56 153 56
3.626 1.697 -1.746 127 63 127
-5.704 5.488 -2.036 244 35 150
5.922 5.921 -1.855 56 153 56
-7.979 -4.370 0.516 255 216 25
-6.676 -11.696 0.749 56 153 56
-2.531 6.004 -1.988 56 153 56
-3.041 -3.955 -1.568 56 153 56
8.614 17.792 -1.283 56 153 56
0.326 13.408 -2.393 56 153 56
0.936 -4.502 0.104 255 216 25
12.143 -9.525 -0.726 56 153 56
-11.255 10.370 -0.536 56 153 56
-13.418 38.551 -0.146 56 153 56
2.817 -3.170 -1.575 244 35 150
8.590 -2.338 -1.506 244 35 150
6.854 -3.652 -0.772 255 216 25
-0.680 -16.745 -1.277 56 153 56
-29.970 5.839 0.197 56 153 56
9.160 13.139 -2.102 56 153 56
2.690 3.602 -1.879 127 63 127
5.875 0.384 -1.634 127 63 127
-1.930 -5.003 -1.559 56 153 56
-9.675 9.974 -1.294 56 153 56
-2.378 5.838 -1.991 56 153 56
-10.426 -4.567 -0.220 56 153 56
5.113 3.187 -1.779 127 63 127
-10.454 8.902 -1.029 56 153 56
6.093 11.680 -2.003 56 153 56
15.136 5.495 -1.792 127 63 127
11.397 -23.474 -0.297 89 89 89
-8.662 13.694 -1.144 56 153 56
13.220 5.189 -1.828 127 63 127
13.052 -17.243 -0.846 229 38 38
5.106 9.660 -2.031 56 153 56
0.174 5.471 -1.944 244 35 150
3.014 3.885 -1.918 127 63 127
6.640 -8.420 -1.207 56 153 56
-1.618 -5.558 -1.515 56 153 56
-3.372 -2.566 -1.662 244 35 150
-15.093 -3.330 -1.830 244 35 150
-7.208 3.962 -2.178 127 63 127
5.480 -4.896 -1.474 244 35 150
17.353 -15.254 -1.075 51 127 229
4.025 -2.477 -1.582 244 35 150
8.883 20.437 -2.438 56 153 56
-1.408 -5.474 -1.516 56 153 56
2.648 -6.703 -1.428 244 35 150
-0.784 -6.981 -0.175 56 153 56
22.507 -20.550 -0.942 127 63 127
-1.992 4.973 -1.991 244 35 150
-25.698 -14.598 -0.458 56 153 56
-1.036 -5.341 -1.517 56 153 56
27.083 22.878 -0.943 255 216 25
-13.714 6.682 -2.174 56 153 56
10.960 -23.620 -0.428 89 89 89
9.118 18.435 0.394 56 153 56
4.467 -2.233 -1.597 244 35 150
12.137 24.851 -2.365 56 153 56
11.978 -23.337 0.332 89 89 89
-29.645 2.456 -2.434 127 63 127
11.183 -2.570 -1.549 244 35 150
0.291 -14.673 -1.272 56 153 56
-9.708 13.388 -0.083 56 153 56
-13.794 39.051 -0.692 56 153 56
10.650 -4.389 -1.465 244 35 150
-6.019 -11.900 -1.629 56 153 56
-12.124 -4.988 -0.214 56 153 56
4.764 -1.869 -1.594 244 35 150
-12.448 6.907 0.599 56 153 56
-3.065 -3.194 -1.619 244 35 150
2.121 6.013 -1.902 56 153 56
0.432 9.756 -2.181 56 153 56
13.158 -19.753 -0.376 56 153 56
-1.915 -5.574 -1.489 56 153 56
34.337 -24.330 0.868 89 89 89
-2.921 -2.773 -1.643 244 35 150
4.395 -0.954 -1.675 127 63 127
-17.492 7.702 -0.275 56 153 56
0.475 -8.433 -1.380 56 153 56
2.348 -5.753 -1.441 244 35 150
2.158 4.110 -1.943 127 63 127
6.647 -3.611 -1.400 244 35 150
11.832 -33.017 -0.476 56 153 56
-25.462 6.405 -0.723 56 153 56
-1.216 -3.915 -1.546 56 153 56
2.685 4.243 -1.961 127 63 127
-1.289 5.453 -1.977 244 35 150
-9.814 -22.018 -2.548 56 153 56
16.706 2.987 -1.578 127 63 127
-3.469 16.109 -2.688 56 153 56
6.242 17.793 -1.563 56 153 56
-0.348 -4.294 -1.516 56 153 56
-5.362 -0.150 -1.749 127 63 127
-1.932 8.625 -2.125 56 153 56
6.482 -8.453 -1.268 56 153 56
4.373 3.130 -1.807 127 63 127
7.579 11.419 -0.432 56 153 56
-6.159 14.575 -2.714 244 35 150
21.720 4.541 -1.586 127 63 127
-12.475 6.905 0.445 56 153 56
31.652 -19.401 -0.068 89 89 89
5.720 -0.311 -1.647 127 63 127
2.657 -3.146 -1.558 244 35 150
-14.898 7.070 -1.952 56 153 56
-8.951 -1.324 -1.880 127 63 127
-13.213 8.172 0.646 56 153 56
-15.314 36.164 1.065 56 153 56
5.603 -4.378 -1.486 244 35 150
-8.290 6.101 -2.185 56 153 56
1.572 4.185 -1.981 127 63 127
-15.275 -0.074 -1.914 127 63 127
10.971 -23.841 -0.433 89 89 89
0.405 4.419 -1.957 244 35 150
9.816 22.776 -2.416 56 153 56
1.360 -10.708 -1.323 244 35 150
-8.728 -4.820 -0.650 56 153 56
0.333 5.006 -1.951 244 35 150
0.182 -9.695 -1.358 56 153 56
-8.695 11.370 -1.768 56 153 56
5.995 3.894 -1.853 127 63 127
2.878 -6.860 -1.420 244 35 150
2.192 4.397 -1.918 244 35 150
13.658 17.162 -2.115 56 153 56
4.026 6.667 -1.355 255 216 25
-3.888 -2.157 -1.713 244 35 150
-15.442 -3.957 -1.698 56 153 56
4.779 -0.726 -1.650 127 63 127
-10.334 8.186 -1.763 56 153 56
10.205 -1.263 -1.602 127 63 127
8.272 -5.381 -1.413 56 153 56
-8.219 12.199 -0.234 56 153 56
-23.825 -20.802 -2.243 89 89 89
-1.443 -21.920 0.344 56 153 56
-0.877 10.416 -1.847 255 216 25
3.532 6.006 -1.879 56 153 56
1.130 5.619 -1.941 56 153 56
4.404 -4.016 -1.504 244 35 150
4.086 6.289 -1.876 56 153 56
8.226 -0.770 -1.644 127 63 127
15.631 1.605 -1.548 127 63 127
6.891 15.323 -2.290 56 153 56
5.438 2.139 -1.712 127 63 127
5.719 15.641 -0.172 56 153 56
6.177 -25.857 -0.921 89 89 89
-10.082 -4.596 -1.454 56 153 56
6.017 -4.283 -1.487 244 35 150
0.429 5.456 -1.945 244 35 150
3.596 -8.352 -1.358 244 35 150
-13.617 10.158 -0.515 56 153 56
-17.528 -0.124 -1.986 127 63 127
-8.695 10.756 -0.631 56 153 56
0.668 10.844 -2.249 56 153 56
14.740 32.153 -2.656 244 35 150
4.675 -1.502 -1.618 244 35 150
8.230 -0.136 -1.643 127 63 127
9.501 6.953 -1.771 56 153 56
-9.912 7.896 -1.092 56 153 56
3.588 -5.359 -1.440 244 35 150
-8.831 13.989 0.021 56 153 56
-6.015 4.320 -2.076 244 35 150
-3.110 11.125 0.550 56 153 56
-35.087 1.306 -2.476 127 63 127
-2.277 9.944 -2.276 56 153 56
34.310 -12.623 -0.551 89 89 89
-15.327 7.300 -0.228 56 153 56
-11.528 7.541 -0.155 56 153 56
27.476 13.260 0.295 255 216 25
12.800 5.596 -1.860 127 63 127
7.485 2.008 -1.687 127 63 127
-11.869 7.678 -1.322 56 153 56
-12.554 10.492 0.504 56 153 56
0.811 -5.092 0.182 255 216 25
0.263 -3.839 -1.538 56 153 56
15.146 6.327 -1.832 127 63 127
-9.705 -7.769 -2.035 56 153 56
-15.887 -11.969 -2.645 56 153 56
-5.560 4.080 -2.074 244 35 150
-8.602 12.871 -1.925 56 153 56
-13.934 2.456 -2.157 127 63 127
-9.241 9.835 -1.170 56 153 56
1.291 -11.966 -1.283 56 153 56
-1.568 -3.716 -1.563 244 35 150
3.086 3.069 -1.813 127 63 127
-10.262 10.411 -1.972 56 153 56
-7.726 17.571 -1.254 56 153 56
4.251 -3.009 -1.562 244 35 150
-6.724 0.701 -1.943 127 63 127
-13.779 -2.257 -1.896 244 35 150
-11.396 10.308 0.652 56 153 56
0.156 5.939 -1.948 56 153 56
-0.380 -4.381 -1.503 56 153 56
7.000 11.665 -1.762 56 153 56
6.506 -0.157 -1.643 127 63 127
2.203 3.668 -1.940 127 63 127
0.569 5.262 -1.939 244 35 150
-10.613 -26.781 -2.365 56 153 56
6.834 -3.693 -1.160 255 216 25
7.136 -3.193 -1.366 244 35 150
34.366 -14.886 0.161 89 89 89
12.462 -2.187 -1.642 127 63 127
-9.045 9.240 -0.739 56 153 56
14.096 3.014 -1.653 127 63 127
0.020 -9.188 -1.368 56 153 56
-10.222 7.786 -1.714 56 153 56
-12.617 6.767 0.104 56 153 56
-34.751 8.583 -1.902 56 153 56
-1.787 10.729 -0.188 56 153 56
16.971 -18.623 -0.734 51 127 229
-22.232 -18.637 0.986 56 153 56
-7.696 14.828 -1.182 56 153 56
6.997 -25.656 0.529 56 153 56
-9.789 8.878 -1.062 56 153 56
12.124 -5.048 -1.462 244 35 150
7.061 17.832 -2.077 56 153 56
-11.885 11.583 0.591 56 153 56
-9.729 9.921 0.453 56 153 56
2.846 -5.099 -1.460 244 35 150
-32.157 6.632 -2.507 56 153 56
-2.215 4.196 -2.098 244 35 150
7.706 18.335 0.246 56 153 56
-12.769 5.409 -2.242 244 35 150
-5.318 -11.239 0.183 56 153 56
-15.233 6.671 -1.085 56 153 56
0.332 15.629 -2.548 56 153 56
27.034 22.930 -1.175 255 216 25
-36.257 -31.087 -0.334 56 153 56
-1.580 -4.849 -1.532 56 153 56
0.702 -7.887 -1.353 56 153 56
0.930 -4.355 -0.056 255 216 25
-8.816 16.528 0.580 56 153 56
-3.232 5.078 -2.049 244 35 150
-9.779 -4.293 -0.785 56 153 56
13.793 11.054 -1.893 56 153 56
21.557 28.404 -2.443 127 63 127
5.570 -6.767 -1.387 244 35 150
-13.114 39.222 -0.403 56 153 56
4.834 -5.455 -1.456 244 35 150
-13.362 6.566 -1.947 56 153 56
5.740 -2.051 -1.564 244 35 150
4.905 1.017 -1.694 127 63 127
7.582 -0.728 -1.635 127 63 127
11.924 2.668 -1.685 127 63 127
-8.009 6.840 -2.156 56 153 56
-0.804 -6.962 -0.432 56 153 56
-26.232 6.766 0.192 56 153 56
-25.663 3.842 -2.415 244 35 150
11.054 -7.941 -1.110 56 153 56
13.997 15.894 -0.493 56 153 56
4.752 1.707 -1.718 127 63 127
2.806 9.792 -2.106 56 153 56
4.613 -4.127 -1.514 244 35 150
6.896 1.467 -1.655 127 63 127
13.092 -17.314 -0.725 229 38 38
7.780 -5.205 -1.423 244 35 150
14.309 -0.744 -1.558 127 63 127
-12.167 8.284 0.108 56 153 56
-10.448 -11.214 0.653 56 153 56
-8.111 12.503 -0.238 56 153 56
1.664 4.312 -1.997 127 63 127
3.001 -3.985 -1.523 244 35 150
33.596 13.566 -1.624 56 153 56
26.079 -0.706 -1.410 127 63 127
30.893 -8.820 0.947 89 89 89
4.638 2.432 -1.751 127 63 127
-12.997 7.811 -0.717 56 153 56
3.002 -5.270 -1.470 244 35 150
6.920 -3.552 -0.773 255 216 25
-4.495 8.121 -2.129 56 153 56
27.400 -35.574 0.174 89 89 89
2.043 -8.412 -1.357 244 35 150
-10.587 -9.783 0.703 56 153 56
4.658 -2.123 -1.592 244 35 150
-12.605 10.718 -0.093 56 153 56
5.832 -25.722 -1.063 89 89 89
-7.624 -13.240 -0.489 56 153 56
3.736 -2.844 -1.564 244 35 150
21.198 -5.695 -0.490 51 127 229
-5.571 8.024 -2.163 244 35 150
-3.451 -3.754 -1.612 244 35 150
1.237 9.013 -2.102 56 153 56
7.355 7.323 -1.827 56 153 56
-5.242 -8.506 -1.597 56 153 56
-2.975 4.788 -2.027 244 35 150
-10.739 5.205 -2.206 244 35 150
18.398 2.618 -1.513 127 63 127
6.333 -5.338 -1.442 56 153 56
-6.650 -5.040 -1.708 56 153 56
-8.142 17.620 -1.175 56 153 56
0.010 -5.400 -1.431 56 153 56
-8.045 15.270 -0.819 56 153 56
-6.629 -6.153 -1.696 56 153 56
-20.050 -26.563 -1.581 255 216 25
-0.449 7.860 -1.970 56 153 56
5.894 1.828 -1.689 127 63 127
-9.779 4.305 -2.183 244 35 150
12.443 -29.046 1.123 56 153 56
5.559 -17.482 -0.783 255 216 25
15.130 9.719 -1.926 244 35 150
1.061 -5.152 -1.385 56 153 56
24.258 6.634 -1.660 127 63 127
-16.860 -14.206 -2.956 89 89 89
-8.395 10.914 -0.700 56 153 56
-2.167 5.269 -2.001 244 35 150
16.156 -0.901 -1.486 127 63 127
-12.233 6.428 -2.234 56 153 56
-6.483 4.094 -2.097 244 35 150
-3.147 14.542 -2.550 56 153 56
-1.666 10.746 -0.067 56 153 56
8.230 -0.446 -1.642 127 63 127
-5.400 3.639 -2.078 127 63 127
6.504 11.916 -1.338 56 153 56
23.018 -1.403 -1.382 127 63 127
-9.336 10.359 -1.473 56 153 56
-23.434 -15.628 -0.080 56 153 56
-13.650 3.491 -2.281 127 63 127
-2.392 -5.297 -1.530 56 153 56
-36.446 9.917 -2.472 56 153 56
-2.908 -16.664 -0.979 89 89 89
-9.977 -12.325 0.541 56 153 56
-7.374 4.002 -2.153 127 63 127
6.840 -3.739 -0.828 255 216 25
3.431 -3.034 -1.569 244 35 150
-2.808 -13.987 0.761 56 153 56
-1.260 10.689 -1.624 56 153 56
-0.331 -5.283 -1.466 56 153 56
6.990 -3.459 -0.171 255 216 25
-21.393 -4.209 -1.057 56 153 56
-13.042 39.988 0.817 56 153 56
7.559 -10.669 -1.289 244 35 150
-7.531 13.429 -1.257 56 153 56
5.569 -4.406 -1.484 244 35 150
2.351 -7.080 -1.423 244 35 150
6.337 11.919 -0.426 56 153 56
-7.259 13.777 -2.669 56 153 56
-3.353 -13.727 -1.473 56 153 56
-15.507 -4.507 -1.628 56 153 56
-13.429 38.862 0.801 56 153 56
13.175 13.337 -0.539 56 153 56
-12.527 -28.263 -2.372 56 153 56
13.679 -9.047 -0.789 56 153 56
0.861 -4.724 0.099 255 216 25
4.316 2.065 -1.731 127 63 127
5.182 1.609 -1.699 127 63 127
-9.768 -6.015 -1.373 56 153 56
-8.888 0.426 -2.013 127 63 127
-3.162 -15.467 0.639 56 153 56
-4.954 5.738 -2.014 244 35 150
-6.138 -12.641 -1.381 56 153 56
-2.162 12.090 -0.160 56 153 56
-0.147 -4.669 -1.506 56 153 56
-9.237 -15.275 0.475 56 153 56
27.020 22.562 1.168 56 153 56
7.601 -1.397 -1.588 244 35 150
5.163 0.495 -1.654 127 63 127
-3.569 -5.701 -0.732 56 153 56
-6.775 7.835 -2.206 56 153 56
-4.652 -5.666 -1.603 56 153 56
-25.148 -15.197 -0.454 56 153 56
-1.027 -3.589 -1.597 244 35 150
1.977 -3.410 -1.569 244 35 150
1.524 7.052 -1.884 56 153 56
-12.093 1.191 -2.060 127 63 127
-3.132 4.190 -2.036 244 35 150
28.123 38.619 -2.508 244 35 150
-10.134 5.910 -2.168 56 153 56
-8.625 12.399 0.655 56 153 56
19.468 9.181 -1.792 127 63 127
2.984 -4.683 -1.475 244 35 150
6.903 5.279 -1.846 244 35 150
-7.010 -4.664 -1.727 56 153 56
7.063 -26.867 -1.134 56 153 56
-10.285 -34.937 0.669 56 153 56
-4.491 -8.219 -1.556 56 153 56
11.216 7.135 -1.863 244 35 150
0.430 -15.248 -1.238 56 153 56
-12.056 10.647 0.675 56 153 56
-12.220 6.809 -0.565 56 153 56
-1.513 4.694 -1.984 244 35 150
-5.281 -5.282 -1.640 56 153 56
36.220 -29.395 1.808 89 89 89
-2.222 -6.102 -1.459 56 153 56
-6.763 0.044 -1.943 127 63 127
-3.606 -10.877 -1.499 56 153 56
-7.592 -5.557 -1.774 56 153 56
-1.452 5.281 -1.990 244 35 150
0.167 -6.768 -1.390 56 153 56
14.865 -17.131 -0.239 229 38 38
4.996 6.372 -1.861 56 153 56
-5.973 1.166 -1.971 127 63 127
26.332 -35.081 -0.370 244 35 150
-3.431 -2.496 -1.666 244 35 150
5.622 6.957 -1.835 56 153 56
-3.218 -5.792 -1.498 56 153 56
-12.091 7.644 -2.027 56 153 56
1.254 -12.813 -1.250 56 153 56
-8.966 11.133 -1.594 56 153 56
-10.099 7.981 -0.956 56 153 56
-0.069 -4.261 -1.494 56 153 56
-13.702 1.580 -2.102 127 63 127
15.682 21.156 -2.085 56 153 56
-1.301 -3.556 -1.589 244 35 150
-4.383 4.037 -2.062 127 63 127
5.188 -5.747 -1.422 244 35 150
-18.531 -4.342 -0.307 56 153 56
12.452 8.287 -1.841 56 153 56
-1.408 -22.104 -0.714 56 153 56
-9.980 11.371 0.650 56 153 56
2.394 4.112 -1.947 127 63 127
-0.641 -3.953 -1.530 56 153 56
-1.047 7.358 -2.000 56 153 56
8.342 -3.468 -1.457 244 35 150
-14.616 6.864 -0.490 56 153 56
0.475 -8.005 -1.373 56 153 56
-7.381 -1.367 -1.836 127 63 127
-1.132 10.324 0.400 56 153 56
37.751 -6.497 -0.790 89 89 89
7.167 -6.276 -1.117 56 153 56
-3.702 -5.518 -0.770 56 153 56
6.675 18.386 -2.471 56 153 56
3.810 -6.406 -1.426 244 35 150
-6.433 4.601 -2.095 244 35 150
-11.725 4.375 -2.211 244 35 150
-10.247 -4.100 -1.100 56 153 56
-1.589 5.253 -1.992 244 35 150
0.800 -5.054 0.025 255 216 25
13.473 15.849 -0.250 56 153 56
-9.906 -11.502 -0.107 56 153 56
-4.971 4.316 -2.052 244 35 150
-8.436 16.199 -2.421 56 153 56
27.731 -34.174 1.452 89 89 89
7.274 1.967 -1.700 127 63 127
3.142 15.318 -2.395 56 153 56
6.234 0.254 -1.630 127 63 127
-1.988 -3.354 -1.614 244 35 150
-18.203 -4.332 -1.444 56 153 56
-12.350 4.259 -2.220 244 35 150
22.336 1.215 -1.448 127 63 127
-13.290 -27.292 -2.505 56 153 56
-9.737 -11.642 -0.028 56 153 56
0.467 8.877 -2.052 56 153 56
-8.586 14.262 -2.267 56 153 56
27.111 -16.720 -0.795 244 35 150
9.354 7.289 -1.786 56 153 56
-6.818 5.068 -2.096 244 35 150
5.539 -2.435 -1.547 244 35 150
11.868 -4.431 -1.492 244 35 150
7.144 9.985 -1.981 56 153 56
6.130 -4.153 -1.493 244 35 150
-5.461 4.470 -2.057 244 35 150
1.343 4.523 -1.928 244 35 150
-9.040 -1.473 -1.904 127 63 127
17.864 -2.002 -1.447 127 63 127
2.016 -3.394 -1.572 244 35 150
8.165 -3.787 -1.450 244 35 150
-10.682 7.762 -2.131 56 153 56
-8.235 15.228 -1.540 56 153 56
-12.988 8.220 -0.266 56 153 56
5.558 4.781 -1.825 244 35 150
-12.174 -0.062 -1.892 127 63 127
3.132 -7.011 -1.400 244 35 150
-9.631 2.568 -2.106 127 63 127
35.328 -33.659 0.160 89 89 89
11.806 -4.513 -1.488 244 35 150
1.327 -7.038 -1.417 244 35 150
-9.493 8.341 -0.419 56 153 56
12.740 11.575 -0.053 56 153 56
10.327 1.630 -1.645 127 63 127
-5.923 1.302 -1.965 127 63 127
5.763 1.592 -1.675 127 63 127
-2.715 7.108 -0.869 255 216 25
-2.679 7.040 -0.493 255 216 25
-0.096 -16.288 -1.235 56 153 56
-5.680 -3.134 -1.695 244 35 150
2.901 -2.691 -1.629 244 35 150
11.336 6.667 -1.840 244 35 150
8.380 3.189 -1.736 127 63 127
0.873 -3.711 -1.558 244 35 150
-1.159 4.352 -2.009 244 35 150
15.518 -4.052 -1.568 127 63 127
-0.973 4.789 -1.975 244 35 150
0.739 4.336 -1.989 244 35 150
-12.263 6.983 -1.898 56 153 56
7.924 11.212 0.653 56 153 56
36.435 12.574 -0.609 56 153 56
2.792 9.296 -2.084 56 153 56
-13.675 -5.145 -0.724 56 153 56
2.931 -7.080 -1.396 244 35 150
2.743 12.418 -2.266 56 153 56
8.415 -1.979 -1.536 244 35 150
-9.107 10.559 -0.551 56 153 56
-12.505 2.860 -2.178 127 63 127
2.228 -8.078 -1.370 244 35 150
-13.636 0.443 -2.081 127 63 127
2.850 -2.772 -1.592 244 35 150
0.161 4.391 -1.981 244 35 150
-2.739 -5.805 -1.510 56 153 56
11.608 10.722 -1.959 56 153 56
0.853 -4.826 0.184 255 216 25
17.411 7.118 -1.777 127 63 127
-10.718 9.819 0.283 56 153 56
-7.029 0.583 -1.953 127 63 127
12.439 -14.065 -1.270 244 35 150
-1.970 -3.639 -1.579 244 35 150
0.551 -4.109 -1.493 56 153 56
-6.479 8.030 -2.198 244 35 150
1.339 6.234 -1.901 56 153 56
4.051 -5.482 -1.462 244 35 150
-3.804 -13.235 -1.500 56 153 56
11.168 -10.430 -1.081 56 153 56
0.065 -11.111 -1.318 56 153 56
2.402 5.936 -1.911 56 153 56
-2.715 10.116 -2.246 56 153 56
5.318 2.111 -1.735 127 63 127
7.133 -3.214 -1.096 255 216 25
2.391 3.577 -1.905 127 63 127
4.722 -2.275 -1.584 244 35 150
27.302 9.310 0.995 255 216 25
1.392 5.749 -1.944 56 153 56
4.178 2.786 -1.772 127 63 127
4.057 -2.437 -1.585 244 35 150
-1.546 -6.892 -1.400 56 153 56
-0.378 -21.168 -1.190 56 153 56
-3.029 -13.424 -1.428 56 153 56
7.334 7.347 -1.827 56 153 56
4.733 -5.543 -1.456 244 35 150
-12.908 6.222 -0.503 56 153 56
3.710 9.092 -2.027 56 153 56
3.491 4.453 -1.963 244 35 150
9.545 14.846 -2.213 56 153 56
13.255 -27.533 1.092 56 153 56
-1.396 10.204 -1.651 56 153 56
0.102 -4.180 -1.460 56 153 56
5.217 -2.403 -1.557 244 35 150
-2.863 -7.367 -1.450 56 153 56
4.263 -1.839 -1.612 244 35 150
-19.899 -4.034 0.027 56 153 56
-7.054 0.197 -1.953 127 63 127
13.092 -19.269 0.883 56 153 56
-11.968 8.246 -1.185 56 153 56
17.822 -17.818 -0.423 51 127 229
-13.517 -2.643 -1.867 244 35 150
2.768 -3.066 -1.564 244 35 150
-9.789 8.753 -0.977 56 153 56
-3.571 4.153 -2.011 244 35 150
6.044 -3.777 -1.495 244 35 150
2.641 8.534 -1.991 56 153 56
6.045 -0.790 -1.638 127 63 127
35.331 -31.214 0.161 89 89 89
1.884 -7.431 -1.395 244 35 150
13.127 0.057 -1.571 127 63 127
-25.394 6.682 -0.722 56 153 56
17.167 -12.400 -0.590 51 127 229
9.398 1.738 -1.651 127 63 127
-21.583 -20.613 -2.102 89 89 89
3.570 -8.359 -1.357 244 35 150
5.365 -0.117 -1.656 127 63 127
15.508 -1.046 -1.521 127 63 127
-13.651 -5.277 -0.800 56 153 56
-16.003 -4.585 -0.045 56 153 56
-31.060 6.876 -0.718 56 153 56
4.415 10.123 -2.055 56 153 56
-31.885 -1.707 -2.271 244 35 150
3.405 4.905 -1.908 244 35 150
9.803 2.577 -1.687 127 63 127
-16.143 1.506 -2.143 127 63 127
0.952 -4.438 -0.254 255 216 25
-10.582 -11.473 0.835 56 153 56
33.738 13.933 -1.638 56 153 56
6.674 25.456 -2.747 56 153 56
-3.467 4.325 -2.039 244 35 150
-7.628 3.319 -2.131 127 63 127
-3.997 3.169 -2.000 127 63 127
-7.529 0.084 -1.973 127 63 127
-6.466 -0.732 -1.785 127 63 127
4.588 1.544 -1.689 127 63 127
6.070 3.528 -1.816 127 63 127
18.328 -17.871 -0.125 51 127 229
-6.893 -3.842 -1.685 56 153 56
3.738 -2.691 -1.583 244 35 150
4.581 -6.721 -1.403 244 35 150
-8.565 14.593 -2.308 56 153 56
17.869 4.463 -1.618 127 63 127
-0.512 -8.101 -1.320 56 153 56
-3.965 -4.171 -1.576 56 153 56
19.385 10.720 -1.446 51 127 229
-7.436 -1.599 -1.779 244 35 150
-3.798 -2.276 -1.703 244 35 150
-22.275 -1.984 -1.922 244 35 150
-12.512 -3.927 -1.669 56 153 56
-7.119 1.400 -1.965 127 63 127
-0.443 11.055 -2.290 56 153 56
2.757 3.154 -1.851 127 63 127
-12.066 7.821 -0.581 56 153 56
-12.056 6.592 -1.784 56 153 56
31.055 -6.052 -0.233 255 216 25
-23.075 -22.343 -2.468 89 89 89
-7.975 13.871 -1.022 56 153 56
2.893 8.053 -1.975 56 153 56
-38.025 -30.916 -2.709 56 153 56
1.778 -15.675 -1.191 244 35 150
5.184 3.935 -1.852 127 63 127
-10.429 -1.383 -1.887 127 63 127
15.822 2.207 -1.578 127 63 127
7.054 -12.638 -1.265 244 35 150
1.291 9.511 -2.143 56 153 56
2.232 5.220 -1.925 244 35 150
-0.896 -4.257 -1.540 56 153 56
-0.874 -7.025 0.464 56 153 56
-18.056 -19.964 -2.871 56 153 56
7.210 12.849 -0.293 56 153 56
1.072 -5.400 -1.365 56 153 56
-5.424 6.316 -2.061 244 35 150
5.360 -2.426 -1.557 244 35 150
-26.927 11.754 -1.004 56 153 56
-3.843 3.421 -2.024 127 63 127
10.321 -6.089 -1.105 56 153 56
-14.712 7.596 -1.374 56 153 56
6.542 2.221 -1.697 127 63 127
26.856 24.921 -2.078 56 153 56
-6.255 -12.624 -0.767 56 153 56
4.928 17.731 -0.751 56 153 56
-12.582 10.733 -0.206 56 153 56
22.283 7.960 -1.708 127 63 127
-24.637 -15.509 1.132 56 153 56
-13.689 8.599 -0.857 56 153 56
2.309 3.805 -1.922 127 63 127
10.257 -0.670 -1.605 127 63 127
-5.838 -2.892 -1.705 244 35 150
6.280 -25.914 -0.433 56 153 56
14.566 5.022 -1.785 127 63 127
5.922 -8.997 -1.330 244 35 150
-8.408 13.384 -1.690 56 153 56
1.990 4.329 -1.950 244 35 150
14.424 12.695 -1.954 56 153 56
-8.267 -1.456 -1.884 127 63 127
15.507 15.551 -1.980 56 153 56
6.054 -4.624 -1.475 244 35 150
11.840 -23.450 0.042 89 89 89
5.341 3.406 -1.797 127 63 127
-5.279 -1.428 -1.834 127 63 127
2.203 -3.380 -1.557 244 35 150
2.563 -5.893 -1.431 244 35 150
-0.164 -9.180 -1.367 56 153 56
-2.490 6.384 -1.944 56 153 56
-17.845 7.614 0.645 56 153 56
3.930 -7.788 -1.373 244 35 150
-7.879 14.048 -0.951 56 153 56
3.034 8.161 -1.939 56 153 56
-15.776 -11.847 -2.622 56 153 56
11.927 -30.227 -0.199 56 153 56
-2.378 -9.229 -1.427 56 153 56
-7.244 -2.962 -1.742 244 35 150
12.450 2.631 -1.671 127 63 127
38.080 10.556 -1.561 127 63 127
5.697 2.657 -1.730 127 63 127
-9.177 10.094 -0.622 56 153 56
2.197 -9.356 -1.347 244 35 150
1.025 -4.180 -0.819 255 216 25
-14.030 38.937 -0.692 56 153 56
-3.606 -5.613 -0.885 56 153 56
2.452 3.516 -1.898 127 63 127
-0.408 -3.937 -1.507 56 153 56
-3.038 -5.531 -1.557 56 153 56
-8.151 11.075 0.521 56 153 56
-5.182 -17.026 -1.589 56 153 56
-20.545 5.345 -2.338 244 35 150
27.398 -36.038 0.174 89 89 89
3.995 -3.993 -1.511 244 35 150
35.130 -5.939 -0.538 229 38 38
6.940 -3.515 -0.880 255 216 25
37.438 27.253 0.907 56 153 56
0.634 -17.962 -1.179 56 153 56
-8.845 -2.259 -1.817 244 35 150
-10.622 -34.916 -1.540 56 153 56
0.063 -4.203 -1.470 56 153 56
9.122 18.525 0.658 56 153 56
11.512 -8.457 -0.919 56 153 56
-13.022 7.587 -1.064 56 153 56
-14.510 -15.043 -2.789 56 153 56
7.566 8.394 -1.914 56 153 56
-10.282 8.877 -1.433 56 153 56
1.792 -14.831 -1.210 244 35 150
10.998 -23.778 -0.758 89 89 89
-0.249 -5.142 -1.474 56 153 56
-0.898 5.490 -1.966 244 35 150
5.989 1.207 -1.665 127 63 127
11.563 -12.011 -1.297 244 35 150
11.042 -4.524 -1.472 244 35 150
-4.891 2.397 -1.965 127 63 127
7.486 1.983 -1.685 127 63 127
17.343 -17.701 -0.558 51 127 229
3.826 -10.345 -1.312 244 35 150
-34.432 -3.614 -2.083 244 35 150
0.301 -4.628 -1.490 56 153 56
-0.082 5.791 -1.955 56 153 56
8.536 -2.452 -1.502 244 35 150
5.342 -2.816 -1.540 244 35 150
-0.669 -7.063 0.165 56 153 56
-6.356 3.438 -2.100 127 63 127
-0.651 -7.155 0.032 56 153 56
0.433 -4.183 -1.466 56 153 56
-2.960 10.995 -2.355 56 153 56
-31.914 6.547 -0.153 56 153 56
13.168 13.621 -0.078 56 153 56
-9.224 11.340 -1.280 56 153 56
-4.163 -8.202 -1.525 56 153 56
-12.036 8.922 0.282 56 153 56
6.256 0.038 -1.632 127 63 127
-9.662 -17.563 -2.435 56 153 56
17.821 -18.332 -1.210 244 35 150
-3.382 -2.740 -1.659 244 35 150
4.681 2.312 -1.743 127 63 127
4.949 3.295 -1.818 127 63 127
13.019 16.454 0.255 56 153 56
-0.684 -7.132 -0.269 56 153 56
-12.295 6.370 0.104 56 153 56
10.212 8.795 -1.895 56 153 56
-11.596 7.598 -0.226 56 153 56
8.661 17.535 -2.333 56 153 56
-2.753 -2.663 -1.659 244 35 150
2.158 3.778 -1.927 127 63 127
-8.116 3.978 -2.142 127 63 127
-11.170 -12.452 0.272 56 153 56
27.076 -16.758 -0.795 244 35 150
-5.831 -1.231 -1.812 127 63 127
-9.608 -12.051 0.171 56 153 56
8.431 2.121 -1.674 127 63 127
12.187 -0.360 -1.581 127 63 127
3.226 19.531 -2.727 56 153 56
-26.289 -34.029 -2.650 56 153 56
6.755 -8.200 -1.120 56 153 56
5.426 -5.251 -1.456 244 35 150
-3.699 -2.172 -1.695 244 35 150
-0.570 4.497 -1.987 244 35 150
4.796 0.194 -1.652 127 63 127
3.000 3.905 -1.920 127 63 127
-7.725 9.630 -2.292 56 153 56
6.813 -6.721 -0.989 56 153 56
14.834 -1.632 -1.542 127 63 127
3.291 -3.789 -1.534 244 35 150
-19.805 2.781 -2.310 127 63 127
17.105 16.300 -1.992 56 153 56
-1.333 -3.555 -1.594 244 35 150
-2.738 5.420 -2.026 244 35 150
19.815 -18.071 -1.113 127 63 127
-4.710 2.902 -2.006 127 63 127
6.674 15.426 -2.292 56 153 56
10.752 -3.335 -1.512 244 35 150
2.521 -3.263 -1.558 244 35 150
-1.009 -7.070 -0.790 56 153 56
-6.439 6.734 -2.128 244 35 150
5.561 -6.411 -1.401 244 35 150
19.406 2.150 -1.482 127 63 127
20.434 13.726 -1.933 127 63 127
3.900 -1.622 -1.630 244 35 150
-14.675 -14.967 -1.782 56 153 56
0.516 -4.403 -1.458 56 153 56
2.733 3.095 -1.868 127 63 127
-3.553 -5.778 -1.031 56 153 56
-2.372 10.700 0.531 56 153 56
-2.761 4.714 -2.020 244 35 150
30.177 -12.126 -0.824 244 35 150
3.693 9.872 -2.082 56 153 56
-1.268 6.349 -1.918 56 153 56
-1.567 -4.722 -1.539 56 153 56
0.486 -5.894 -1.429 56 153 56
16.658 -5.676 -1.514 127 63 127
20.141 16.077 -2.032 127 63 127
-2.535 -5.195 -1.523 56 153 56
11.360 17.330 0.154 56 153 56
-12.291 8.989 -1.073 56 153 56
1.892 -5.739 -1.461 244 35 150
11.044 11.994 -2.029 56 153 56
4.326 -8.526 -1.344 244 35 150
6.333 -4.247 -1.480 244 35 150
8.676 -2.260 -1.518 244 35 150
4.482 7.010 -1.847 56 153 56
-12.971 8.379 0.106 56 153 56
-5.943 -24.504 -1.581 56 153 56
0.728 4.699 -1.939 244 35 150
-10.615 6.250 -2.175 56 153 56
-1.324 -3.892 -1.552 56 153 56
-13.368 -5.101 0.807 56 153 56
-8.000 -32.260 -2.165 56 153 56
-6.212 -12.563 -1.196 56 153 56
-8.596 13.240 0.388 56 153 56
8.906 21.299 -2.532 56 153 56
24.326 -14.340 -1.033 244 35 150
16.159 -2.129 -1.495 127 63 127
-4.448 -4.380 -1.611 56 153 56
7.368 3.257 -1.766 127 63 127
0.321 -3.812 -1.528 56 153 56
-8.871 10.822 -0.553 56 153 56
10.751 9.101 -1.887 56 153 56
-1.478 -4.870 -1.528 56 153 56
-2.874 -4.311 -1.578 56 153 56
-7.652 -5.360 -1.762 56 153 56
0.906 -3.678 -1.547 244 35 150
2.865 -7.871 -1.371 244 35 150
-0.384 18.059 -2.778 56 153 56
16.134 -3.907 -1.522 127 63 127
-9.743 3.165 -2.169 127 63 127
3.688 -4.015 -1.515 244 35 150
-12.849 5.142 -2.238 244 35 150
4.780 6.453 -1.846 56 153 56
21.437 -6.087 -0.253 51 127 229
-6.308 -13.199 -0.734 56 153 56
7.757 3.146 -1.764 127 63 127
-1.834 -5.356 -1.522 56 153 56
19.368 9.889 -1.156 51 127 229
-12.376 2.572 -2.145 127 63 127
-0.311 11.294 0.076 56 153 56
-10.345 -34.936 -1.110 56 153 56
-0.834 -7.002 -0.010 56 153 56
-9.840 8.988 -0.833 56 153 56
-8.208 12.835 -1.892 56 153 56
-2.219 4.611 -2.007 244 35 150
13.061 7.517 -1.854 244 35 150
19.801 9.320 -1.048 51 127 229
-3.925 3.005 -1.977 127 63 127
-5.613 -6.658 -1.623 56 153 56
-1.896 5.927 -1.970 56 153 56
-14.255 -4.665 -0.751 56 153 56
-3.634 -5.601 0.472 56 153 56
-13.373 -1.511 -1.971 127 63 127
0.423 4.357 -1.976 244 35 150
3.159 -8.966 -1.332 244 35 150
15.776 5.391 -1.765 127 63 127
25.576 -12.248 -1.041 244 35 150
21.129 2.673 -1.512 127 63 127
4.995 1.053 -1.686 127 63 127
7.912 7.484 -1.839 56 153 56
3.414 2.278 -1.801 127 63 127
12.518 0.895 -1.582 127 63 127
-2.823 -2.766 -1.666 244 35 150
22.070 6.311 -1.650 127 63 127
2.413 7.549 -1.907 56 153 56
-0.188 -6.271 -1.394 56 153 56
4.196 -1.266 -1.705 127 63 127
8.095 -3.299 -1.470 244 35 150
4.777 0.412 -1.655 127 63 127
7.231 11.700 -0.841 56 153 56
-6.432 -0.350 -1.766 127 63 127
-9.056 10.079 -1.345 56 153 56
-13.489 13.742 0.432 56 153 56
5.169 5.699 -1.844 244 35 150
6.677 11.477 -0.007 56 153 56
31.642 -20.293 -0.071 89 89 89
-23.604 -16.675 -0.294 56 153 56
2.964 7.937 -1.954 56 153 56
14.224 17.834 -2.065 56 153 56
15.588 -15.431 0.200 255 216 25
-5.209 -5.632 -1.622 56 153 56
31.310 -18.250 -0.285 89 89 89
-2.154 4.206 -2.043 244 35 150
-0.708 -6.973 -0.642 56 153 56
-13.783 -4.552 -1.062 56 153 56
-7.284 -0.993 -1.797 127 63 127
7.771 15.194 -2.251 56 153 56
4.276 3.057 -1.808 127 63 127
-0.916 -4.255 -1.542 56 153 56
6.645 11.896 -1.001 56 153 56
29.982 16.427 -0.283 255 216 25
-3.770 -2.890 -1.648 244 35 150
-2.717 6.562 -0.586 255 216 25
4.364 -3.421 -1.551 244 35 150
10.295 1.162 -1.627 127 63 127
12.541 6.405 -1.815 244 35 150
-2.142 -5.747 -1.502 56 153 56
-17.565 -0.238 -1.990 127 63 127
-0.934 8.086 -2.037 56 153 56
-29.880 -13.644 0.835 56 153 56
8.271 9.019 -1.971 56 153 56
-8.942 11.141 -1.764 56 153 56
6.914 6.907 -1.802 56 153 56
-9.035 9.964 -1.247 56 153 56
7.022 -1.211 -1.650 127 63 127
-5.165 5.931 -2.026 244 35 150
4.827 15.997 -2.202 56 153 56
-4.229 -3.567 -1.647 244 35 150
4.735 -6.093 -1.414 244 35 150
27.302 8.786 0.992 255 216 25
-3.100 8.077 -2.073 56 153 56
-0.782 5.952 -1.962 56 153 56
-36.474 -5.800 0.452 56 153 56
5.664 0.886 -1.664 127 63 127
20.556 11.186 -1.826 127 63 127
7.074 -25.821 -0.438 56 153 56
2.360 -6.549 -1.434 244 35 150
-3.561 -5.814 0.183 56 153 56
6.683 -7.072 -1.185 56 153 56
9.399 2.219 -1.672 127 63 127
-4.713 2.409 -1.969 127 63 127
-2.894 -6.007 -1.506 56 153 56
13.187 -19.331 -0.085 56 153 56
14.857 0.986 -1.546 127 63 127
-8.406 17.389 -0.700 56 153 56
-5.539 -14.067 -0.207 56 153 56
6.438 -5.738 -1.368 56 153 56
-2.636 7.338 -0.658 255 216 25
-13.106 -22.444 -2.765 56 153 56
3.489 -3.347 -1.564 244 35 150
-3.535 -5.762 0.388 56 153 56
-4.243 -3.215 -1.649 244 35 150
-0.539 10.570 -2.275 56 153 56
-17.043 0.938 -2.154 127 63 127
3.054 2.654 -1.824 127 63 127
9.098 -7.621 -1.008 56 153 56
-28.955 11.231 -2.530 56 153 56
13.771 14.225 0.864 56 153 56
9.433 10.648 -2.013 56 153 56
-3.271 -8.215 -1.457 56 153 56
-9.006 12.495 0.567 56 153 56
4.247 -2.825 -1.575 244 35 150
12.762 4.012 -1.770 127 63 127
-3.346 -3.297 -1.617 244 35 150
5.156 -7.091 -1.385 244 35 150
-3.066 -7.100 -1.489 56 153 56
-1.208 -3.540 -1.606 244 35 150
-5.762 2.095 -1.994 127 63 127
-8.910 -4.258 -1.665 56 153 56
-13.960 2.483 -2.162 127 63 127
15.916 -26.252 -0.937 244 35 150
0.714 5.107 -1.945 244 35 150
6.552 4.049 -1.836 127 63 127
-1.956 -4.339 -1.562 56 153 56
-6.556 5.903 -2.097 244 35 150
-3.265 -2.560 -1.663 244 35 150
-2.936 -2.983 -1.627 244 35 150
-19.083 -2.175 -1.984 244 35 150
13.136 15.587 0.396 56 153 56
5.088 3.320 -1.795 127 63 127
-2.423 -5.459 -1.516 56 153 56
-1.933 -6.476 -1.451 56 153 56
-9.289 -9.503 -1.931 56 153 56
12.549 -23.478 -0.778 89 89 89
1.188 5.936 -1.934 56 153 56
-1.171 10.736 -0.707 56 153 56
34.698 -7.030 0.570 255 216 25
14.896 -3.789 -1.589 244 35 150
-19.108 -31.730 -2.432 89 89 89
-7.843 14.505 -0.192 56 153 56
-7.755 0.440 -1.974 127 63 127
8.609 17.858 -1.776 56 153 56
-23.637 -26.260 -2.952 56 153 56
-7.286 -4.149 -1.722 56 153 56
6.838 16.104 -2.312 56 153 56
-8.434 15.755 0.126 56 153 56
5.966 6.654 -1.833 56 153 56
6.028 -0.893 -1.637 127 63 127
-9.568 -6.796 -2.003 56 153 56
5.392 1.714 -1.710 127 63 127
-2.356 8.529 -2.126 56 153 56
7.344 11.595 -1.179 56 153 56
6.549 2.131 -1.691 127 63 127
-2.277 -5.856 -1.473 56 153 56
0.877 5.590 -1.961 56 153 56
-22.184 -4.020 -1.657 56 153 56
-11.938 7.619 -1.325 56 153 56
3.473 4.112 -1.916 127 63 127
3.257 3.246 -1.834 127 63 127
1.793 -3.380 -1.599 244 35 150
-4.600 -3.230 -1.682 244 35 150
-0.724 5.051 -1.973 244 35 150
-19.781 7.949 -2.571 56 153 56
3.057 -3.504 -1.538 244 35 150
-15.051 0.215 -2.152 127 63 127
-23.889 -16.219 0.413 56 153 56
-1.393 -22.080 -0.840 56 153 56
-0.060 -5.466 -1.452 56 153 56
-8.922 -34.113 -2.138 56 153 56
5.937 19.043 0.383 56 153 56
-29.145 0.107 -2.387 127 63 127
-8.685 10.614 0.186 56 153 56
18.077 1.392 -1.468 127 63 127
-2.392 4.084 -2.088 127 63 127
-4.349 3.171 -2.017 127 63 127
6.072 -0.209 -1.639 127 63 127
10.832 0.962 -1.605 127 63 127
4.384 -11.683 -1.283 244 35 150
-8.675 -5.591 -1.065 56 153 56
-26.758 3.754 -2.521 244 35 150
8.184 1.333 -1.666 127 63 127
-3.615 -5.594 -1.201 56 153 56
10.997 15.481 -2.161 56 153 56
-24.223 -3.131 -1.965 244 35 150
8.053 4.051 -1.836 127 63 127
2.809 4.780 -1.924 244 35 150
-10.325 7.544 -0.796 56 153 56
3.731 -10.058 -1.317 244 35 150
-13.590 -16.887 -2.802 56 153 56
4.396 -5.478 -1.457 244 35 150
0.147 -3.968 -1.503 56 153 56
3.605 4.430 -1.933 244 35 150
2.554 12.406 -2.256 56 153 56
3.272 -14.551 -1.211 244 35 150
0.887 -10.393 -1.344 56 153 56
-6.239 -7.639 -1.652 56 153 56
8.936 5.905 -1.802 244 35 150
-3.021 6.693 -1.963 56 153 56
-10.294 7.674 -0.737 56 153 56
-6.429 8.757 -2.233 244 35 150
-0.956 -7.021 -0.782 56 153 56
-4.020 10.392 -2.300 56 153 56
13.134 -19.824 -0.517 56 153 56
14.578 -5.282 -1.505 244 35 150
2.874 -2.706 -1.625 244 35 150
-9.365 18.244 -0.130 56 153 56
0.443 6.739 -1.883 56 153 56
-5.422 6.951 -2.102 244 35 150
1.622 -5.797 -1.456 244 35 150
-1.845 8.618 -2.119 56 153 56
-8.261 4.747 -2.169 244 35 150
6.584 -6.321 -1.287 56 153 56
2.320 5.171 -1.921 244 35 150
-25.534 -14.066 0.772 56 153 56
6.350 3.474 -1.792 127 63 127
5.260 3.784 -1.842 127 63 127
6.144 7.103 -1.841 56 153 56
6.763 -5.541 -1.315 56 153 56
-4.330 -2.984 -1.683 244 35 150
25.848 17.977 -1.391 255 216 25
5.458 -1.897 -1.574 244 35 150
-14.467 37.232 1.083 56 153 56
-1.205 10.703 -0.449 56 153 56
-8.997 5.842 -2.195 56 153 56
9.543 -15.615 -1.224 244 35 150
-7.219 -2.980 -1.738 244 35 150
2.884 -6.285 -1.425 244 35 150
15.322 18.471 -2.028 56 153 56
0.808 -5.106 0.054 255 216 25
16.188 -3.335 -1.516 127 63 127
4.669 10.725 -2.076 56 153 56
31.003 -11.289 -0.840 244 35 150
-31.374 -4.733 0.280 56 153 56
-14.453 -4.493 -1.217 56 153 56
3.274 5.284 -1.918 244 35 150
15.529 0.564 -1.525 127 63 127
-9.614 14.843 0.123 56 153 56
8.615 -14.912 -1.235 244 35 150
-3.865 -2.803 -1.659 244 35 150
2.493 3.453 -1.885 127 63 127
-8.146 6.311 -2.188 56 153 56
7.444 31.892 -2.831 56 153 56
17.556 -16.256 -1.247 244 35 150
9.806 2.462 -1.682 127 63 127
8.625 -8.526 -1.032 56 153 56
1.005 9.146 -2.127 56 153 56
-7.305 3.815 -2.182 127 63 127
-8.529 -3.192 -1.721 244 35 150
-5.055 -3.491 -1.657 244 35 150
3.093 -3.061 -1.579 244 35 150
-9.768 3.256 -2.180 127 63 127
-20.477 -15.280 -2.995 56 153 56
-4.067 -10.870 -1.523 56 153 56
-6.313 0.321 -1.936 127 63 127
-4.698 -11.839 -1.545 56 153 56
6.776 -1.436 -1.526 244 35 150
-0.747 -1.549 -0.583 165 165 165
-10.617 -9.688 0.702 56 153 56
-25.318 4.393 -2.389 244 35 150
-2.494 -4.120 -1.551 56 153 56
-3.987 -7.662 -1.499 56 153 56
3.023 -2.545 -1.629 244 35 150
4.805 0.278 -1.660 127 63 127
9.823 -17.525 -0.890 255 216 25
12.882 13.173 0.472 56 153 56
12.474 13.837 -0.075 56 153 56
9.785 -15.520 -1.229 244 35 150
-10.254 4.187 -2.165 244 35 150
-8.118 -6.595 -1.861 56 153 56
-2.513 -5.071 -1.529 56 153 56
-4.876 5.791 -2.013 244 35 150
34.357 -12.695 0.160 89 89 89
-15.066 -3.351 -1.828 244 35 150
3.137 5.350 -1.913 244 35 150
30.070 12.314 -1.644 244 35 150
-0.856 5.191 -1.971 244 35 150
-8.983 10.473 -2.352 56 153 56
0.849 4.546 -1.931 244 35 150
-15.493 36.042 -0.139 56 153 56
5.637 1.066 -1.667 127 63 127
4.582 -0.186 -1.669 127 63 127
5.640 2.921 -1.751 127 63 127
-9.923 8.659 -0.907 56 153 56
26.221 10.890 -1.763 244 35 150
-4.273 -12.942 0.086 56 153 56
-9.346 9.887 -1.181 56 153 56
0.260 -3.775 -1.553 56 153 56
11.151 -10.187 -1.066 56 153 56
1.117 -7.448 -1.366 56 153 56
4.906 6.405 -1.854 56 153 56
-4.284 5.435 -2.029 244 35 150
0.870 -4.694 0.216 255 216 25
-3.961 -2.283 -1.700 244 35 150
1.798 4.325 -1.961 244 35 150
-39.341 -30.845 -1.894 165 165 165
-1.787 10.563 0.457 56 153 56
-8.095 14.368 -1.863 56 153 56
17.477 19.794 -2.090 56 153 56
-14.481 -14.915 0.138 56 153 56
29.006 -10.891 0.688 56 153 56
1.209 -9.573 -1.351 56 153 56
0.560 5.428 -1.940 244 35 150
5.123 -2.842 -1.545 244 35 150
-9.862 -27.879 -2.260 56 153 56
4.907 -4.057 -1.495 244 35 150
-2.683 7.224 -0.414 255 216 25
-8.445 11.104 -1.044 56 153 56
-11.017 -6.279 -1.602 56 153 56
12.614 17.176 -0.262 56 153 56
4.046 4.619 -1.890 244 35 150
-19.554 -3.811 -1.809 244 35 150
-7.129 -11.353 0.267 56 153 56
6.278 2.412 -1.727 127 63 127
0.729 -4.689 -1.438 56 153 56
-8.947 10.744 -0.877 56 153 56
0.448 4.526 -1.956 244 35 150
3.300 4.071 -1.924 127 63 127
-6.275 -12.462 -0.260 56 153 56
2.825 -5.806 -1.439 244 35 150
0.752 -4.102 -1.502 56 153 56
17.461 -27.180 -0.597 51 127 229
4.459 -1.663 -1.606 244 35 150
-7.672 -3.312 -1.720 244 35 150
12.906 12.690 0.161 56 153 56
7.809 -26.720 -0.466 56 153 56
13.880 -2.920 -1.605 127 63 127
4.451 -10.119 -1.318 244 35 150
3.192 3.363 -1.851 127 63 127
2.501 0.514 -0.927 165 165 165
12.326 14.899 -2.090 56 153 56
3.927 3.315 -1.821 127 63 127
-30.455 8.754 -2.775 56 153 56
-23.525 -16.728 -0.090 56 153 56
5.600 -4.121 -1.508 244 35 150
-29.157 11.241 -2.369 56 153 56
17.191 -12.623 -0.595 51 127 229
11.021 -7.970 -1.109 56 153 56
-1.162 10.628 -1.891 56 153 56
11.742 1.519 -1.623 127 63 127
-5.946 -6.485 -1.643 56 153 56
15.207 9.566 -1.924 244 35 150
-2.299 6.021 -1.966 56 153 56
24.139 16.450 -1.966 244 35 150
7.352 -10.188 -1.302 244 35 150
7.143 11.739 -0.931 56 153 56
-18.423 2.372 -2.228 127 63 127
-9.983 9.173 -2.308 56 153 56
-1.634 4.952 -2.006 244 35 150
-10.398 -4.560 -1.412 56 153 56
4.718 6.478 -1.842 56 153 56
8.472 -8.559 -1.101 56 153 56
-5.866 -11.310 -1.604 56 153 56
-8.628 -3.054 -1.731 244 35 150
-2.665 7.377 -0.900 255 216 25
6.350 3.567 -1.805 127 63 127
-3.070 4.374 -2.032 244 35 150
11.609 -23.467 0.210 89 89 89
-2.054 4.674 -2.006 244 35 150
4.613 -3.284 -1.522 244 35 150
0.481 -3.756 -1.551 56 153 56
7.920 17.242 -2.392 56 153 56
8.246 -25.579 -1.091 89 89 89
3.834 1.955 -1.734 127 63 127
3.761 -4.515 -1.475 244 35 150
26.606 -23.051 -0.686 244 35 150
-6.878 -11.329 -0.705 56 153 56
-11.440 9.793 -1.514 56 153 56
6.859 -3.647 -0.402 255 216 25
28.825 22.722 -1.885 56 153 56
-4.794 7.450 -2.117 244 35 150
-19.453 -5.346 1.014 56 153 56
1.651 -3.479 -1.571 244 35 150
6.031 -0.817 -1.635 127 63 127
8.151 1.593 -1.670 127 63 127
4.334 -2.920 -1.570 244 35 150
-0.326 4.585 -1.968 244 35 150
0.510 -4.585 -1.479 56 153 56
-1.025 6.283 -1.952 56 153 56
4.570 0.210 -1.671 127 63 127
10.451 4.242 -1.795 127 63 127
-11.417 9.006 -1.018 56 153 56
4.916 9.788 -2.037 56 153 56
-1.821 4.886 -2.003 244 35 150
-12.284 6.591 0.589 56 153 56
5.238 2.335 -1.742 127 63 127
-3.920 -5.557 0.477 56 153 56
-3.097 5.857 -2.017 56 153 56
0.821 5.387 -1.938 244 35 150
-5.937 7.195 -2.133 244 35 150
18.055 1.304 -1.466 127 63 127
17.310 -21.178 -0.978 51 127 229
7.144 -25.763 -0.437 56 153 56
23.421 4.269 -1.559 127 63 127
2.890 4.014 -1.930 127 63 127
6.820 6.402 -1.831 56 153 56
6.108 22.896 -2.740 56 153 56
14.012 7.362 -1.845 244 35 150
-1.949 -4.621 -1.557 56 153 56
-9.221 9.577 0.340 56 153 56
-5.857 5.107 -2.061 244 35 150
-2.315 8.658 -2.155 56 153 56
13.301 16.631 -0.261 56 153 56
-35.523 5.555 -1.693 89 89 89
3.473 13.777 -2.309 56 153 56
-22.946 1.939 -2.269 127 63 127
-21.868 5.388 -2.354 244 35 150
-12.285 9.992 0.664 56 153 56
-6.222 -12.506 -0.011 56 153 56
14.164 3.239 -1.669 127 63 127
-19.248 -4.260 -1.301 56 153 56
0.174 17.392 -2.672 56 153 56
7.066 -3.393 -0.742 255 216 25
-10.613 -6.225 -1.253 56 153 56
-3.830 8.341 -2.107 56 153 56
-9.449 -4.418 -1.488 56 153 56
22.458 25.195 -2.303 127 63 127
-9.632 -3.782 -1.675 244 35 150
5.613 -1.409 -1.583 244 35 150
-0.913 6.682 -1.922 56 153 56
8.226 -1.332 -1.656 244 35 150
-6.993 -2.041 -1.775 244 35 150
-9.916 8.416 -1.043 56 153 56
4.519 -5.375 -1.457 244 35 150
5.591 -3.577 -1.504 244 35 150
-7.853 18.040 -0.598 56 153 56
18.094 5.254 -1.661 127 63 127
-3.534 5.402 -2.029 244 35 150
12.222 -7.901 -1.026 56 153 56
9.308 -5.647 -1.317 56 153 56
9.332 -25.665 -0.316 89 89 89
-3.828 -2.476 -1.691 244 35 150
3.957 6.651 -1.346 255 216 25
4.215 -9.422 -1.334 244 35 150
-4.439 3.426 -2.043 127 63 127
-12.966 -5.182 -0.152 56 153 56
6.774 16.747 -0.073 56 153 56
12.411 17.000 -2.162 56 153 56
-7.022 -0.586 -1.802 127 63 127
-10.767 -13.481 0.563 56 153 56
13.171 13.031 -0.297 56 153 56
21.582 -6.651 -0.656 51 127 229
-0.607 -5.310 -1.484 56 153 56
-8.371 9.346 -2.330 56 153 56
5.703 -2.984 -1.524 244 35 150
7.445 16.561 -0.074 56 153 56
-7.837 14.184 -0.958 56 153 56
24.024 21.599 -2.196 244 35 150
-7.699 -3.834 -1.699 244 35 150
-3.811 -3.593 -1.613 244 35 150
-0.218 6.879 -1.918 56 153 56
13.271 16.342 0.255 56 153 56
-13.525 8.242 -0.200 56 153 56
10.363 -20.082 -1.149 56 153 56
-7.913 14.921 -1.815 56 153 56
19.300 -10.802 -1.299 127 63 127
0.100 -4.824 -1.469 56 153 56
9.171 -17.413 -1.204 244 35 150
-9.100 -4.329 -1.626 56 153 56
17.182 -13.361 -0.468 51 127 229
7.918 7.905 -1.894 56 153 56
-0.458 -4.748 -1.505 56 153 56
3.878 4.820 -1.906 244 35 150
4.083 -2.837 -1.581 244 35 150
-1.102 -3.572 -1.602 244 35 150
-14.098 2.731 -2.191 127 63 127
5.898 -0.107 -1.631 127 63 127
-4.694 5.940 -2.014 244 35 150
9.120 19.699 -2.371 56 153 56
-2.512 -28.284 0.930 56 153 56
-0.603 -4.017 -1.518 56 153 56
-12.409 -1.376 -1.943 127 63 127
34.368 -11.548 0.159 89 89 89
-1.494 5.639 -2.004 56 153 56
16.939 -20.111 -0.313 51 127 229
1.481 6.250 -1.915 56 153 56
7.014 -3.345 -0.315 255 216 25
-16.820 37.687 -0.154 56 153 56
4.154 4.435 -1.939 127 63 127
7.330 -10.836 -1.289 244 35 150
15.843 15.151 -1.975 56 153 56
-22.855 -4.165 -1.579 56 153 56
-12.034 7.899 -2.041 56 153 56
-4.993 6.066 -2.025 244 35 150
5.597 1.327 -1.675 127 63 127
4.196 -1.709 -1.619 244 35 150
5.166 -4.149 -1.496 244 35 150
-20.076 -15.483 -2.969 56 153 56
5.582 1.361 -1.673 127 63 127
-0.412 -10.539 -1.361 56 153 56
-12.207 7.044 -1.995 56 153 56
-5.210 -14.929 0.822 56 153 56
7.903 -16.532 -1.222 244 35 150
-1.341 -6.202 -1.417 56 153 56
2.416 -5.142 -1.470 244 35 150
5.256 1.253 -1.687 127 63 127
-1.109 -5.193 -1.533 56 153 56
2.711 -5.093 -1.496 244 35 150
-14.470 -25.369 -2.585 56 153 56
4.363 1.943 -1.726 127 63 127
-1.539 5.760 -2.001 56 153 56
-4.316 6.402 -2.060 56 153 56
-0.355 6.278 -1.932 56 153 56
-1.452 4.976 -1.995 244 35 150
4.802 -7.813 -1.374 244 35 150
4.021 -5.494 -1.461 244 35 150
-2.896 4.828 -2.026 244 35 150
-1.038 -3.629 -1.577 244 35 150
3.111 -2.531 -1.612 244 35 150
-1.583 5.740 -1.999 56 153 56
6.607 1.627 -1.665 127 63 127
-12.866 -5.545 0.285 56 153 56
1.813 3.937 -1.966 127 63 127
-9.288 12.367 -1.264 56 153 56
10.056 29.801 -2.525 56 153 56
1.607 4.419 -1.922 244 35 150
-10.154 8.103 -1.202 56 153 56
-10.542 10.937 0.649 56 153 56
-7.926 13.164 -1.803 56 153 56
-5.775 -4.896 -1.668 56 153 56
-8.974 -4.372 -0.530 56 153 56
-15.930 -18.142 -2.814 56 153 56
16.778 -4.625 -1.498 127 63 127
4.131 4.752 -1.873 244 35 150
36.214 -34.209 1.920 89 89 89
19.559 2.825 -1.503 127 63 127
-18.474 -4.142 -0.304 56 153 56
13.144 11.804 0.462 56 153 56
12.193 -0.399 -1.582 127 63 127
8.179 -28.388 0.711 56 153 56
-7.738 9.614 -2.291 56 153 56
-8.383 7.452 -2.200 56 153 56
-4.013 -11.765 -1.501 56 153 56
-10.177 8.589 -1.723 56 153 56
1.422 -8.579 -1.364 244 35 150
-11.560 -4.685 -1.574 56 153 56
-5.038 3.028 -2.017 127 63 127
-8.013 12.250 -0.157 56 153 56
-5.811 7.809 -2.154 244 35 150
-0.931 -5.741 -1.460 56 153 56
-12.519 -16.086 -2.713 165 165 165
3.884 1.519 -1.712 127 63 127
2.979 6.055 -1.886 56 153 56
-17.938 -15.709 -2.945 56 153 56
13.012 3.423 -1.718 127 63 127
-3.001 -28.893 0.237 56 153 56
2.957 3.253 -1.833 127 63 127
-3.014 -3.553 -1.596 244 35 150
34.389 -11.137 0.160 89 89 89
-10.302 8.642 -1.741 56 153 56
2.789 -6.305 -1.420 244 35 150
6.834 -7.663 -1.147 56 153 56
4.083 4.586 -1.890 244 35 150
11.285 11.322 -1.985 56 153 56
-3.260 -2.691 -1.654 244 35 150
1.833 6.383 -1.902 56 153 56
3.413 2.522 -1.760 127 63 127
-3.605 -5.527 -1.050 56 153 56
2.999 4.659 -1.921 244 35 150
-20.338 8.549 -0.849 56 153 56
-12.782 -5.083 -0.910 56 153 56
-3.920 -5.568 0.136 56 153 56
9.871 -13.027 -1.262 244 35 150
24.480 -0.208 -0.579 51 127 229
-3.548 5.407 -2.033 244 35 150
2.817 21.629 -2.922 56 153 56
-34.216 -3.701 -2.069 244 35 150
-16.367 -7.493 0.498 56 153 56
12.195 8.313 -1.814 56 153 56
7.878 11.221 0.652 56 153 56
6.258 0.048 -1.633 127 63 127
-25.666 -13.994 0.277 56 153 56
13.784 8.246 -1.876 244 35 150
4.897 1.195 -1.708 127 63 127
6.508 -0.464 -1.645 127 63 127
-2.731 4.731 -2.021 244 35 150
-0.077 10.138 -2.266 56 153 56
-3.260 -3.209 -1.628 244 35 150
-25.592 -13.962 0.090 56 153 56
4.151 2.142 -1.741 127 63 127
-12.222 -4.864 -0.626 56 153 56
3.798 -7.528 -1.383 244 35 150
-3.768 3.547 -2.039 127 63 127
-11.046 9.095 -1.598 56 153 56
2.127 4.348 -1.939 244 35 150
-7.708 1.336 -1.990 127 63 127
-0.776 4.694 -1.969 244 35 150
-13.565 -28.513 -2.427 56 153 56
2.080 6.245 -1.885 56 153 56
13.341 15.846 0.024 56 153 56
-2.119 -3.807 -1.568 56 153 56
17.302 -18.356 0.197 51 127 229
28.792 -11.089 0.315 56 153 56
3.359 -4.265 -1.505 244 35 150
1.637 6.096 -1.949 56 153 56
6.024 4.525 -1.875 244 35 150
4.083 1.204 -1.700 127 63 127
-1.664 -3.591 -1.574 244 35 150
-3.529 -4.952 -1.557 56 153 56
-35.993 -5.666 0.450 56 153 56
-12.414 6.260 -1.390 56 153 56
6.699 17.890 0.832 56 153 56
2.292 -6.543 -1.428 244 35 150
5.016 -1.226 -1.715 127 63 127
-14.652 -14.875 0.008 56 153 56
-5.573 -0.857 -1.781 127 63 127
-14.689 6.746 -0.586 56 153 56
-6.302 0.442 -1.935 127 63 127
-29.528 4.302 -2.438 244 35 150
9.499 12.430 0.426 56 153 56
-2.086 -11.814 -1.441 56 153 56
-1.795 -8.650 -1.388 56 153 56
-9.021 -3.479 -1.718 244 35 150
-35.466 -2.867 -2.148 244 35 150
-6.450 -0.959 -1.788 127 63 127
20.716 -6.924 -1.289 127 63 127
2.273 6.914 -1.902 56 153 56
0.201 -3.973 -1.505 56 153 56
2.977 -3.469 -1.560 244 35 150
-6.023 2.347 -1.993 127 63 127
5.052 5.847 -1.853 56 153 56
6.455 6.353 -1.856 56 153 56
3.937 -3.674 -1.554 244 35 150
3.914 -3.022 -1.569 244 35 150
5.035 21.042 -2.750 56 153 56
16.394 4.307 -1.690 127 63 127
13.356 15.834 0.156 56 153 56
-0.644 -17.681 -1.257 56 153 56
5.155 -3.524 -1.536 244 35 150
2.517 -6.762 -1.431 244 35 150
-2.005 -7.149 -1.420 56 153 56
-3.324 -2.493 -1.668 244 35 150
9.206 18.463 0.394 56 153 56
-5.491 -13.555 0.689 56 153 56
11.868 -30.415 0.754 56 153 56
3.746 -13.762 -1.236 244 35 150
-4.250 2.733 -1.970 127 63 127
-9.948 9.348 -1.831 56 153 56
-6.307 -1.357 -1.814 127 63 127
9.470 0.928 -1.639 127 63 127
-2.667 -5.032 -1.541 56 153 56
0.288 5.456 -1.941 244 35 150
9.767 -1.450 -1.620 244 35 150
-38.800 1.621 -2.564 127 63 127
31.628 -34.227 0.947 89 89 89
-5.263 -3.058 -1.692 244 35 150
-6.856 11.103 -2.431 56 153 56
-9.492 10.608 0.030 56 153 56
8.791 5.299 -1.798 244 35 150
1.332 5.103 -1.937 244 35 150
12.176 11.409 -1.961 56 153 56
20.574 12.577 -0.883 51 127 229
6.575 16.635 -0.289 56 153 56
-24.006 0.117 -2.231 127 63 127
-2.669 7.271 -0.887 255 216 25
4.595 2.332 -1.763 127 63 127
4.027 4.657 -1.895 244 35 150
-38.896 1.746 -2.571 127 63 127
-7.589 -0.594 -1.784 127 63 127
3.048 6.533 -1.883 56 153 56
0.740 4.819 -1.947 244 35 150
-4.231 3.448 -2.052 127 63 127
8.076 -3.335 -1.469 244 35 150
3.657 22.325 -2.883 56 153 56
-5.293 -10.615 0.322 56 153 56
-5.452 3.094 -2.052 127 63 127
7.076 -3.254 -0.317 255 216 25
3.399 -2.424 -1.593 244 35 150
36.523 -11.105 0.796 89 89 89
6.102 5.685 -1.846 244 35 150
-4.161 2.165 -1.960 127 63 127
-8.644 -3.012 -1.731 244 35 150
5.000 1.013 -1.685 127 63 127
9.425 -0.309 -1.616 127 63 127
35.718 -34.217 0.988 89 89 89
-5.275 -1.736 -1.746 244 35 150
2.581 5.855 -1.909 56 153 56
-6.190 4.445 -2.087 244 35 150
-8.006 7.520 -2.153 56 153 56
-2.199 -5.710 -1.499 56 153 56
5.418 -6.901 -1.388 244 35 150
6.119 10.790 -2.004 56 153 56
0.763 -10.490 -1.357 56 153 56
6.907 -3.552 -0.878 255 216 25
-13.284 -1.393 -1.955 127 63 127
-2.298 5.551 -2.009 56 153 56
9.021 -3.270 -1.474 244 35 150
3.425 3.321 -1.855 127 63 127
-4.909 -9.731 -1.549 56 153 56
-8.833 -4.535 -0.712 56 153 56
0.630 -25.830 -0.725 89 89 89
-8.980 5.039 -2.183 244 35 150
34.305 -12.499 -0.550 89 89 89
1.067 11.431 -2.273 56 153 56
-0.662 5.823 -1.975 56 153 56
-4.150 6.479 -2.053 56 153 56
0.368 6.753 -1.886 56 153 56
3.955 6.670 -1.509 255 216 25
5.219 -1.326 -1.694 127 63 127
13.097 -1.015 -1.569 127 63 127
-1.496 -3.645 -1.562 244 35 150
0.207 -8.738 -1.370 56 153 56
-16.677 -4.163 -1.417 56 153 56
-4.409 2.074 -1.927 127 63 127
3.220 -5.951 -1.447 244 35 150
7.149 11.290 0.076 56 153 56
3.351 2.665 -1.778 127 63 127
-3.533 -12.697 -1.517 56 153 56
11.246 14.081 -2.134 56 153 56
-10.526 -4.330 -0.925 56 153 56
-5.281 -2.632 -1.715 244 35 150
-7.743 15.394 -0.708 56 153 56
-22.372 -20.374 -1.217 89 89 89
4.823 -3.059 -1.539 244 35 150
1.902 4.875 -1.923 244 35 150
1.292 5.910 -1.934 56 153 56
-2.070 -7.862 -1.397 56 153 56
20.543 6.807 -1.670 127 63 127
-9.284 -4.697 -1.022 56 153 56
16.151 -1.360 -1.488 127 63 127
3.782 3.648 -1.865 127 63 127
-25.394 7.193 -0.437 56 153 56
-0.345 -3.779 -1.569 56 153 56
0.370 -3.984 -1.513 56 153 56
-8.164 5.471 -2.165 244 35 150
-10.383 10.606 -0.598 56 153 56
-1.206 -4.761 -1.512 56 153 56
-3.194 -10.887 -1.483 56 153 56
-1.318 10.700 0.272 56 153 56
-16.544 3.301 -2.307 127 63 127
-5.338 12.178 -2.481 244 35 150
-7.438 0.871 -1.962 127 63 127
34.149 -14.658 0.336 89 89 89
-6.725 -0.772 -1.790 127 63 127
-14.854 -25.117 -2.582 56 153 56
-2.774 4.250 -2.020 244 35 150
-0.172 5.350 -1.957 244 35 150
5.791 1.363 -1.664 127 63 127
2.179 5.260 -1.930 244 35 150
14.033 -23.487 -0.970 89 89 89
6.678 -6.914 -1.169 56 153 56
-0.402 12.873 -2.408 56 153 56
-0.055 5.940 -1.947 56 153 56
-0.662 -5.641 -1.477 56 153 56
3.685 -7.896 -1.370 244 35 150
-4.040 -4.165 -1.590 56 153 56
-24.997 -16.329 0.627 56 153 56
-12.422 7.270 0.342 56 153 56
-4.195 -2.439 -1.695 244 35 150
3.271 -11.530 -1.280 244 35 150
-5.937 -0.800 -1.758 127 63 127
6.959 -3.546 -0.126 255 216 25
-2.351 5.423 -2.021 244 35 150
3.704 -9.646 -1.334 244 35 150
-7.796 -3.710 -1.707 244 35 150
-5.195 -6.866 -1.601 56 153 56
-2.513 6.013 -1.987 56 153 56
14.772 -17.185 0.059 229 38 38
-10.190 -8.484 -2.062 56 153 56
0.980 -4.225 -0.336 255 216 25
-8.783 -4.596 -0.645 56 153 56
-3.111 6.444 -1.978 56 153 56
-5.126 -8.530 -1.589 56 153 56
11.032 -23.486 0.211 89 89 89
-0.657 -7.200 0.207 56 153 56
-1.639 -3.391 -1.631 244 35 150
19.275 11.168 -1.346 51 127 229
-9.334 10.404 0.352 56 153 56
-5.809 5.821 -2.031 244 35 150
1.354 4.788 -1.941 244 35 150
-16.420 -4.350 0.579 56 153 56
-5.896 -5.672 -1.668 56 153 56
5.245 2.754 -1.744 127 63 127
-2.509 -5.625 -1.512 56 153 56
6.226 -17.491 -0.797 255 216 25
9.998 11.236 -2.030 56 153 56
-3.130 -2.429 -1.684 244 35 150
8.460 0.110 -1.613 127 63 127
-4.026 -8.285 -1.526 56 153 56
-11.865 -3.238 -1.785 244 35 150
-7.115 -2.387 -1.750 244 35 150
16.855 -3.612 -1.484 127 63 127
-8.834 10.918 -0.302 56 153 56
6.178 12.021 0.556 56 153 56
3.087 -10.273 -1.316 244 35 150
-8.737 5.504 -2.191 244 35 150
9.801 12.491 0.729 56 153 56
3.124 3.780 -1.912 127 63 127
2.541 5.248 -1.918 244 35 150
-7.047 14.069 -2.698 56 153 56
4.385 -19.052 -1.088 56 153 56
-9.126 -0.086 -1.821 127 63 127
-0.033 -4.060 -1.508 56 153 56
8.772 -6.769 -1.265 56 153 56
-3.869 -5.208 -1.539 56 153 56
14.962 16.501 -2.011 56 153 56
-4.309 5.184 -2.040 244 35 150
13.325 -19.021 0.595 56 153 56
9.416 3.091 -1.723 127 63 127
-0.543 -4.893 -1.508 56 153 56
7.384 16.812 -1.634 56 153 56
-4.758 -5.627 -1.613 56 153 56
-0.335 5.192 -1.954 244 35 150
22.989 -1.546 -1.381 127 63 127
4.523 17.119 -2.551 56 153 56
15.924 14.989 -1.970 244 35 150
8.522 -4.120 -1.448 244 35 150
11.538 -23.487 -0.758 89 89 89
-4.744 -4.130 -1.628 56 153 56
-24.213 -17.569 0.626 56 153 56
16.431 17.881 -2.053 56 153 56
8.003 -7.048 -1.077 56 153 56
-9.402 -4.921 0.147 56 153 56
