ply
format ascii 1.0
element vertex 1000
property float x
property float y
property float z
property uchar red
property uchar green
property uchar blue
end_header
-2.181 5.045 -1.621 244 35 150
6.770 6.363 -1.560 244 35 150
-12.153 -1.420 -1.730 127 63 127
6.133 6.835 -1.605 244 35 150
8.912 -2.371 -0.620 165 165 165
26.168 11.542 -1.169 89 89 89
10.506 -2.079 -0.812 165 165 165
2.810 1.325 -1.733 127 63 127
11.020 -5.995 -1.684 244 35 150
10.841 3.958 -1.718 127 63 127
18.972 -10.071 5.304 89 89 89
8.470 -7.113 -0.067 56 153 56
8.547 -6.652 -1.575 244 35 150
22.307 -9.910 0.231 89 89 89
36.018 4.281 -1.613 244 35 150
43.144 1.894 -1.716 127 63 127
26.677 6.389 1.092 56 153 56
-0.596 7.801 0.303 89 89 89
-8.391 -6.226 -1.581 244 35 150
-2.801 6.248 -1.621 244 35 150
39.269 11.407 5.322 89 89 89
15.667 -8.718 4.152 89 89 89
11.968 4.148 -0.771 255 216 25
6.698 4.937 -0.659 165 165 165
14.544 9.085 -0.997 89 89 89
36.130 10.247 1.430 89 89 89
-7.726 5.056 -1.601 244 35 150
6.396 -3.926 -1.666 127 63 127
6.226 4.522 -0.881 165 165 165
-3.760 8.176 3.381 89 89 89
8.128 -1.881 -0.746 165 165 165
24.112 -8.949 0.338 56 153 56
27.653 -5.359 -1.578 244 35 150
39.631 6.338 -1.577 244 35 150
2.356 7.661 3.402 56 153 56
15.552 -8.717 -0.071 56 153 56
10.211 9.163 1.418 89 89 89
27.634 -14.589 3.019 165 165 165
-1.260 -8.296 5.409 89 89 89
21.893 2.224 -1.263 165 165 165
32.375 -1.589 -1.749 127 63 127
38.994 5.691 -1.555 244 35 150
8.608 -2.403 -1.165 165 165 165
-3.896 -1.562 -1.712 127 63 127
43.063 -5.409 -1.604 244 35 150
-9.474 6.238 -1.546 244 35 150
-2.848 -2.676 -1.640 127 63 127
16.640 -3.321 -1.724 127 63 127
8.337 -1.346 -0.596 165 165 165
-17.245 2.177 -1.706 127 63 127
-1.151 3.322 -1.757 127 63 127
12.144 4.289 0.540 255 216 25
41.003 5.921 -1.677 244 35 150
8.163 -1.918 -0.974 165 165 165
22.781 -2.269 -1.789 127 63 127
46.340 -1.453 -1.656 127 63 127
-17.488 6.034 -1.618 244 35 150
38.048 -5.144 -1.516 244 35 150
34.134 -5.796 0.357 56 153 56
38.790 0.806 -1.801 127 63 127
12.250 -1.952 -0.555 165 165 165
21.349 1.745 -1.068 165 165 165
-24.448 3.073 -1.658 127 63 127
16.743 6.556 1.477 56 153 56
16.594 -2.856 -1.728 127 63 127
9.489 -8.217 1.720 89 89 89
20.780 -6.660 2.547 56 153 56
-2.429 2.219 -1.686 127 63 127
-18.802 -5.048 -1.596 244 35 150
17.126 4.740 -1.535 244 35 150
19.562 2.598 -1.113 165 165 165
-18.422 -2.894 -1.661 127 63 127
16.553 3.257 -1.759 127 63 127
9.815 17.984 7.635 165 165 165
19.147 1.705 -0.363 165 165 165
-5.803 -0.139 -1.705 127 63 127
8.046 -2.353 -0.443 165 165 165
-8.039 8.266 -0.749 89 89 89
6.941 6.823 0.327 56 153 56
21.378 8.782 1.676 56 153 56
2.951 -8.402 0.230 56 153 56
19.073 -1.512 -1.807 127 63 127
35.171 -7.722 2.574 89 89 89
13.709 10.112 0.231 89 89 89
-13.428 -3.542 -1.679 127 63 127
14.197 -2.174 -1.744 127 63 127
11.332 -1.006 -1.419 165 165 165
24.644 0.888 -1.687 127 63 127
32.319 9.967 2.921 89 89 89
19.376 2.052 -1.167 165 165 165
13.729 4.566 -1.577 244 35 150
37.333 0.788 -1.735 127 63 127
27.452 8.440 4.046 89 89 89
-22.194 1.101 -1.648 127 63 127
32.243 -8.337 -0.543 89 89 89
11.962 3.919 -1.028 255 216 25
11.123 -1.446 -0.732 165 165 165
30.117 -1.499 -1.673 127 63 127
-2.980 -0.577 -1.571 127 63 127
7.632 3.276 -1.713 127 63 127
41.984 -3.587 -1.710 127 63 127
-8.727 7.471 1.531 56 153 56
-7.957 -2.073 -1.718 127 63 127
19.993 1.443 -1.378 165 165 165
13.139 -4.057 -1.578 244 35 150
21.661 2.201 -1.342 165 165 165
6.186 0.807 -1.728 127 63 127
-5.202 4.082 -1.535 244 35 150
4.438 -6.305 0.057 56 153 56
6.928 4.881 -0.917 165 165 165
37.207 1.915 -1.792 127 63 127
-15.124 -6.146 -1.594 244 35 150
19.937 1.568 -0.267 165 165 165
6.451 4.516 -0.755 165 165 165
35.236 -5.736 -1.565 244 35 150
20.844 2.315 -1.302 165 165 165
-23.955 3.706 -1.780 127 63 127
41.955 -5.574 -1.633 244 35 150
11.884 4.446 -1.305 255 216 25
-6.024 -7.890 2.800 89 89 89
-4.710 0.554 -1.846 127 63 127
12.411 4.248 -0.861 255 216 25
9.568 -6.161 -1.554 244 35 150
7.111 -8.265 -0.496 56 153 56
36.052 0.706 -1.685 127 63 127
6.327 4.645 -0.343 165 165 165
8.904 -6.436 3.693 56 153 56
-1.801 -10.340 0.223 165 165 165
18.963 -6.786 -1.583 244 35 150
33.195 11.978 3.836 89 89 89
7.916 3.348 -1.662 127 63 127
9.416 -1.991 -0.548 165 165 165
31.889 -1.489 -1.668 127 63 127
9.485 -8.098 0.279 56 153 56
35.315 4.737 -1.632 244 35 150
46.215 -9.397 7.488 165 165 165
-8.202 7.421 2.454 56 153 56
-9.897 10.055 2.262 89 89 89
33.379 0.847 -1.819 127 63 127
32.646 6.386 -1.578 244 35 150
40.062 3.165 -1.714 127 63 127
-11.306 9.622 2.715 89 89 89
11.114 -1.942 -1.051 165 165 165
23.790 10.904 4.605 89 89 89
6.988 4.511 -0.271 165 165 165
21.280 2.705 -1.149 165 165 165
13.629 2.756 -1.686 127 63 127
-8.906 -0.768 -1.635 127 63 127
12.049 -1.081 -1.678 127 63 127
16.474 -1.966 -1.721 127 63 127
24.340 3.351 -1.738 127 63 127
30.482 -6.575 -1.540 244 35 150
-10.017 -5.196 -1.559 244 35 150
21.861 -4.345 -1.551 244 35 150
-23.379 -0.530 -1.824 127 63 127
1.015 1.127 -1.651 127 63 127
19.954 1.624 -1.743 127 63 127
23.408 10.604 3.273 89 89 89
2.894 -5.661 -1.600 244 35 150
-0.373 -3.713 -1.690 127 63 127
20.057 1.584 -1.520 165 165 165
20.955 9.463 3.357 89 89 89
42.695 -3.073 -1.731 127 63 127
16.853 6.235 2.530 56 153 56
-14.131 -8.033 2.086 89 89 89
17.795 8.355 1.990 56 153 56
4.061 3.842 -1.750 127 63 127
-14.517 -0.190 -1.658 127 63 127
41.876 2.802 -1.711 127 63 127
0.294 -6.873 -1.631 244 35 150
10.044 11.496 -1.138 89 89 89
11.878 4.244 -0.136 255 216 25
18.943 7.981 2.925 56 153 56
12.460 -9.478 2.229 89 89 89
-13.569 -7.829 -1.481 89 89 89
35.034 6.249 -1.622 244 35 150
-13.577 1.616 -1.779 127 63 127
-0.018 -7.061 -0.138 56 153 56
-20.627 -1.775 -1.723 127 63 127
-8.274 -8.649 1.254 89 89 89
-3.907 -1.664 -1.738 127 63 127
9.710 0.492 -1.719 127 63 127
35.357 1.679 -1.714 127 63 127
17.880 3.923 -1.761 127 63 127
21.212 -1.917 -1.707 127 63 127
32.177 5.487 -1.512 244 35 150
19.119 -1.459 -1.743 127 63 127
17.656 -0.332 -1.736 127 63 127
41.875 -5.818 -1.557 244 35 150
33.556 6.218 -0.484 56 153 56
-14.515 2.273 -1.669 127 63 127
6.088 4.719 -0.325 165 165 165
-21.306 -0.637 -1.723 127 63 127
-9.955 6.445 1.783 56 153 56
14.986 -8.191 -0.324 89 89 89
10.913 -1.162 -1.178 165 165 165
14.281 2.016 -1.724 127 63 127
21.196 1.207 -1.484 165 165 165
-18.838 -0.778 6.110 165 165 165
6.933 4.877 -0.283 165 165 165
-14.093 -9.003 2.579 89 89 89
9.977 -2.488 -1.308 165 165 165
32.901 3.339 -1.766 127 63 127
9.042 1.373 -1.710 127 63 127
-0.569 -8.005 0.110 89 89 89
-2.708 4.166 -1.489 244 35 150
-5.467 -5.434 -1.620 244 35 150
49.428 0.697 -1.877 127 63 127
40.422 -6.959 -1.534 244 35 150
19.108 -11.351 4.104 89 89 89
29.047 6.311 -1.567 244 35 150
11.650 4.260 0.258 255 216 25
20.491 1.538 -0.369 165 165 165
33.523 -0.364 -1.716 127 63 127
21.805 1.620 -1.565 165 165 165
39.756 -10.690 2.395 89 89 89
29.296 8.377 0.648 56 153 56
31.009 -2.467 -1.730 127 63 127
22.469 -0.359 -1.681 127 63 127
12.383 -2.431 -0.402 165 165 165
-9.823 2.736 -1.683 127 63 127
33.853 6.681 1.998 56 153 56
27.981 -8.313 0.171 89 89 89
36.984 6.435 -1.531 244 35 150
2.136 -0.549 -1.797 127 63 127
6.278 5.045 -1.428 165 165 165
21.048 2.257 -1.096 165 165 165
14.678 -6.809 -0.240 56 153 56
-2.387 2.299 -1.765 127 63 127
-3.443 6.595 -1.577 244 35 150
3.882 2.336 -1.664 127 63 127
36.905 -3.848 -1.607 127 63 127
2.714 7.793 0.218 56 153 56
14.808 -2.124 -1.813 127 63 127
42.008 0.251 -1.707 127 63 127
-10.247 -6.548 -1.561 244 35 150
-6.020 -8.674 1.246 56 153 56
-10.779 -9.455 2.385 89 89 89
6.434 2.581 -1.766 127 63 127
21.478 1.795 -1.181 165 165 165
44.363 -2.119 -1.753 127 63 127
48.997 -1.108 -1.724 127 63 127
32.649 -0.054 -1.726 127 63 127
21.698 8.562 1.083 56 153 56
-6.412 -2.099 -1.699 127 63 127
19.958 -4.652 -1.587 244 35 150
13.914 -3.160 -1.706 127 63 127
-16.919 -3.327 -1.730 127 63 127
10.710 -4.213 -1.590 244 35 150
13.035 -10.780 2.078 89 89 89
7.843 -2.698 -1.749 127 63 127
12.044 4.126 -0.625 255 216 25
6.128 4.729 -1.037 165 165 165
8.114 4.354 -1.603 244 35 150
-15.171 2.000 -1.800 127 63 127
-9.820 -3.592 -1.699 127 63 127
20.157 -9.236 4.476 89 89 89
-7.494 7.854 5.410 89 89 89
17.170 -6.933 -1.581 244 35 150
6.349 5.155 -0.384 165 165 165
-13.179 -3.962 -1.729 127 63 127
-16.217 -3.621 -1.764 127 63 127
9.290 -1.544 -0.981 165 165 165
12.013 4.008 -1.210 255 216 25
-6.289 5.594 -1.598 244 35 150
33.014 8.110 1.544 56 153 56
10.435 5.819 -1.544 244 35 150
21.443 1.821 -1.304 165 165 165
-13.295 -9.656 3.000 89 89 89
33.461 1.228 -1.658 127 63 127
33.857 1.706 -1.749 127 63 127
-14.694 -3.987 -1.656 127 63 127
12.151 -0.826 -0.426 165 165 165
14.735 -6.356 1.712 56 153 56
9.183 -3.424 -1.719 127 63 127
10.163 -2.072 -0.337 165 165 165
26.229 2.408 -1.728 127 63 127
46.672 -0.280 -1.664 127 63 127
24.824 -0.730 -1.748 127 63 127
-14.786 -10.984 0.404 89 89 89
26.187 -3.564 -1.716 127 63 127
12.215 3.943 -0.697 255 216 25
15.174 -11.440 2.524 89 89 89
5.640 -8.051 -0.339 89 89 89
23.290 -3.276 -1.640 127 63 127
11.987 4.046 -0.273 255 216 25
-9.829 9.440 -0.446 89 89 89
12.042 4.036 0.314 255 216 25
7.061 8.163 3.677 56 153 56
-22.689 -2.812 -1.638 127 63 127
21.899 6.095 0.988 56 153 56
6.512 4.727 -0.382 165 165 165
29.525 0.692 -1.742 127 63 127
-20.008 0.723 -1.730 127 63 127
23.258 8.210 0.369 56 153 56
23.651 6.145 3.622 56 153 56
29.429 -1.583 -1.770 127 63 127
19.753 2.661 -0.998 165 165 165
26.054 0.762 -1.768 127 63 127
34.157 -8.874 -0.379 56 153 56
9.034 -11.111 1.169 89 89 89
5.345 -9.608 6.346 165 165 165
19.312 1.251 -0.760 165 165 165
-3.388 0.129 -1.668 127 63 127
6.220 -1.254 -1.656 127 63 127
39.005 -3.046 -1.642 127 63 127
-10.017 3.759 -1.719 127 63 127
27.110 -3.107 -1.700 127 63 127
-16.020 -2.796 -1.743 127 63 127
12.839 -0.025 -1.703 127 63 127
18.807 2.852 -1.772 127 63 127
-4.018 6.651 -1.611 244 35 150
10.598 5.841 2.524 56 153 56
-17.937 3.976 -1.729 127 63 127
18.738 2.713 -0.649 165 165 165
-7.300 7.743 0.126 56 153 56
7.918 2.043 -1.662 127 63 127
10.523 -1.623 -0.287 165 165 165
3.577 -1.470 -1.726 127 63 127
25.236 1.040 -1.719 127 63 127
11.803 0.448 -1.710 127 63 127
10.935 -7.565 1.938 56 153 56
25.824 -3.087 -1.751 127 63 127
6.751 4.607 -0.654 165 165 165
32.684 -6.542 -1.620 244 35 150
3.996 8.682 2.387 89 89 89
-18.426 1.008 -1.750 127 63 127
21.050 9.848 0.163 89 89 89
-13.623 -9.765 4.747 89 89 89
21.168 2.841 -1.361 165 165 165
6.085 5.038 -0.654 165 165 165
-17.375 0.327 -1.708 127 63 127
-5.315 -3.801 -1.710 127 63 127
3.021 3.674 -1.709 127 63 127
26.242 -4.141 -1.554 244 35 150
9.419 3.840 -1.728 127 63 127
-17.058 2.416 -1.689 127 63 127
4.534 7.678 1.736 89 89 89
14.954 -3.476 -1.705 127 63 127
-10.173 11.874 3.297 89 89 89
21.078 1.586 -1.695 127 63 127
-0.012 6.525 1.421 56 153 56
10.054 1.402 -1.696 127 63 127
20.336 8.163 2.630 56 153 56
36.383 6.130 -1.634 244 35 150
44.615 6.210 -1.576 244 35 150
19.548 2.153 -0.370 165 165 165
34.019 1.677 -1.788 127 63 127
-1.573 -2.456 -1.755 127 63 127
12.114 -4.739 -1.639 244 35 150
45.210 0.953 -1.706 127 63 127
26.334 7.811 0.157 89 89 89
-23.290 -2.328 -1.627 127 63 127
-7.293 5.915 -1.543 244 35 150
-0.132 -0.859 -1.658 127 63 127
-13.916 2.827 -1.695 127 63 127
-3.105 8.556 3.343 89 89 89
18.580 -0.897 -1.737 127 63 127
12.035 4.139 -1.242 255 216 25
-5.395 4.153 -1.622 244 35 150
-1.305 -0.812 -1.788 127 63 127
13.638 8.735 3.840 56 153 56
-5.413 -5.440 -1.599 244 35 150
32.815 10.757 5.020 89 89 89
14.882 -10.099 3.321 89 89 89
14.050 -3.360 -1.704 127 63 127
8.600 9.428 5.024 89 89 89
21.025 -8.117 -1.415 89 89 89
45.337 2.713 -1.702 127 63 127
2.314 0.722 -1.830 127 63 127
24.864 -2.615 -1.836 127 63 127
-7.455 -2.927 -1.735 127 63 127
8.734 -1.816 -1.027 165 165 165
42.694 6.462 -1.585 244 35 150
20.981 2.293 -1.211 165 165 165
19.583 -0.824 -1.678 127 63 127
32.085 -1.729 -1.785 127 63 127
-0.260 3.667 -1.764 127 63 127
9.409 -5.726 2.193 56 153 56
6.249 4.625 -0.405 165 165 165
-8.910 6.934 2.772 56 153 56
6.165 4.691 -0.991 165 165 165
8.702 -1.484 -1.731 127 63 127
23.738 -1.022 -1.758 127 63 127
19.289 2.336 -0.493 165 165 165
6.681 4.895 -0.840 165 165 165
19.899 -6.699 -1.592 244 35 150
11.952 4.247 2.416 255 216 25
22.977 -10.954 -0.426 89 89 89
27.113 -5.981 -1.575 244 35 150
8.087 -10.495 1.276 89 89 89
9.557 8.927 0.718 56 153 56
11.001 -2.329 -0.491 165 165 165
6.662 5.155 -1.075 165 165 165
11.644 -0.082 -1.656 127 63 127
-12.585 1.741 -1.730 127 63 127
-6.296 -0.374 -1.608 127 63 127
3.064 1.418 -1.747 127 63 127
-6.963 5.975 -1.611 244 35 150
-4.668 -7.651 2.551 56 153 56
8.462 1.219 -1.733 127 63 127
20.662 9.418 3.801 89 89 89
12.556 3.227 -1.719 127 63 127
30.426 5.509 -1.556 244 35 150
25.342 -3.750 -1.728 127 63 127
15.062 7.749 0.349 56 153 56
6.262 4.954 -0.266 165 165 165
24.789 8.796 -1.028 89 89 89
35.871 -5.561 -1.549 244 35 150
1.589 -3.711 -1.793 127 63 127
9.558 -2.272 -0.495 165 165 165
6.905 -6.904 -1.560 244 35 150
24.625 1.047 -1.661 127 63 127
-4.295 -11.523 0.839 89 89 89
7.889 7.694 0.638 89 89 89
32.362 6.137 3.388 56 153 56
23.136 -8.128 3.748 56 153 56
-2.532 -9.063 -1.009 89 89 89
-11.388 -2.384 -1.740 127 63 127
11.855 4.018 0.783 255 216 25
17.842 1.076 -1.799 127 63 127
-21.632 0.038 -1.748 127 63 127
-0.123 5.907 -1.572 244 35 150
22.604 0.624 -1.768 127 63 127
6.344 4.957 -0.708 165 165 165
18.178 1.288 -0.547 165 165 165
-8.638 -5.991 -1.617 244 35 150
-18.795 2.690 -1.784 127 63 127
10.916 -1.103 -0.404 165 165 165
1.230 8.240 3.931 56 153 56
7.947 4.864 -1.575 244 35 150
-19.217 -4.569 -1.600 244 35 150
11.898 -1.552 -0.613 165 165 165
-16.715 6.876 -1.568 244 35 150
-5.015 -0.493 -1.759 127 63 127
6.784 -8.775 0.085 89 89 89
-14.161 3.964 -1.773 127 63 127
6.525 5.006 0.209 165 165 165
24.876 6.627 -1.596 244 35 150
17.314 10.081 4.748 89 89 89
30.473 -9.009 1.372 89 89 89
-5.790 -7.047 0.658 56 153 56
9.480 -0.958 -1.551 165 165 165
35.730 8.815 3.156 89 89 89
12.278 4.018 -1.542 255 216 25
34.283 5.185 -1.636 244 35 150
14.285 5.049 -1.536 244 35 150
20.890 1.907 -0.918 165 165 165
46.467 0.316 -1.687 127 63 127
21.746 5.237 -1.576 244 35 150
16.614 1.193 -1.715 127 63 127
15.771 -5.455 -1.511 244 35 150
30.857 3.422 -1.772 127 63 127
-7.945 6.321 1.194 56 153 56
4.591 5.748 -1.538 244 35 150
27.070 0.425 -1.707 127 63 127
35.329 -2.031 -1.651 127 63 127
45.952 -1.335 -1.673 127 63 127
6.513 4.966 -0.182 165 165 165
12.130 4.005 1.336 255 216 25
22.548 0.444 -1.723 127 63 127
12.035 4.202 1.072 255 216 25
34.401 -8.542 2.415 56 153 56
6.631 5.059 -0.990 165 165 165
41.347 5.189 -1.611 244 35 150
37.509 -1.724 -1.738 127 63 127
33.587 -5.879 -1.625 244 35 150
-18.246 -0.653 -1.729 127 63 127
37.112 8.884 1.066 89 89 89
35.152 0.726 -1.707 127 63 127
2.819 1.362 -1.701 127 63 127
-13.318 -6.858 -1.543 244 35 150
31.529 7.414 -0.007 56 153 56
19.607 2.218 -1.004 165 165 165
18.562 1.672 -0.745 165 165 165
40.170 -5.046 -1.549 244 35 150
37.072 -2.414 -1.784 127 63 127
5.640 -0.207 -1.728 127 63 127
31.146 -1.275 -1.912 127 63 127
-23.136 2.349 -1.692 127 63 127
37.234 2.103 -1.788 127 63 127
-9.853 11.238 5.199 89 89 89
10.876 -6.140 -1.554 244 35 150
6.941 -3.763 -1.699 127 63 127
17.932 -0.161 -1.742 127 63 127
6.653 5.422 -1.635 244 35 150
-8.370 -6.370 2.219 56 153 56
32.798 7.607 4.802 89 89 89
-15.863 1.859 -1.801 127 63 127
-14.481 -2.553 -1.724 127 63 127
35.309 3.877 -1.693 127 63 127
41.267 -5.642 -1.626 244 35 150
43.894 4.852 -1.521 244 35 150
3.227 3.877 -1.695 127 63 127
10.047 -0.929 -0.295 165 165 165
-14.037 -1.801 -1.671 127 63 127
16.941 1.194 -1.746 127 63 127
-14.212 6.882 -1.584 244 35 150
15.982 -11.601 1.631 89 89 89
5.943 0.117 -1.744 127 63 127
38.642 -3.176 -1.763 127 63 127
35.039 9.195 2.391 89 89 89
11.144 -2.181 -1.597 165 165 165
32.989 10.939 1.844 89 89 89
33.955 2.695 -1.710 127 63 127
-1.000 9.733 -1.423 89 89 89
6.465 4.894 -0.977 165 165 165
-18.663 -0.847 -1.665 127 63 127
15.140 7.155 2.346 56 153 56
-4.582 2.699 -1.741 127 63 127
-1.187 4.660 -1.603 244 35 150
-11.902 0.599 -1.681 127 63 127
38.346 -7.682 4.238 89 89 89
-24.077 -3.761 -1.779 127 63 127
-19.284 -4.220 -1.574 244 35 150
-16.150 -1.115 -1.759 127 63 127
-6.912 -6.674 -1.629 244 35 150
34.411 10.783 1.055 89 89 89
6.491 4.773 -1.104 165 165 165
12.185 4.089 -0.792 255 216 25
-0.482 -6.145 -1.557 244 35 150
21.224 2.587 -1.471 165 165 165
-7.776 2.256 -1.782 127 63 127
22.048 2.617 -1.815 127 63 127
-4.654 9.700 3.528 89 89 89
47.887 2.091 -1.735 127 63 127
21.208 -6.583 2.700 56 153 56
31.906 -5.899 3.652 56 153 56
7.407 -3.883 -1.855 127 63 127
15.717 -4.038 -1.557 244 35 150
33.792 -0.706 -1.682 127 63 127
31.882 8.715 -0.155 56 153 56
11.973 4.022 -0.074 255 216 25
25.418 -2.137 -1.636 127 63 127
-19.720 6.739 -1.503 244 35 150
-12.996 7.753 3.580 89 89 89
11.793 4.203 -1.269 255 216 25
30.170 5.516 -1.634 244 35 150
-3.285 7.808 3.625 56 153 56
27.478 3.091 -1.780 127 63 127
17.463 -8.032 2.650 56 153 56
18.295 1.523 -1.525 165 165 165
21.216 1.670 -1.546 165 165 165
-0.244 7.234 -0.319 56 153 56
31.549 5.843 0.728 56 153 56
21.531 1.862 -1.534 165 165 165
19.170 2.790 -1.155 165 165 165
45.210 3.350 -1.682 127 63 127
6.433 6.153 2.416 56 153 56
4.522 -0.861 -1.773 127 63 127
8.779 3.993 -1.795 127 63 127
27.188 -7.944 -0.307 56 153 56
-17.915 -1.289 -1.618 127 63 127
26.563 -5.778 2.600 56 153 56
27.436 -4.637 -1.636 244 35 150
-23.297 -3.712 -1.716 127 63 127
6.836 4.939 -1.449 165 165 165
16.518 1.598 -1.775 127 63 127
11.162 6.960 -1.588 244 35 150
-5.309 7.066 2.717 56 153 56
-17.234 -5.757 -1.635 244 35 150
36.243 2.827 -1.839 127 63 127
-5.727 -4.037 -1.564 244 35 150
37.695 -10.419 0.497 89 89 89
9.641 -2.195 -1.709 127 63 127
19.195 -6.607 1.375 56 153 56
9.985 -1.055 -0.247 165 165 165
11.051 -1.640 -1.571 165 165 165
17.393 3.568 -1.786 127 63 127
11.975 4.284 0.135 255 216 25
48.172 3.034 -1.720 127 63 127
44.073 -1.265 -1.756 127 63 127
18.217 -11.107 4.524 89 89 89
44.977 -3.610 -1.730 127 63 127
25.412 -6.876 0.865 56 153 56
2.582 -7.807 1.253 89 89 89
-16.410 1.091 -1.864 127 63 127
41.809 -0.009 -1.816 127 63 127
21.203 1.305 -1.468 165 165 165
39.554 -0.924 -1.704 127 63 127
9.074 -1.228 -1.773 127 63 127
-7.250 2.822 -1.835 127 63 127
2.563 3.220 -1.727 127 63 127
-16.814 2.924 -1.711 127 63 127
3.646 8.961 4.434 89 89 89
34.943 3.443 -1.735 127 63 127
-6.927 -0.414 -1.723 127 63 127
21.063 1.381 -0.567 165 165 165
13.412 -8.297 -0.524 89 89 89
31.015 -8.546 4.141 89 89 89
28.832 2.505 -1.730 127 63 127
29.596 -5.866 -1.652 244 35 150
10.531 -7.129 0.159 56 153 56
8.174 1.665 -1.748 127 63 127
46.916 -3.103 -1.744 127 63 127
39.318 -1.734 -1.776 127 63 127
32.294 -1.354 -1.641 127 63 127
38.268 3.273 -1.762 127 63 127
9.426 5.517 -0.244 56 153 56
33.305 -0.180 -1.744 127 63 127
22.899 -4.977 -1.612 244 35 150
12.895 -9.776 5.141 89 89 89
15.158 3.678 -1.721 127 63 127
5.288 10.938 1.014 89 89 89
-17.771 -0.047 -1.735 127 63 127
48.468 1.939 -1.784 127 63 127
25.130 0.579 -1.710 127 63 127
24.715 3.884 -1.640 127 63 127
19.739 7.662 -0.184 56 153 56
5.690 6.166 -1.581 244 35 150
21.991 2.485 -1.007 165 165 165
-5.060 3.368 -1.694 127 63 127
-2.053 -3.555 -1.786 127 63 127
6.792 4.802 -0.413 165 165 165
-14.475 3.398 -1.733 127 63 127
23.320 -10.109 3.993 89 89 89
23.186 -1.605 -1.734 127 63 127
-9.679 -9.970 0.222 89 89 89
10.230 -1.007 -0.213 165 165 165
-14.920 -5.966 -1.569 244 35 150
10.217 -3.679 -1.666 127 63 127
5.245 -10.169 1.291 89 89 89
33.555 -2.532 -1.729 127 63 127
27.224 1.184 -1.802 127 63 127
29.398 5.595 -1.522 244 35 150
18.684 11.381 -0.114 89 89 89
-3.287 8.706 2.656 56 153 56
2.479 2.301 -1.724 127 63 127
40.592 1.070 -1.767 127 63 127
42.212 -2.795 -1.773 127 63 127
19.319 -3.914 -1.761 127 63 127
47.467 -3.704 -1.751 127 63 127
20.451 0.975 -1.782 127 63 127
-11.742 -1.327 -1.785 127 63 127
12.975 -0.479 -1.708 127 63 127
11.084 -1.545 -0.550 165 165 165
-17.104 -1.608 -1.728 127 63 127
10.155 -6.951 -1.565 244 35 150
-7.951 6.489 -1.605 244 35 150
40.625 -2.925 -1.778 127 63 127
-8.430 -11.253 1.259 89 89 89
-3.168 -10.671 1.771 89 89 89
19.228 1.967 -1.185 165 165 165
-1.417 2.795 -1.757 127 63 127
8.668 -8.123 2.204 56 153 56
-15.113 2.934 -1.675 127 63 127
10.004 -2.092 -1.680 127 63 127
3.378 -4.463 -1.572 244 35 150
-5.489 -10.972 -1.275 89 89 89
19.256 2.245 -1.712 127 63 127
5.838 8.392 3.772 89 89 89
-6.480 5.569 -1.601 244 35 150
9.431 -1.380 -0.968 165 165 165
-12.905 0.580 -1.827 127 63 127
-9.663 -6.184 3.153 56 153 56
38.884 -5.219 -1.624 244 35 150
-7.734 2.749 -1.672 127 63 127
29.726 2.844 -1.678 127 63 127
1.328 8.794 2.645 89 89 89
20.077 1.574 -1.316 165 165 165
44.384 1.643 -1.725 127 63 127
-12.731 -8.580 2.022 89 89 89
16.777 1.077 -1.765 127 63 127
11.951 4.214 -1.375 255 216 25
18.584 1.233 -1.807 127 63 127
-8.729 10.687 0.343 89 89 89
17.371 -2.060 -1.767 127 63 127
-11.665 8.285 3.793 89 89 89
17.208 -8.010 3.674 89 89 89
47.688 0.029 -1.727 127 63 127
33.705 -2.673 -1.727 127 63 127
27.344 4.605 -1.619 244 35 150
-17.868 -2.344 -1.798 127 63 127
6.962 5.089 -1.353 165 165 165
18.347 1.500 -0.840 165 165 165
45.261 3.420 -1.649 127 63 127
-14.519 0.930 -1.787 127 63 127
26.305 -8.406 0.987 89 89 89
23.708 11.951 0.757 89 89 89
19.932 1.472 -1.420 165 165 165
5.479 -2.259 -1.754 127 63 127
11.831 4.259 0.208 255 216 25
32.179 -6.275 -1.580 244 35 150
4.298 -8.177 0.142 56 153 56
-4.426 -8.914 2.608 56 153 56
44.507 1.201 -1.734 127 63 127
33.406 0.162 -1.825 127 63 127
6.818 4.543 -0.796 165 165 165
-7.552 -3.608 -1.755 127 63 127
10.505 -9.164 -0.307 89 89 89
21.703 1.619 -1.016 165 165 165
-9.088 7.770 2.698 56 153 56
24.538 7.608 3.363 56 153 56
-6.009 -6.028 -1.539 244 35 150
-11.770 8.124 0.808 89 89 89
6.226 11.637 2.666 89 89 89
6.337 4.941 -0.230 165 165 165
19.482 9.315 -0.174 89 89 89
-14.208 1.766 -1.699 127 63 127
9.910 -1.601 -0.995 165 165 165
38.141 9.741 4.140 89 89 89
45.203 2.149 -1.670 127 63 127
-7.408 7.088 -0.218 56 153 56
6.704 4.799 -0.052 165 165 165
-6.979 -7.981 4.766 89 89 89
-3.517 3.823 -1.735 127 63 127
23.944 -3.671 -1.669 127 63 127
35.145 4.692 -1.512 244 35 150
-8.517 -5.157 -1.576 244 35 150
-16.114 2.394 -1.853 127 63 127
12.119 -1.007 -0.327 165 165 165
-2.200 -10.189 1.941 89 89 89
10.826 -8.167 -0.058 56 153 56
-17.717 6.600 -1.629 244 35 150
20.308 8.876 2.156 56 153 56
26.501 11.260 3.857 89 89 89
-1.215 -1.067 -1.683 127 63 127
8.679 6.664 -1.552 244 35 150
30.424 1.870 -1.698 127 63 127
-4.977 -0.414 -1.672 127 63 127
6.348 7.861 -0.633 89 89 89
-4.291 -7.070 0.797 56 153 56
30.951 -1.216 -1.748 127 63 127
4.096 -5.331 1.346 165 165 165
32.190 -2.067 -1.644 127 63 127
47.563 2.177 -1.784 127 63 127
-10.007 -3.661 -1.754 127 63 127
40.018 6.940 -1.553 244 35 150
28.085 -4.708 -1.588 244 35 150
2.609 9.231 -1.186 89 89 89
34.973 -8.836 0.734 56 153 56
5.751 -9.782 3.200 89 89 89
-13.504 -3.941 -1.732 127 63 127
-21.715 2.795 -1.677 127 63 127
7.786 2.809 -1.740 127 63 127
0.465 6.434 2.808 56 153 56
-12.477 -1.464 -1.728 127 63 127
22.967 2.271 -1.590 127 63 127
3.984 -6.560 -1.666 244 35 150
10.633 -1.631 -1.591 165 165 165
17.966 8.603 3.940 56 153 56
-3.375 0.892 -1.718 127 63 127
-8.449 -6.402 0.763 56 153 56
19.703 -1.018 -1.698 127 63 127
27.887 -3.266 -1.823 127 63 127
3.684 -8.126 4.630 89 89 89
23.895 -0.789 -1.713 127 63 127
-10.402 2.412 -1.736 127 63 127
12.922 10.775 2.193 89 89 89
35.940 -9.962 4.750 89 89 89
15.911 7.811 1.910 89 89 89
-21.739 -3.463 -1.792 127 63 127
3.749 2.183 -1.679 127 63 127
-11.223 4.093 -1.627 244 35 150
3.460 0.497 -1.800 127 63 127
13.807 -6.254 -0.480 56 153 56
2.784 2.704 -1.711 127 63 127
19.095 -7.531 3.686 89 89 89
10.678 0.036 -1.792 127 63 127
19.970 -0.314 -1.835 127 63 127
11.911 -3.611 -1.742 127 63 127
12.322 4.307 -0.640 255 216 25
12.087 4.263 2.461 255 216 25
4.150 6.953 -1.638 244 35 150
46.164 3.643 -1.744 127 63 127
7.754 0.067 -1.747 127 63 127
11.499 3.913 -1.768 127 63 127
10.332 -2.839 -1.652 127 63 127
1.041 7.498 -0.214 56 153 56
11.979 4.450 2.485 255 216 25
4.818 -3.672 -1.754 127 63 127
19.439 -7.759 1.803 89 89 89
-0.100 5.888 0.080 56 153 56
19.153 16.986 1.935 165 165 165
13.567 2.995 -1.810 127 63 127
26.261 -4.937 -1.568 244 35 150
37.250 -10.702 4.186 89 89 89
12.017 -1.037 -0.985 165 165 165
-13.479 3.990 -1.758 127 63 127
-6.150 6.361 -1.607 244 35 150
28.656 -1.694 -1.711 127 63 127
36.707 3.176 -1.685 127 63 127
9.603 -1.119 -0.505 165 165 165
38.835 -1.077 -1.708 127 63 127
20.773 6.475 2.746 56 153 56
7.121 -4.173 -1.541 244 35 150
19.783 2.620 -1.116 165 165 165
20.213 1.421 -1.306 165 165 165
6.961 4.596 -1.000 165 165 165
19.592 7.799 -0.633 89 89 89
0.985 5.792 1.097 56 153 56
8.622 -2.051 -0.776 165 165 165
22.271 0.393 -1.688 127 63 127
43.726 0.102 -1.760 127 63 127
-10.790 -2.386 -1.675 127 63 127
35.066 2.902 -1.788 127 63 127
10.305 8.613 3.555 56 153 56
6.758 4.980 -0.229 165 165 165
4.583 -4.066 -1.584 244 35 150
35.362 -5.575 -1.599 244 35 150
21.117 2.568 -0.739 165 165 165
14.015 -7.940 4.624 89 89 89
47.142 0.102 -1.732 127 63 127
19.526 -3.990 -1.742 127 63 127
31.744 6.136 -1.536 244 35 150
-9.503 -9.413 5.436 89 89 89
44.843 1.692 -1.775 127 63 127
-18.667 -2.771 -1.750 127 63 127
39.246 -2.616 -1.716 127 63 127
12.578 0.526 -1.697 127 63 127
-17.567 -1.397 -1.673 127 63 127
-12.206 1.501 -1.711 127 63 127
-18.839 -6.255 -1.466 244 35 150
47.802 -3.957 -1.704 127 63 127
9.885 10.778 0.788 89 89 89
21.249 2.381 -1.012 165 165 165
28.767 2.399 -1.828 127 63 127
-15.092 -3.516 -1.785 127 63 127
33.697 0.065 -1.725 127 63 127
16.452 -5.995 2.378 56 153 56
10.953 0.827 -1.758 127 63 127
20.562 7.579 0.996 56 153 56
20.230 6.232 -1.625 244 35 150
6.058 4.514 0.226 165 165 165
19.227 2.839 -0.794 165 165 165
-3.405 -5.557 0.378 56 153 56
18.038 7.631 0.194 56 153 56
11.990 3.997 -1.287 255 216 25
33.074 -2.493 -1.727 127 63 127
40.080 2.865 -1.781 127 63 127
30.754 5.349 -1.576 244 35 150
-21.103 3.176 -1.657 127 63 127
-14.318 -8.522 0.286 89 89 89
-1.725 -2.499 -1.755 127 63 127
-7.568 -6.357 0.991 56 153 56
9.208 -1.486 -0.902 165 165 165
-20.996 3.981 -1.695 127 63 127
20.406 -10.458 1.215 89 89 89
19.676 -5.532 -1.599 244 35 150
8.310 -1.324 -1.020 165 165 165
16.541 7.866 3.135 56 153 56
-6.819 -6.735 -1.579 244 35 150
26.431 -3.185 -1.807 127 63 127
24.457 -0.078 -1.709 127 63 127
-12.654 2.816 -1.716 127 63 127
37.242 10.192 -1.440 89 89 89
37.419 -1.834 -1.761 127 63 127
-4.038 -5.677 -1.611 244 35 150
10.149 4.073 -1.606 244 35 150
31.857 1.250 -1.767 127 63 127
37.451 -2.758 -1.759 127 63 127
11.531 8.399 4.704 89 89 89
-17.012 -4.472 -1.528 244 35 150
-16.857 -3.643 -1.738 127 63 127
37.815 6.761 4.740 165 165 165
5.948 4.773 -1.586 244 35 150
12.171 -1.928 -0.457 165 165 165
21.618 2.246 -0.354 165 165 165
33.425 -2.069 -1.740 127 63 127
14.365 11.937 2.675 89 89 89
19.221 -6.581 -1.503 244 35 150
-7.557 2.517 -1.708 127 63 127
35.619 -3.535 -1.734 127 63 127
11.173 -2.690 -1.794 127 63 127
19.242 -8.819 3.294 56 153 56
38.754 -4.921 -1.606 244 35 150
28.960 1.942 -1.752 127 63 127
-2.204 3.525 -1.659 127 63 127
8.522 -1.081 -0.817 165 165 165
2.309 8.846 2.150 89 89 89
19.336 1.607 -1.725 127 63 127
-0.819 7.638 -0.077 56 153 56
5.259 8.313 3.736 89 89 89
6.790 4.610 -0.585 165 165 165
9.949 1.466 -1.739 127 63 127
36.850 3.092 -1.720 127 63 127
11.848 -1.380 -0.827 165 165 165
0.023 -3.115 -1.734 127 63 127
12.128 4.028 0.423 255 216 25
-0.563 1.585 -1.713 127 63 127
-5.996 -0.549 -1.748 127 63 127
-4.167 7.647 5.439 89 89 89
-2.753 -8.858 2.920 56 153 56
-17.871 2.730 -1.779 127 63 127
28.652 11.220 0.582 89 89 89
-15.256 -3.001 -1.737 127 63 127
30.889 4.648 -1.468 244 35 150
8.496 -1.214 -0.538 165 165 165
12.294 -1.103 -0.810 165 165 165
10.684 -2.408 -1.197 165 165 165
35.327 -3.126 -1.713 127 63 127
43.701 -2.051 -1.708 127 63 127
8.256 -3.768 -1.729 127 63 127
45.195 -0.667 -1.688 127 63 127
6.218 5.148 -1.632 244 35 150
-20.845 -2.905 -1.778 127 63 127
35.184 -5.103 -1.659 244 35 150
27.720 -4.472 -1.574 244 35 150
33.047 -1.585 -1.644 127 63 127
43.015 -5.665 -1.581 244 35 150
21.551 6.657 -1.617 244 35 150
10.470 -1.941 -0.653 165 165 165
42.699 0.236 -1.733 127 63 127
-7.111 8.509 2.703 56 153 56
-2.734 1.223 -1.697 127 63 127
-21.879 -3.043 -1.746 127 63 127
10.512 -2.867 -1.681 127 63 127
34.761 2.407 -1.658 127 63 127
-0.438 -2.519 -1.750 127 63 127
35.239 -8.997 1.805 89 89 89
9.486 -2.105 -0.490 165 165 165
43.940 8.701 5.801 165 165 165
9.391 1.801 -1.751 127 63 127
-13.644 5.011 -1.600 244 35 150
-3.553 4.715 -1.601 244 35 150
-5.126 -8.061 0.145 56 153 56
27.438 4.904 -1.603 244 35 150
2.171 5.820 -0.244 56 153 56
32.280 -7.971 0.993 56 153 56
-16.338 -1.629 -1.690 127 63 127
15.590 11.341 -1.020 89 89 89
14.002 -8.476 3.058 56 153 56
-11.555 -1.776 -1.798 127 63 127
1.168 -9.430 4.595 89 89 89
39.395 2.250 -1.717 127 63 127
19.721 -11.858 0.890 89 89 89
20.016 1.757 -0.328 165 165 165
8.649 -6.829 3.920 56 153 56
0.687 -10.914 3.467 89 89 89
-7.244 -3.859 -1.725 127 63 127
-0.576 6.600 3.222 56 153 56
43.096 -6.935 -1.638 244 35 150
34.637 -9.945 4.225 89 89 89
-1.726 0.963 -1.728 127 63 127
4.808 8.590 0.282 56 153 56
-4.548 7.522 0.256 89 89 89
-11.661 5.428 -1.548 244 35 150
6.222 4.833 -0.833 165 165 165
36.972 -0.245 -1.746 127 63 127
8.112 11.080 4.297 89 89 89
42.377 0.961 -1.730 127 63 127
10.605 -7.724 0.904 56 153 56
7.278 6.277 2.927 56 153 56
6.928 4.791 -0.069 165 165 165
28.410 5.736 -1.644 244 35 150
23.102 -11.629 1.779 89 89 89
27.520 1.877 -1.717 127 63 127
28.448 -6.866 -0.442 56 153 56
31.335 7.900 -0.821 89 89 89
34.634 -0.084 -1.726 127 63 127
19.027 2.343 -0.800 165 165 165
20.233 -3.964 -1.727 127 63 127
-23.414 -0.736 -1.696 127 63 127
-15.718 -1.228 -1.713 127 63 127
44.567 -3.009 -1.745 127 63 127
40.123 -5.630 -1.565 244 35 150
30.600 -8.609 3.720 89 89 89
-6.695 -10.150 2.007 89 89 89
-15.856 -0.688 -1.748 127 63 127
27.303 -3.115 -1.662 127 63 127
3.024 -2.580 -1.754 127 63 127
46.892 0.201 -1.741 127 63 127
-14.909 -1.420 -1.786 127 63 127
-15.391 -3.149 -1.727 127 63 127
22.375 3.285 -1.738 127 63 127
29.177 -0.207 -1.713 127 63 127
-2.716 7.592 3.717 56 153 56
26.457 -3.375 -1.805 127 63 127
6.960 4.690 -0.485 165 165 165
-12.869 9.687 -0.563 89 89 89
26.070 -11.058 0.248 89 89 89
34.868 8.233 2.422 56 153 56
28.560 6.754 -1.589 244 35 150
16.467 -7.762 0.377 56 153 56
-3.181 -1.292 -1.719 127 63 127
-1.068 11.770 -0.450 89 89 89
-7.982 1.962 -1.746 127 63 127
8.059 -6.031 1.141 56 153 56
6.078 4.696 -0.712 165 165 165
15.205 -2.756 -1.741 127 63 127
18.441 -1.755 -1.789 127 63 127
-23.662 2.190 -1.692 127 63 127
6.727 -6.642 2.996 56 153 56
19.170 2.108 -1.066 165 165 165
10.283 -2.238 -0.826 165 165 165
11.068 -0.536 -1.730 127 63 127
6.267 1.397 -1.738 127 63 127
-14.210 -3.322 -1.706 127 63 127
-3.646 2.459 -1.681 127 63 127
11.986 4.032 -0.207 255 216 25
-20.214 2.214 -1.740 127 63 127
6.940 4.897 -0.737 165 165 165
44.361 -0.707 -1.712 127 63 127
8.174 -1.610 -1.599 165 165 165
-15.793 -1.540 -1.780 127 63 127
3.646 9.753 2.603 89 89 89
-3.026 5.666 2.866 56 153 56
30.991 -10.225 0.591 89 89 89
9.721 -7.160 3.982 56 153 56
-10.267 3.854 -1.684 127 63 127
